<?xml version="1.0" standalone="no"?>
<!DOCTYPE svg PUBLIC "-//W3C//DTD SVG 20010904//EN"
 "http://www.w3.org/TR/2001/REC-SVG-20010904/DTD/svg10.dtd">
<svg version="1.0" xmlns="http://www.w3.org/2000/svg"
 width="5000.000000pt" height="4000.000000pt" viewBox="0 0 5000.000000 4000.000000"
 preserveAspectRatio="xMidYMid meet">

<g transform="translate(0.000000,4000.000000) scale(0.100000,-0.100000)"
fill="#000000" stroke="none">
<path d="M43996 36769 c-49 -163 -39 -333 29 -524 18 -51 -63 99 -92 170 -35
86 -43 83 -17 -6 21 -71 56 -140 109 -215 l43 -60 -46 -32 c-104 -70 -308
-137 -348 -114 -28 15 -205 3 -226 -16 -23 -19 -23 -39 0 -51 25 -13 170 -2
206 17 16 8 65 23 108 33 88 21 204 71 274 119 l46 31 87 -45 c96 -50 173 -72
276 -80 l70 -6 -85 19 c-77 17 -255 80 -247 87 2 2 30 -4 62 -13 127 -34 379
-12 472 42 15 9 19 13 8 10 -134 -43 -344 -58 -445 -31 l-55 14 85 1 c137 2
250 40 332 113 l33 29 -35 -24 c-98 -69 -198 -98 -331 -96 l-94 2 67 7 c37 5
90 16 117 25 53 17 157 80 181 110 8 9 -14 -1 -50 -24 -78 -51 -170 -80 -270
-86 l-75 -5 80 28 c125 44 202 90 284 170 80 78 74 78 -21 0 -65 -53 -163
-110 -228 -133 -46 -16 -120 -35 -120 -30 0 1 26 19 58 40 67 45 192 170 241
241 29 42 19 34 -65 -49 -99 -97 -182 -165 -237 -194 l-30 -15 7 39 c13 72 84
199 154 274 54 58 61 69 36 56 -52 -27 -123 -115 -169 -211 -24 -50 -47 -103
-51 -118 -10 -43 -21 -33 -28 27 -11 99 16 226 69 324 22 40 22 42 4 21 -54
-64 -98 -191 -100 -290 l-1 -55 -9 40 c-19 95 -3 247 36 328 14 29 14 30 0 13
-54 -69 -80 -248 -52 -366 9 -36 14 -66 12 -68 -9 -10 -56 169 -65 249 -10 91
0 243 21 297 5 14 7 27 5 29 -3 3 -12 -19 -20 -48z m221 -645 c-3 -3 -12 -4
-19 -1 -8 3 -5 6 6 6 11 1 17 -2 13 -5z"/>
<path d="M43892 36520 c0 -14 2 -19 5 -12 2 6 2 18 0 25 -3 6 -5 1 -5 -13z"/>
<path d="M39954 36205 c3 -11 12 -47 20 -80 27 -111 39 -219 39 -345 0 -115
-6 -157 -34 -264 -14 -51 -29 -31 -29 39 -1 65 -31 201 -70 316 -32 93 -115
279 -124 279 -3 0 7 -30 21 -67 35 -91 88 -271 108 -369 16 -78 35 -255 28
-263 -7 -9 -135 124 -179 185 -52 73 -126 226 -147 304 l-15 55 -1 -41 c-1
-48 30 -157 64 -224 36 -71 131 -199 198 -267 34 -35 56 -63 49 -63 -29 0
-167 65 -235 110 -83 55 -180 151 -231 230 -44 67 -47 58 -6 -19 66 -124 171
-224 305 -291 92 -46 88 -50 -13 -16 -160 55 -304 155 -388 269 -25 34 -48 64
-51 67 -14 13 24 -51 63 -107 99 -140 265 -241 474 -288 l65 -15 -71 5 c-87 6
-235 43 -338 84 -130 52 -263 136 -386 245 l-45 40 35 -38 c72 -79 118 -118
212 -182 148 -100 325 -167 478 -181 119 -11 98 -22 -40 -23 -120 0 -289 17
-345 35 -16 5 -17 5 -4 -4 78 -51 370 -77 528 -47 47 8 86 14 87 13 2 -1 8
-44 15 -95 22 -176 -37 -496 -97 -519 -21 -8 -134 -250 -134 -289 0 -50 40
-79 77 -56 6 4 33 52 59 107 37 79 48 116 54 175 4 41 19 125 34 185 30 124
45 349 29 447 l-10 57 82 50 c144 88 295 246 354 371 12 25 16 36 9 26 -53
-79 -210 -240 -308 -316 -47 -36 -43 -28 34 59 143 164 247 418 260 637 6 98
4 95 -14 -16 -37 -231 -177 -509 -330 -655 l-42 -40 52 70 c127 172 186 396
151 580 -5 29 -7 11 -8 -65 0 -163 -46 -310 -143 -464 -23 -36 -43 -66 -45
-66 -2 0 14 37 35 83 70 147 89 348 46 477 l-15 45 7 -50 c12 -88 4 -235 -18
-319 -19 -74 -96 -253 -105 -244 -3 2 2 28 10 58 42 159 40 384 -5 546 -17 64
-66 184 -56 139z"/>
<path d="M40231 36124 c0 -11 3 -14 6 -6 3 7 2 16 -1 19 -3 4 -6 -2 -5 -13z"/>
<path d="M35610 35348 c0 -2 9 -52 21 -113 29 -157 37 -465 15 -597 -17 -103
-57 -242 -79 -271 -11 -16 -12 -13 -9 22 10 106 -31 368 -87 554 -28 94 -131
360 -137 354 -2 -1 8 -39 22 -82 42 -132 93 -340 115 -469 23 -140 38 -416 21
-416 -5 0 -34 26 -63 58 -170 185 -288 412 -339 652 l-19 85 0 -76 c-2 -200
123 -470 328 -707 39 -45 70 -82 69 -82 -2 0 -27 9 -57 20 -233 89 -438 265
-567 487 -53 91 -49 63 8 -53 96 -195 260 -350 467 -440 96 -42 79 -43 -36 -3
-113 40 -229 98 -320 161 -99 68 -231 208 -287 304 -54 93 -60 91 -12 -5 128
-252 372 -439 675 -517 103 -26 126 -36 65 -28 -392 54 -688 196 -984 470 -65
61 -77 69 -51 36 19 -24 62 -72 95 -106 240 -243 576 -407 911 -444 l80 -9
-131 -2 c-219 -2 -429 26 -564 75 -35 13 -66 22 -67 20 -7 -7 142 -68 220 -90
131 -38 246 -49 429 -43 90 4 177 9 195 13 30 6 32 4 39 -31 3 -20 4 -112 1
-203 -4 -145 -9 -183 -36 -290 -44 -169 -94 -285 -127 -298 -37 -13 -207 -323
-207 -376 0 -55 26 -88 67 -88 18 0 38 6 44 13 5 6 43 73 83 147 66 121 74
142 77 200 2 39 19 114 42 185 72 225 107 463 95 655 l-7 106 53 24 c230 107
458 315 583 531 36 64 32 75 -5 14 -45 -71 -236 -257 -361 -350 -164 -123
-173 -123 -53 -2 215 218 357 485 415 782 29 152 25 208 -6 75 -42 -185 -99
-331 -186 -483 -89 -155 -226 -324 -341 -419 l-52 -43 54 60 c142 158 237 338
277 528 15 73 18 299 4 352 -5 18 -6 0 -3 -45 15 -211 -58 -455 -201 -669 -81
-122 -123 -162 -61 -58 88 145 134 313 134 482 0 77 -20 239 -31 251 -2 1 -2
-56 0 -127 7 -208 -26 -356 -118 -539 -44 -87 -113 -192 -95 -145 104 271 114
672 24 942 -11 35 -23 63 -25 63 -2 0 -4 -1 -4 -2z"/>
<path d="M31424 35265 c2 -16 10 -68 17 -114 22 -153 -1 -395 -45 -480 -11
-21 -14 -10 -19 85 -6 123 -35 248 -92 397 -21 54 -39 96 -40 95 -2 -2 12 -59
31 -128 52 -187 92 -480 66 -480 -6 0 -37 29 -69 64 -84 92 -166 257 -198 400
-12 56 -17 17 -6 -53 20 -130 80 -250 192 -388 33 -40 57 -73 54 -73 -2 0 -29
11 -59 24 -118 52 -247 163 -320 276 -44 66 -46 59 -7 -18 54 -106 140 -192
261 -257 93 -51 34 -33 -88 26 -80 39 -120 67 -179 122 -41 39 -86 90 -100
114 -35 60 -40 54 -6 -9 15 -29 63 -89 108 -133 88 -89 174 -138 300 -174 83
-23 65 -27 -34 -6 -204 43 -393 144 -549 293 -66 64 -51 35 20 -39 147 -152
335 -251 553 -293 l80 -15 -125 4 c-69 3 -165 14 -215 24 -49 10 -91 17 -93
16 -7 -6 109 -44 169 -56 74 -13 242 -17 310 -6 43 7 47 6 53 -15 31 -116 -46
-494 -103 -513 -15 -5 -114 -173 -134 -228 -17 -47 31 -97 66 -69 27 23 107
190 107 224 0 19 13 76 29 126 42 130 63 268 59 390 l-3 102 29 12 c104 42
267 178 341 283 61 86 64 97 14 40 -64 -72 -141 -143 -222 -202 -38 -29 -72
-53 -75 -53 -3 0 29 35 70 78 129 135 219 309 254 490 18 92 17 138 -1 57 -21
-96 -54 -183 -108 -288 -52 -99 -159 -240 -219 -286 -32 -25 -32 -25 7 21 54
62 102 144 133 226 21 56 25 87 28 192 l2 125 -8 -100 c-13 -146 -74 -304
-154 -400 -22 -26 -21 -21 9 41 43 85 65 185 64 279 -2 111 -16 147 -18 44 0
-49 -10 -120 -21 -165 -19 -76 -72 -197 -104 -239 -14 -18 -14 -15 -1 30 23
76 45 222 45 296 0 78 -23 217 -45 274 -13 34 -15 35 -11 10z"/>
<path d="M31551 35164 c0 -11 3 -14 6 -6 3 7 2 16 -1 19 -3 4 -6 -2 -5 -13z"/>
<path d="M43661 34894 c-1 -36 45 -205 73 -267 37 -85 108 -187 177 -257 33
-34 52 -57 42 -52 -47 26 -154 111 -212 170 -70 71 -71 67 -5 -18 67 -85 191
-179 291 -219 l33 -13 -31 -58 c-64 -121 -249 -300 -310 -300 -31 0 -186 -82
-211 -112 -24 -27 -23 -55 2 -68 16 -8 35 -2 105 36 48 26 96 60 108 76 12 17
57 59 100 94 87 73 171 170 223 259 l35 60 147 1 c133 0 155 3 227 27 44 15
91 34 105 43 16 10 18 13 5 8 -73 -26 -175 -45 -265 -49 -83 -4 -96 -2 -61 5
67 14 170 50 226 78 102 51 229 151 287 225 l32 42 -54 -50 c-125 -116 -242
-186 -385 -233 -124 -41 -196 -52 -95 -14 99 36 157 71 227 136 54 50 113 134
129 181 3 11 -7 -3 -24 -30 -45 -76 -159 -178 -250 -224 -98 -49 -146 -63 -67
-19 102 56 215 187 240 278 3 14 -8 0 -26 -30 -48 -82 -161 -188 -249 -234
l-75 -39 62 57 c34 31 83 84 109 119 51 68 128 221 139 277 4 24 -9 4 -39 -58
-65 -133 -125 -219 -207 -296 -39 -37 -73 -65 -76 -63 -2 3 10 27 26 54 60 98
127 292 145 423 5 33 0 23 -18 -36 -49 -159 -135 -354 -184 -414 l-20 -25 -9
30 c-4 17 -8 93 -7 170 0 129 2 147 31 229 23 68 26 83 12 65 -28 -36 -58
-121 -70 -202 -11 -71 -6 -256 8 -293 12 -33 -23 2 -52 52 -43 74 -76 173 -90
274 l-13 95 -1 -76 c-1 -99 14 -173 53 -253 39 -80 19 -66 -35 24 -48 81 -77
160 -95 260 l-13 75 5 -77 c8 -131 53 -245 139 -355 39 -49 33 -44 -37 28
-116 121 -193 259 -238 432 -10 40 -19 62 -19 51z"/>
<path d="M43822 34860 c0 -14 2 -19 5 -12 2 6 2 18 0 25 -3 6 -5 1 -5 -13z"/>
<path d="M43912 34810 c0 -14 2 -19 5 -12 2 6 2 18 0 25 -3 6 -5 1 -5 -13z"/>
<path d="M42250 34553 c-7 -33 -10 -89 -7 -131 3 -41 3 -72 0 -69 -2 3 -13 32
-24 64 l-20 58 6 -45 c3 -25 20 -74 38 -110 l32 -65 -32 -65 c-18 -36 -40 -92
-50 -125 -18 -67 -29 -195 -16 -195 28 1 33 20 32 111 -1 66 4 109 16 144 18
53 52 115 63 115 4 0 27 -14 52 -30 25 -17 67 -37 94 -45 76 -23 79 -17 6 11
-83 32 -97 45 -29 28 58 -15 146 -17 194 -3 21 6 15 6 -22 3 -29 -3 -85 0
-125 7 l-73 13 80 7 c69 5 145 29 145 45 0 2 -15 -3 -32 -12 -21 -11 -62 -18
-113 -20 -77 -3 -78 -3 -27 6 47 9 132 44 132 55 0 2 -19 -4 -42 -15 -52 -22
-128 -35 -158 -25 -18 6 -10 12 47 40 37 18 85 49 106 70 51 52 47 61 -5 12
-39 -36 -164 -104 -174 -94 -8 7 54 93 112 157 l59 65 -52 -43 c-49 -41 -94
-91 -122 -137 -11 -18 -12 -16 -7 13 7 43 49 126 88 177 31 39 31 39 4 15 -37
-33 -74 -92 -98 -155 l-19 -50 4 52 c2 29 15 75 29 102 15 32 19 46 10 38 -20
-16 -52 -86 -52 -114 0 -13 -5 -23 -10 -23 -6 0 -8 10 -6 23 3 12 8 40 11 62
4 21 13 52 21 67 8 15 12 28 10 28 -13 0 -40 -71 -51 -134 l-12 -71 -7 56 c-4
30 -2 84 3 119 13 81 7 90 -9 13z"/>
<path d="M30827 34559 c7 -7 15 -10 18 -7 3 3 -2 9 -12 12 -14 6 -15 5 -6 -5z"/>
<path d="M42648 34213 c7 -3 16 -2 19 1 4 3 -2 6 -13 5 -11 0 -14 -3 -6 -6z"/>
<path d="M32486 33798 c-10 -41 -6 -142 9 -198 8 -30 13 -56 11 -57 -5 -5 -60
65 -76 97 -8 14 -20 43 -27 65 l-13 40 6 -39 c3 -22 17 -63 31 -90 l25 -51
-27 30 c-14 17 -39 57 -56 90 -16 33 -29 53 -29 45 0 -28 47 -115 82 -153 20
-20 33 -37 30 -37 -17 0 -117 101 -151 153 -23 34 -41 57 -41 51 0 -23 79
-131 129 -176 29 -27 50 -48 45 -48 -10 0 -93 48 -119 69 -15 12 -14 9 3 -11
28 -30 123 -83 169 -93 18 -3 35 -10 37 -14 15 -23 -108 -221 -136 -221 -6 0
-33 -17 -59 -37 -34 -25 -49 -44 -49 -60 0 -54 56 -14 142 101 33 44 76 113
94 152 l33 71 56 6 c55 6 142 40 180 71 14 12 7 10 -24 -4 -42 -21 -133 -52
-137 -47 -2 1 22 15 52 31 59 31 147 114 178 167 12 21 -6 5 -52 -42 -39 -42
-95 -88 -124 -104 l-53 -28 53 48 c49 44 100 120 89 132 -3 2 -8 -6 -12 -18
-9 -26 -90 -116 -120 -131 -11 -6 -3 6 18 28 34 35 78 125 76 157 0 7 -9 -11
-20 -40 -18 -47 -105 -160 -116 -150 -2 3 10 27 27 53 32 51 70 160 69 198 0
11 -10 -13 -22 -55 -23 -74 -63 -155 -90 -177 -10 -9 -9 3 4 56 10 37 18 92
18 122 l-1 55 -13 -71 c-19 -104 -45 -188 -55 -178 -21 21 -42 140 -37 201 6
65 4 80 -7 41z"/>
<path d="M26908 33545 c4 -33 6 -112 6 -175 -1 -92 -7 -130 -26 -190 l-24 -75
-8 90 c-4 50 -14 119 -22 155 -16 73 -64 223 -69 218 -2 -2 5 -36 15 -76 26
-97 50 -265 50 -343 l0 -63 -36 35 c-68 65 -132 192 -159 314 -12 57 -13 58
-14 20 -2 -92 53 -226 140 -342 22 -29 37 -53 33 -53 -3 0 -33 14 -66 32 -74
40 -165 126 -207 198 -18 30 -29 44 -26 30 21 -77 121 -195 204 -241 26 -14
29 -18 11 -13 -84 22 -203 113 -271 207 -41 56 -36 36 6 -28 57 -86 142 -154
243 -195 63 -26 31 -25 -49 1 -128 42 -216 96 -328 203 -57 54 -67 61 -43 30
103 -134 272 -242 436 -280 l61 -14 -88 6 c-48 3 -120 13 -160 24 -40 10 -73
17 -75 15 -7 -6 108 -44 167 -55 35 -6 104 -10 154 -9 l92 2 3 -69 c5 -114
-45 -298 -92 -339 -26 -23 -116 -169 -116 -188 0 -26 26 -50 46 -43 27 9 94
132 104 191 5 28 14 64 20 80 29 71 51 178 57 277 5 98 8 107 27 112 67 17
227 147 288 234 26 37 21 34 -39 -25 -38 -37 -98 -88 -133 -112 l-65 -44 56
59 c94 101 150 195 188 318 28 91 26 118 -3 36 -48 -135 -122 -255 -216 -345
l-52 -50 49 65 c68 91 103 174 108 257 l4 68 -9 -52 c-14 -74 -50 -160 -99
-232 -23 -33 -43 -61 -45 -61 -1 0 13 30 31 68 37 74 54 148 52 226 l-1 51
-14 -74 c-19 -109 -43 -175 -81 -234 -20 -30 -31 -42 -27 -27 4 14 13 48 21
75 25 88 27 249 4 335 l-19 75 6 -60z"/>
<path d="M27222 33550 c0 -14 2 -19 5 -12 2 6 2 18 0 25 -3 6 -5 1 -5 -13z"/>
<path d="M27081 33514 c0 -11 3 -14 6 -6 3 7 2 16 -1 19 -3 4 -6 -2 -5 -13z"/>
<path d="M27001 33484 c0 -11 3 -14 6 -6 3 7 2 16 -1 19 -3 4 -6 -2 -5 -13z"/>
<path d="M37967 32999 c-199 -182 -329 -449 -360 -739 -2 -19 -4 26 -5 100 -2
141 16 294 43 369 8 24 13 46 11 48 -7 8 -56 -138 -72 -218 -13 -64 -15 -114
-11 -233 3 -83 9 -163 12 -178 7 -25 5 -27 -40 -34 -71 -10 -301 3 -370 21
-119 31 -183 58 -195 80 -14 25 -249 145 -286 145 -37 0 -64 -18 -64 -43 0
-34 9 -41 110 -93 73 -37 110 -50 160 -55 36 -3 117 -20 180 -37 146 -39 295
-56 427 -47 98 7 101 6 108 -15 13 -40 124 -196 182 -257 65 -67 144 -127 218
-167 28 -15 39 -19 25 -9 -103 75 -238 214 -321 332 -31 44 -29 43 42 -24 159
-150 354 -250 567 -291 113 -21 167 -17 62 6 -230 49 -441 159 -605 315 -38
37 -56 57 -40 45 165 -117 256 -162 383 -186 80 -15 173 -17 237 -5 30 5 13 7
-65 8 -161 2 -312 53 -462 155 -32 21 -58 41 -58 43 0 3 28 -11 63 -29 120
-66 266 -93 404 -76 137 17 130 25 -25 25 -126 0 -158 3 -222 23 -71 23 -236
99 -228 107 1 2 39 -5 83 -16 106 -26 307 -35 416 -20 76 11 244 59 236 67 -2
2 -46 -5 -98 -16 -121 -25 -341 -36 -435 -21 -39 6 -102 21 -140 33 l-69 22
95 7 c117 9 214 29 345 73 102 35 248 96 242 102 -2 2 -44 -10 -93 -26 -190
-65 -413 -110 -544 -110 l-64 0 54 56 c109 111 245 192 424 251 87 29 94 33
51 28 -175 -19 -347 -106 -513 -260 -70 -65 -72 -56 -11 71 69 145 180 269
310 347 71 42 72 46 5 17 -146 -62 -294 -215 -355 -367 -28 -67 -26 -41 3 43
30 90 68 165 121 240 48 67 150 166 197 190 16 8 28 18 25 21 -3 2 -31 -12
-62 -32 -158 -101 -274 -264 -324 -455 -24 -92 -29 -47 -6 60 47 222 156 433
306 594 39 42 69 76 66 76 -2 0 -34 -27 -70 -61z"/>
<path d="M33167 32190 c-4 -96 -15 -222 -26 -280 -20 -114 -56 -246 -70 -254
-10 -7 -61 105 -89 195 -31 102 -45 220 -40 338 5 101 5 104 -9 66 -47 -129
-17 -362 74 -579 13 -32 22 -60 20 -63 -3 -2 -39 29 -80 70 -116 115 -197 252
-232 395 -12 50 -13 53 -14 22 -2 -79 53 -229 120 -327 18 -27 58 -73 88 -103
l56 -54 -48 33 c-59 41 -176 156 -215 213 -48 70 -92 166 -112 242 -10 39 -19
62 -19 50 -2 -40 38 -172 69 -235 62 -123 163 -234 279 -308 74 -47 73 -53 -2
-15 -198 101 -416 312 -518 504 -18 33 -34 58 -36 56 -7 -7 70 -157 117 -227
52 -77 217 -243 282 -284 27 -17 48 -34 48 -38 0 -45 -220 59 -330 157 -32 28
-32 27 5 -12 50 -54 140 -120 223 -161 l62 -31 -25 -50 c-14 -28 -32 -76 -40
-108 l-15 -57 4 80 c2 54 0 72 -6 56 -4 -13 -9 -67 -11 -120 l-2 -96 -52 -3
c-71 -4 -161 21 -225 63 -58 39 -90 50 -114 41 -76 -29 181 -116 344 -116 65
0 69 -1 81 -27 21 -46 71 -102 120 -135 l46 -31 -65 68 -65 67 67 -45 c37 -25
76 -48 88 -52 l20 -6 -22 -32 c-53 -77 -101 -127 -121 -127 -14 -1 -62 -40
-129 -104 -96 -92 -108 -107 -108 -138 0 -19 5 -39 12 -46 27 -27 56 -11 150
81 73 71 97 102 107 134 6 23 22 55 35 70 12 15 41 56 64 89 36 54 44 61 69
57 26 -3 26 -3 6 6 -13 6 -23 12 -23 15 0 11 74 151 81 154 5 2 7 7 4 12 -3 5
3 30 14 57 10 26 24 73 31 104 13 56 13 57 54 63 176 27 342 95 474 195 45 34
82 65 82 67 0 6 -16 -3 -55 -32 -68 -50 -361 -175 -408 -174 -7 0 24 20 68 43
221 116 383 282 495 505 52 106 51 116 -3 21 -122 -214 -317 -399 -534 -508
-76 -38 -94 -40 -33 -4 175 104 301 255 355 426 14 43 25 86 24 95 0 9 -8 -8
-18 -38 -39 -121 -90 -199 -206 -315 -60 -60 -126 -119 -145 -129 -28 -16 -22
-8 27 38 118 109 204 276 218 421 l6 60 -21 -75 c-24 -87 -66 -180 -111 -247
-38 -56 -132 -156 -172 -185 -25 -18 -23 -13 19 52 113 175 172 355 179 550
l5 115 -19 -110 c-30 -178 -71 -316 -127 -427 -28 -57 -114 -182 -120 -176 -2
2 6 33 17 68 32 104 49 243 48 405 -1 236 -14 273 -22 65z m-312 -602 c14 -6
25 -15 25 -20 0 -4 8 -8 18 -8 9 -1 28 -7 42 -16 l25 -15 -25 7 c-68 19 -124
42 -128 52 -5 15 10 15 43 0z m-33 -48 c6 0 -6 -19 -27 -41 -20 -23 -45 -60
-56 -83 -24 -53 -24 -34 0 36 28 80 40 100 58 94 8 -3 19 -6 25 -6z m61 -20
c7 0 -9 -14 -35 -31 -26 -17 -61 -52 -78 -77 -35 -53 -39 -49 -9 11 27 54 79
109 97 102 8 -3 19 -5 25 -5z m106 -27 l83 -16 -6 -38 c-3 -21 -11 -50 -18
-66 -6 -15 -12 -33 -14 -40 -1 -6 -7 -28 -14 -47 l-12 -36 -83 0 c-93 0 -147
8 -139 21 3 5 20 9 39 9 33 0 201 48 193 55 -2 2 -35 -4 -74 -15 -91 -23 -184
-35 -184 -23 0 23 102 90 185 124 42 16 44 18 15 13 -56 -10 -121 -42 -172
-85 -55 -46 -62 -34 -20 32 28 43 114 129 129 129 5 0 46 -7 92 -17z m-68
-258 c72 0 76 -1 69 -20 -4 -11 -15 -21 -24 -23 -25 -5 -116 17 -161 38 l-40
19 40 -7 c22 -4 74 -7 116 -7z m-48 -79 c26 -9 54 -16 63 -16 12 0 12 -4 4
-20 -11 -20 -11 -20 -58 4 -26 14 -63 39 -82 56 -31 28 -32 30 -5 12 17 -11
52 -27 78 -36z m30 30 c40 -6 66 -14 64 -20 -7 -19 -74 -8 -124 19 -27 14 -39
23 -28 19 11 -4 50 -12 88 -18z"/>
<path d="M33612 32165 c0 -16 2 -22 5 -12 2 9 2 23 0 30 -3 6 -5 -1 -5 -18z"/>
<path d="M42996 32003 c-11 -141 -45 -359 -76 -488 -29 -121 -89 -304 -117
-359 l-15 -30 -14 27 c-33 62 -84 240 -100 347 -19 132 -14 340 10 450 8 36
13 66 12 68 -8 7 -49 -107 -63 -172 -11 -53 -14 -108 -10 -221 6 -168 28 -286
82 -447 l35 -103 -85 87 c-169 174 -277 397 -304 628 l-8 75 -2 -88 c-3 -201
81 -424 217 -580 84 -95 87 -101 35 -59 -80 66 -187 186 -248 276 -92 138
-144 278 -165 437 l-9 74 4 -90 c11 -278 166 -556 413 -742 103 -77 107 -82
37 -43 -166 90 -374 274 -500 441 -78 104 -151 229 -206 351 -42 95 -49 88
-13 -13 116 -324 343 -606 629 -783 50 -31 97 -60 105 -66 29 -19 -136 52
-245 105 -139 69 -272 155 -355 231 l-64 59 39 -49 c85 -105 255 -232 408
-305 91 -43 247 -98 307 -107 22 -4 40 -12 40 -19 0 -29 -54 -176 -95 -258
-65 -129 -148 -249 -247 -353 -73 -76 -92 -90 -112 -87 -20 4 -55 -20 -180
-122 -148 -121 -155 -129 -162 -170 -7 -51 7 -82 42 -91 29 -8 39 -1 193 125
90 73 108 94 132 146 15 33 56 92 89 130 161 183 297 414 360 612 l23 71 81 7
c173 14 372 68 511 137 75 38 214 129 240 158 12 13 -1 8 -35 -15 -109 -74
-284 -142 -505 -196 -154 -37 -170 -36 -65 5 184 72 311 147 456 269 141 118
287 303 369 467 34 69 29 64 -33 -30 -163 -250 -402 -465 -661 -594 -77 -39
-221 -96 -239 -96 -4 0 34 21 83 46 219 111 383 271 482 469 36 71 69 165 78
220 4 28 -1 18 -20 -33 -54 -155 -115 -252 -235 -376 -92 -95 -201 -179 -305
-236 -71 -39 -66 -34 37 44 173 129 297 326 343 542 22 104 17 119 -10 29 -63
-213 -194 -405 -369 -544 -115 -91 -127 -94 -64 -16 200 250 314 532 333 820
l5 90 -24 -115 c-52 -241 -146 -478 -250 -634 -54 -79 -173 -216 -162 -186 2
8 18 47 34 85 72 175 111 392 119 673 6 210 1 266 -11 115z"/>
<path d="M27608 31940 c4 -25 7 -103 7 -175 0 -110 -4 -142 -25 -205 l-24 -75
-7 80 c-5 44 -13 107 -19 140 -11 61 -69 249 -75 243 -2 -2 5 -34 16 -72 26
-94 49 -259 49 -342 l-1 -69 -49 54 c-59 65 -114 174 -139 278 -17 67 -20 72
-20 38 -1 -91 51 -222 133 -330 24 -33 43 -61 41 -63 -2 -2 -31 11 -64 28 -74
40 -169 131 -211 202 -17 29 -28 42 -25 28 20 -70 101 -171 178 -221 73 -47
66 -50 -22 -7 -62 31 -193 147 -229 203 -7 11 -4 2 7 -20 44 -92 151 -182 273
-231 74 -29 27 -23 -67 9 -126 42 -213 96 -319 196 -43 41 -61 54 -48 34 12
-17 54 -61 94 -98 82 -76 232 -156 338 -180 l65 -15 -85 6 c-75 4 -165 20
-225 39 -11 3 -7 -1 8 -10 57 -33 177 -56 287 -54 l105 1 -1 -103 c-1 -125
-38 -256 -83 -298 -15 -15 -49 -63 -76 -109 -41 -73 -46 -87 -36 -108 11 -24
27 -30 47 -16 22 15 85 133 91 169 3 21 17 72 31 113 32 97 51 207 52 295 0
71 0 71 33 83 86 31 215 136 276 225 32 47 31 46 -36 -20 -38 -37 -98 -88
-133 -113 l-65 -44 72 77 c54 59 84 102 121 180 46 93 92 241 79 253 -2 3 -8
-12 -12 -32 -8 -47 -56 -167 -86 -219 -36 -62 -102 -145 -155 -195 -27 -25
-37 -31 -23 -15 81 94 139 222 138 305 -1 44 -1 44 -15 -20 -15 -72 -70 -188
-110 -235 -25 -30 -25 -29 4 30 36 73 52 146 51 228 l-1 62 -13 -86 c-15 -94
-39 -165 -80 -235 -32 -54 -41 -53 -21 3 39 112 45 312 12 413 l-15 45 7 -45z"/>
<path d="M15620 31618 c-18 -92 -25 -392 -11 -491 29 -198 102 -407 204 -575
68 -113 52 -103 -52 32 -135 176 -211 300 -262 430 -38 94 -37 67 1 -47 72
-213 190 -395 369 -565 l76 -73 -77 -73 c-42 -40 -107 -95 -145 -122 -152
-109 -463 -241 -504 -215 -27 16 -49 14 -240 -24 -160 -32 -176 -37 -201 -65
-33 -35 -36 -79 -10 -103 25 -22 35 -22 206 13 163 33 152 29 221 80 28 20 84
49 125 65 202 76 440 220 579 351 l81 76 92 -40 c186 -79 418 -121 598 -108
161 12 192 24 66 25 -132 1 -282 22 -436 61 -151 38 -185 51 -105 42 33 -4
143 -7 245 -7 156 0 202 4 289 24 134 29 252 71 373 131 83 41 218 124 218
134 0 1 -60 -27 -132 -64 -217 -108 -416 -163 -648 -178 -136 -10 -175 -8
-325 10 l-100 13 170 6 c180 6 267 23 391 73 151 62 320 190 396 299 12 18 -5
5 -38 -28 -163 -167 -400 -274 -667 -304 -53 -6 -120 -10 -149 -10 -49 1 -46
2 37 15 165 25 295 76 430 167 73 49 169 144 215 212 33 49 33 49 -38 -22 -79
-79 -186 -159 -272 -203 -116 -59 -336 -121 -419 -119 l-26 0 25 11 c301 127
513 286 671 503 37 50 99 151 99 161 0 3 -28 -30 -62 -73 -135 -170 -327 -341
-498 -442 -74 -45 -247 -117 -256 -108 -2 1 22 23 53 47 159 127 360 394 483
640 51 103 44 97 -50 -45 -40 -60 -109 -157 -154 -214 -124 -160 -374 -406
-393 -388 -10 10 16 173 43 275 45 167 123 327 227 462 28 36 55 72 61 80 21
27 -49 -29 -96 -77 -133 -138 -235 -375 -284 -663 -9 -52 -17 -96 -19 -98 -2
-2 -12 25 -24 60 -81 245 -74 518 20 751 15 37 25 67 23 67 -10 0 -60 -102
-89 -182 -71 -199 -71 -417 0 -633 4 -14 2 -12 -9 5 -25 41 -84 232 -101 326
-30 173 -16 356 41 519 31 90 14 72 -24 -25 -44 -112 -62 -215 -62 -355 0
-175 31 -312 109 -475 47 -101 48 -103 6 -40 -185 280 -289 695 -257 1030 6
63 9 116 7 118 -1 2 -8 -25 -15 -60z"/>
<path d="M21684 31538 c41 -199 51 -499 23 -669 -15 -88 -60 -241 -84 -284 -7
-12 -12 25 -16 126 -10 240 -57 445 -164 716 -20 51 -38 92 -39 90 -2 -2 14
-64 36 -140 74 -261 110 -483 110 -689 0 -83 -4 -138 -10 -138 -14 0 -134 143
-186 222 -86 129 -172 340 -196 481 -17 93 -32 86 -24 -12 9 -112 39 -218 91
-330 54 -112 171 -291 246 -375 59 -66 55 -66 -60 -15 -208 94 -414 291 -517
497 -42 82 -44 69 -5 -27 91 -224 273 -409 500 -506 75 -32 50 -32 -41 1 -281
101 -502 278 -621 498 -41 76 -41 54 1 -29 127 -255 372 -444 681 -527 45 -11
80 -23 78 -25 -7 -6 -183 28 -272 53 -269 77 -503 215 -724 428 -101 98 -103
99 -56 38 67 -87 216 -227 311 -294 196 -138 434 -233 669 -267 59 -8 58 -9
-40 -10 -190 -2 -455 40 -586 93 -82 33 -74 21 14 -19 192 -88 359 -119 602
-112 94 3 180 9 192 12 20 7 21 3 29 -82 16 -194 -35 -465 -127 -670 -21 -47
-34 -64 -53 -69 -20 -5 -45 -40 -121 -174 -97 -172 -108 -206 -84 -253 16 -29
28 -37 60 -37 33 0 41 10 128 164 66 117 73 136 81 205 4 43 26 129 49 198 74
217 105 413 99 615 l-3 115 110 57 c223 115 442 315 535 490 l21 41 -22 -30
c-79 -107 -319 -316 -480 -418 -53 -34 -48 -28 65 86 224 223 352 454 420 759
36 159 33 214 -3 73 -95 -365 -268 -645 -550 -890 -19 -17 -5 5 31 47 156 181
238 345 273 544 16 91 18 209 6 284 -5 35 -8 13 -13 -95 -4 -110 -11 -159 -32
-230 -48 -163 -154 -355 -255 -465 l-42 -45 36 51 c48 71 119 225 141 309 15
56 19 104 18 235 0 94 -6 178 -12 195 -9 24 -10 14 -5 -55 14 -210 -57 -470
-180 -662 -51 -78 -58 -79 -31 -2 95 261 104 623 22 887 -22 70 -35 90 -24 35z"/>
<path d="M22331 31534 c0 -11 3 -14 6 -6 3 7 2 16 -1 19 -3 4 -6 -2 -5 -13z"/>
<path d="M28977 31423 c-19 -172 28 -405 116 -578 33 -65 52 -96 114 -185 40
-56 -142 138 -189 202 -24 32 -58 84 -75 115 -40 72 -42 63 -4 -21 61 -136
164 -266 285 -360 88 -69 89 -64 -13 -165 -128 -128 -327 -247 -408 -243 -55
2 -290 -70 -308 -95 -21 -27 -19 -70 4 -82 14 -8 45 -3 122 20 121 36 134 42
174 79 17 15 66 46 109 69 134 71 217 132 325 239 l105 102 45 -15 c175 -56
412 -65 553 -20 l43 14 -45 -7 c-78 -12 -291 -5 -390 13 -105 18 -135 31 -50
20 68 -8 235 9 334 35 40 11 110 35 155 54 88 37 260 147 301 191 17 19 6 14
-37 -17 -192 -141 -469 -230 -702 -227 l-96 2 65 8 c216 28 365 95 487 220 89
91 92 108 4 27 -100 -94 -217 -156 -365 -193 -103 -26 -193 -35 -101 -10 80
21 152 52 213 92 70 44 169 145 201 204 28 50 28 50 -28 -14 -95 -111 -210
-188 -355 -238 -120 -42 -129 -35 -33 24 123 74 217 154 292 249 57 72 135
202 135 224 0 4 -27 -31 -60 -79 -114 -163 -277 -315 -407 -381 -29 -14 -55
-26 -58 -26 -4 0 17 26 45 58 73 81 172 232 224 342 50 105 88 200 81 200 -2
0 -27 -45 -55 -99 -28 -55 -82 -146 -119 -203 -72 -108 -214 -278 -233 -278
-18 0 -2 172 26 280 28 112 71 211 128 294 l40 61 -47 -45 c-102 -98 -191
-355 -196 -570 l-1 -45 -24 51 c-43 92 -66 199 -66 319 -1 96 4 134 28 230 3
13 0 11 -11 -7 -59 -103 -59 -350 -1 -513 4 -11 -4 0 -18 25 -14 25 -40 88
-57 140 -29 85 -32 108 -33 215 -1 66 2 140 6 165 l7 45 -17 -45 c-12 -33 -16
-82 -16 -185 0 -127 2 -147 28 -220 15 -44 45 -113 67 -152 22 -40 38 -73 36
-73 -3 0 -27 33 -54 73 -132 190 -199 391 -211 627 l-7 135 -8 -72z"/>
<path d="M22041 31454 c0 -11 3 -14 6 -6 3 7 2 16 -1 19 -3 4 -6 -2 -5 -13z"/>
<path d="M33018 31063 c6 -2 18 -2 25 0 6 3 1 5 -13 5 -14 0 -19 -2 -12 -5z"/>
<path d="M38725 30845 c15 -122 71 -270 148 -385 16 -25 62 -78 101 -119 50
-52 61 -67 36 -51 -77 52 -157 117 -214 175 -58 59 -59 59 -28 15 62 -91 176
-187 292 -245 30 -15 57 -29 59 -31 6 -6 -51 -97 -100 -160 -73 -93 -198 -194
-240 -194 -28 0 -188 -84 -211 -112 -24 -27 -23 -55 2 -68 17 -9 35 -3 106 36
47 25 95 60 107 76 12 16 52 54 90 84 80 66 185 185 235 270 l36 60 110 -4
c75 -3 134 1 181 11 68 15 190 56 183 62 -2 2 -37 -6 -78 -16 -41 -11 -122
-22 -180 -24 l-105 -5 65 15 c201 45 381 158 505 315 11 14 -10 -3 -47 -37
-150 -137 -343 -235 -508 -257 l-45 -6 50 15 c101 29 197 85 271 159 39 39 81
91 94 116 27 53 25 52 -29 -20 -54 -73 -139 -142 -225 -183 -95 -46 -136 -56
-61 -15 77 42 171 137 211 213 43 82 53 125 12 50 -44 -79 -135 -175 -211
-222 -110 -69 -122 -68 -46 4 115 109 212 274 244 413 l5 25 -12 -25 c-6 -14
-27 -57 -45 -97 -50 -108 -124 -212 -204 -287 -39 -37 -73 -66 -75 -63 -2 2
11 30 31 62 46 78 90 192 120 318 31 127 31 156 1 57 -50 -162 -103 -284 -163
-379 -30 -47 -36 -52 -45 -37 -17 30 -22 209 -8 293 7 43 23 107 37 143 27 74
17 70 -22 -8 -40 -79 -58 -196 -51 -324 4 -59 9 -115 12 -125 11 -36 -38 32
-71 98 -45 89 -67 178 -68 279 -1 101 -14 64 -16 -45 -1 -83 19 -168 59 -247
15 -32 26 -58 24 -58 -2 0 -25 31 -50 70 -52 81 -92 180 -103 259 l-9 56 -1
-50 c-2 -103 40 -211 129 -332 l51 -68 -69 71 c-124 127 -202 265 -248 438
-19 69 -23 79 -19 41z"/>
<path d="M38882 30820 c0 -14 2 -19 5 -12 2 6 2 18 0 25 -3 6 -5 1 -5 -13z"/>
<path d="M37319 30559 c-14 -49 -18 -175 -7 -229 6 -33 6 -32 -13 10 -11 25
-24 61 -29 80 -4 20 -8 26 -9 14 -2 -31 26 -117 53 -165 l24 -42 -28 -51 c-59
-106 -106 -348 -64 -332 9 3 18 6 20 6 2 0 4 44 3 98 0 62 5 112 14 138 19 53
56 124 64 124 3 0 27 -13 52 -29 44 -28 128 -61 154 -61 7 0 -14 11 -46 24
-54 23 -97 49 -52 32 35 -14 169 -18 210 -7 37 10 36 10 -20 5 -33 -3 -92 0
-130 7 l-70 13 80 7 c69 5 145 29 145 45 0 2 -15 -3 -32 -12 -21 -11 -62 -18
-113 -20 -81 -3 -80 -2 10 16 28 6 61 20 75 30 25 20 25 20 -20 1 -55 -23
-143 -36 -164 -24 -13 7 -8 12 21 22 79 28 189 119 169 139 -3 3 -6 0 -6 -6 0
-30 -178 -138 -196 -119 -10 9 15 46 84 126 66 75 66 75 19 37 -27 -22 -66
-64 -88 -94 -26 -37 -39 -49 -39 -36 0 29 52 132 95 189 37 49 37 49 5 20 -38
-36 -78 -101 -103 -170 l-18 -50 5 59 c3 33 15 80 29 107 13 26 20 46 15 43
-16 -10 -52 -89 -59 -129 l-6 -40 -2 51 c0 28 6 70 14 93 8 23 11 39 6 37 -15
-10 -35 -100 -34 -156 0 -45 -1 -50 -9 -30 -13 34 -12 186 1 229 6 19 9 37 6
39 -2 2 -9 -16 -16 -39z"/>
<path d="M16858 30193 c7 -3 16 -2 19 1 4 3 -2 6 -13 5 -11 0 -14 -3 -6 -6z"/>
<path d="M9572 29253 c-70 -479 -80 -1024 -26 -1443 27 -212 92 -495 143 -631
l20 -51 -21 18 c-33 31 -160 203 -220 300 -276 447 -472 1150 -505 1814 -9
177 -20 125 -29 -135 -23 -655 173 -1317 562 -1902 56 -84 99 -153 96 -153 -7
0 -83 63 -180 149 -89 80 -245 254 -330 369 -177 241 -324 541 -396 813 -24
91 -61 281 -69 359 -2 19 -5 -15 -5 -77 -5 -337 122 -751 330 -1070 125 -192
322 -406 502 -543 53 -40 96 -75 96 -77 0 -14 -237 148 -360 246 -126 101
-332 302 -433 424 -162 195 -304 432 -391 654 -42 108 -100 326 -115 433 -6
41 -13 86 -15 100 -2 14 -4 -4 -5 -39 -3 -139 51 -404 121 -596 49 -133 146
-328 226 -450 196 -302 503 -588 850 -793 75 -45 144 -86 152 -91 40 -27 -162
61 -286 125 -599 304 -1141 816 -1506 1419 -67 111 -174 314 -219 417 -18 42
-35 76 -36 74 -5 -4 52 -165 92 -261 274 -664 780 -1252 1393 -1622 114 -69
333 -181 445 -228 37 -15 66 -30 64 -32 -6 -6 -327 99 -494 161 -485 181 -851
384 -1103 613 l-75 68 64 -73 c252 -287 669 -562 1097 -723 185 -69 487 -147
674 -173 l45 -7 19 -102 c89 -494 334 -1059 666 -1533 l88 -125 -77 -77 c-107
-108 -217 -242 -302 -371 l-73 -110 -131 127 c-168 164 -333 287 -482 360
l-55 27 6 45 c40 322 -9 638 -142 908 -52 106 -75 134 -33 40 70 -157 119
-420 126 -683 l5 -160 -14 86 c-70 417 -284 807 -591 1073 -150 129 -166 128
-36 -2 307 -305 496 -663 566 -1066 21 -125 18 -136 -10 -30 -100 376 -316
658 -625 814 -105 53 -140 60 -50 10 117 -65 188 -120 287 -223 97 -100 175
-210 238 -337 37 -74 105 -245 105 -265 0 -5 -22 33 -48 85 -131 265 -337 454
-605 555 -94 35 -105 31 -22 -8 184 -89 346 -224 475 -398 53 -71 137 -220
160 -285 9 -27 7 -26 -22 11 -198 246 -480 451 -762 553 l-78 29 -52 124 c-89
209 -168 356 -294 546 -83 127 -109 155 -56 61 123 -217 331 -685 312 -704 -3
-2 -25 0 -49 5 -62 14 -59 7 7 -15 l58 -19 22 -75 c39 -126 67 -240 62 -246
-3 -3 -56 5 -117 16 -130 25 -179 22 -73 -4 41 -10 104 -27 140 -39 l67 -22
17 -85 c24 -121 48 -293 42 -299 -7 -7 -192 40 -208 53 -7 6 -33 56 -58 112
-54 122 -148 282 -236 401 -73 99 -311 340 -387 393 -41 28 -34 19 39 -50 174
-165 318 -359 425 -570 50 -96 111 -234 111 -247 0 -2 -10 2 -22 8 -17 9 -15
4 8 -17 23 -22 39 -53 58 -118 29 -92 76 -278 76 -296 0 -5 -12 -10 -27 -11
l-28 -1 31 -9 c30 -9 32 -12 43 -84 16 -111 17 -107 -30 -103 l-41 3 -42 120
c-93 265 -223 486 -417 706 -80 90 -223 218 -314 281 -57 39 -53 34 61 -83 66
-68 146 -155 176 -194 224 -282 396 -651 478 -1022 11 -51 20 -97 20 -102 0
-5 -28 -17 -62 -25 l-63 -16 66 6 66 5 11 -98 c18 -150 25 -321 12 -303 -6 8
-52 85 -103 170 -382 645 -864 1097 -1326 1244 -170 54 -186 52 -70 -7 276
-142 518 -322 754 -561 155 -156 264 -290 379 -463 87 -132 220 -376 214 -392
-4 -13 -217 51 -388 116 -463 178 -983 471 -1505 851 -155 112 -127 77 85
-105 412 -356 877 -655 1290 -831 119 -50 307 -115 383 -132 32 -8 60 -17 62
-21 8 -12 -159 -24 -320 -22 -392 3 -829 107 -1305 310 -146 63 -434 209 -563
287 -126 75 -123 66 11 -37 446 -342 929 -541 1527 -629 98 -14 218 -22 400
-27 l260 -6 -87 -28 c-114 -36 -274 -72 -423 -93 -148 -22 -496 -24 -635 -5
-265 36 -516 110 -737 216 -73 35 -133 62 -133 60 0 -11 211 -136 313 -185
440 -213 935 -261 1432 -140 66 16 152 40 190 54 111 38 112 38 73 16 -65 -36
-281 -118 -419 -159 -655 -197 -1263 -164 -1781 95 -60 30 -108 52 -108 50 0
-2 43 -30 97 -62 244 -145 545 -243 851 -275 143 -15 450 -7 592 16 249 39
535 133 783 255 75 37 137 67 137 65 0 -1 -30 -23 -67 -47 -449 -301 -1027
-504 -1628 -574 -300 -35 -744 -22 -1054 31 -47 8 -86 13 -88 11 -7 -6 244
-64 367 -85 204 -34 364 -44 648 -38 284 5 428 21 662 73 382 85 741 233 1085
447 156 97 140 78 -80 -92 -520 -403 -971 -651 -1337 -736 l-63 -15 55 6 c82
8 270 51 395 91 459 147 846 387 1230 765 l151 148 93 -41 c335 -144 790 -253
1194 -284 99 -8 89 5 107 -135 24 -176 97 -421 196 -656 3 -7 -36 -17 -113
-29 -205 -30 -394 -85 -573 -167 l-75 -35 -71 65 c-212 191 -466 325 -727 381
-122 26 -166 26 -67 0 157 -42 366 -146 575 -286 166 -111 171 -118 35 -49
-145 72 -301 125 -462 158 -98 20 -143 23 -338 23 -176 0 -245 -4 -315 -18
-96 -19 -247 -58 -242 -63 1 -1 52 6 112 17 144 26 425 36 565 20 225 -26 439
-87 638 -181 67 -32 122 -61 122 -64 0 -4 -17 1 -37 10 -66 29 -205 72 -293
91 -128 27 -393 25 -513 -5 -113 -28 -220 -71 -308 -123 -94 -56 -96 -65 -4
-17 89 47 184 80 297 104 113 25 358 25 483 1 94 -18 308 -77 302 -83 -2 -2
-50 6 -108 17 -87 17 -129 20 -254 16 -166 -6 -262 -25 -396 -82 -63 -26 -249
-137 -249 -148 0 -1 46 20 103 48 112 55 197 85 322 112 114 25 366 24 500 -1
116 -22 108 -30 -37 -39 -325 -21 -670 -156 -930 -366 -78 -63 -102 -89 -50
-55 251 165 550 296 786 345 111 23 348 38 331 21 -5 -5 -28 -15 -50 -22 -80
-24 -283 -130 -400 -208 -101 -67 -123 -78 -140 -69 -18 9 -19 9 -6 -7 13 -15
11 -19 -10 -34 -13 -9 -71 -57 -129 -107 l-105 -90 -140 70 c-244 122 -525
223 -775 278 -197 43 -211 39 -45 -12 201 -62 429 -153 610 -243 117 -59 268
-141 284 -155 3 -2 -9 -18 -25 -36 -23 -25 -24 -28 -4 -11 14 12 31 24 38 28
8 5 61 -25 140 -78 149 -100 181 -126 166 -132 -6 -3 -20 -12 -30 -20 -19 -15
-18 -15 1 -9 63 20 67 19 170 -66 133 -111 326 -299 318 -312 -3 -6 -1 -7 5
-3 11 6 181 -179 212 -231 8 -13 29 -40 46 -58 37 -39 179 -248 218 -320 15
-27 19 -39 9 -25 -156 212 -378 439 -578 592 -308 233 -668 387 -1045 445
-129 19 -457 22 -545 5 -43 -9 -38 -10 40 -5 119 7 330 -12 483 -43 348 -70
730 -252 1042 -498 115 -90 276 -240 384 -358 122 -132 129 -152 15 -43 -317
305 -702 500 -1135 576 -161 28 -475 33 -619 9 l-90 -15 205 -6 c215 -7 356
-26 541 -74 315 -81 640 -242 912 -452 86 -67 250 -213 244 -219 -2 -2 -48 10
-103 25 -329 95 -711 151 -1029 151 -361 0 -637 -55 -880 -176 -172 -86 -182
-100 -35 -53 153 49 366 93 560 115 112 12 201 15 395 11 274 -5 425 -23 640
-77 135 -33 345 -100 345 -110 0 -10 -167 -101 -285 -156 -436 -203 -963 -356
-1635 -475 l-225 -39 146 5 c247 8 554 46 834 101 399 78 737 191 1043 349
l163 85 -33 -43 c-63 -81 -264 -280 -363 -359 -385 -309 -914 -561 -1530 -730
-136 -37 -138 -38 -70 -32 680 54 1405 408 1953 950 67 66 122 119 122 117 0
-28 -149 -270 -245 -398 -319 -423 -720 -715 -1205 -876 -102 -34 -94 -36 36
-9 406 84 828 329 1101 640 139 158 228 287 340 494 62 115 60 98 -4 -53 -243
-571 -624 -1025 -1083 -1294 -103 -60 -214 -111 -355 -164 -123 -46 -47 -34
107 17 677 225 1192 772 1457 1547 50 145 52 122 7 -63 -67 -268 -148 -484
-283 -754 -292 -584 -680 -1030 -1263 -1453 -56 -41 120 59 213 121 727 480
1258 1252 1448 2104 18 81 34 146 36 144 6 -5 -38 -365 -63 -511 -92 -554
-233 -985 -407 -1243 -75 -112 -48 -87 42 38 270 377 438 834 501 1365 6 50
13 195 16 324 l5 235 100 39 c141 55 401 188 556 285 290 181 515 363 789 638
158 158 202 197 253 221 l63 30 88 -28 c121 -39 311 -77 458 -91 87 -9 122
-16 122 -25 0 -7 -58 -73 -129 -147 -136 -142 -214 -238 -304 -376 -56 -87
-141 -251 -171 -330 l-17 -45 -138 -2 c-210 -3 -381 -36 -579 -113 -86 -33
-242 -120 -293 -163 -31 -26 -31 -27 -4 -9 140 91 424 178 705 216 63 9 128
18 144 21 57 10 19 -5 -78 -30 -388 -101 -739 -339 -984 -668 -50 -67 -122
-181 -122 -193 0 -3 27 31 60 75 91 123 234 271 363 374 166 134 413 267 612
330 163 52 194 53 75 4 -198 -81 -341 -176 -470 -313 -118 -124 -203 -264
-255 -418 -28 -84 -33 -128 -6 -51 57 159 143 290 280 426 121 120 252 212
411 288 130 63 150 65 46 6 -255 -145 -428 -354 -517 -627 -32 -98 -40 -167
-9 -80 100 280 322 536 605 697 l50 28 -80 -84 c-235 -247 -394 -539 -455
-839 -32 -158 -24 -183 16 -50 74 241 167 446 283 620 52 78 243 290 262 290
4 0 -16 -51 -46 -112 -108 -229 -175 -496 -205 -828 -16 -181 -10 -197 16 -45
33 188 94 434 150 597 47 138 156 378 172 378 11 0 46 -115 75 -247 18 -83 21
-130 21 -303 0 -216 -15 -321 -63 -463 -11 -31 -18 -57 -15 -57 3 0 23 37 44
83 63 131 81 217 87 407 6 189 -10 329 -57 518 -16 63 -28 117 -26 119 3 3 28
-24 92 -102 180 -218 291 -518 295 -795 l1 -85 10 55 c15 83 3 291 -22 388
-50 193 -138 354 -274 502 l-51 54 59 -49 c126 -106 289 -322 360 -477 65
-139 87 -225 115 -438 l9 -65 1 75 c3 219 -72 461 -206 663 -46 69 -230 264
-303 322 -44 34 -22 23 55 -28 159 -107 360 -303 477 -468 l68 -94 0 -240 c0
-291 -15 -782 -35 -1155 -184 -3354 -1067 -6482 -2623 -9285 -760 -1368 -1701
-2670 -2690 -3720 -158 -168 -574 -583 -702 -699 -212 -193 -233 -226 -238
-371 -5 -115 18 -182 88 -258 115 -126 285 -159 439 -85 92 43 734 703 1183
1215 1398 1595 2533 3417 3353 5388 917 2202 1460 4621 1610 7165 29 498 38
842 38 1435 0 792 -33 1547 -93 2159 -14 141 -14 146 11 146 12 0 78 11 147
25 212 43 470 138 660 243 l72 41 21 -42 c12 -23 49 -71 83 -107 43 -45 77
-94 110 -160 75 -150 163 -291 265 -428 106 -141 302 -348 409 -431 l70 -55
-15 -34 c-26 -64 -82 -297 -98 -417 -23 -164 -16 -488 13 -623 23 -105 63
-244 69 -239 2 2 -3 33 -11 68 -45 191 -41 490 9 834 38 253 40 254 40 23 1
-241 16 -362 70 -573 80 -312 239 -622 447 -870 81 -97 149 -163 87 -85 -158
199 -302 461 -394 715 -102 282 -158 652 -139 923 l7 117 14 -155 c47 -544
273 -942 686 -1205 51 -33 27 -8 -48 50 -317 242 -531 664 -585 1149 -11 102
-8 144 5 59 33 -230 144 -487 292 -670 74 -93 132 -150 228 -223 82 -62 205
-138 205 -127 0 2 -33 29 -73 60 -91 70 -258 241 -318 327 -130 185 -227 407
-272 623 -8 37 -13 67 -11 67 2 0 22 -37 46 -82 160 -308 417 -596 708 -792
76 -52 352 -196 375 -196 5 0 -34 27 -87 59 -366 226 -702 548 -868 832 -40
67 -100 191 -100 205 0 3 37 -29 83 -71 245 -228 576 -428 957 -578 235 -93
239 -90 25 20 -324 167 -544 305 -745 465 -114 91 -280 245 -280 259 0 12 200
11 318 -2 319 -34 678 -163 905 -325 26 -19 50 -34 54 -34 17 0 -107 115 -172
159 -246 170 -578 264 -1020 290 l-130 7 79 37 c370 175 797 209 1166 91 41
-13 76 -22 77 -20 2 2 -35 20 -83 41 -313 134 -702 139 -1030 12 -50 -19 -111
-45 -135 -57 -42 -20 -43 -20 -19 -1 48 39 306 161 425 200 310 103 608 118
872 46 48 -14 89 -23 90 -21 7 6 -78 36 -170 60 -409 106 -849 22 -1241 -238
-115 -76 -92 -46 44 58 156 118 300 205 466 279 311 140 601 207 974 226 l145
7 -110 8 c-131 10 -342 2 -479 -19 -417 -63 -798 -236 -1116 -504 -105 -89
-41 -14 132 154 166 162 316 288 444 371 85 56 237 133 263 135 9 0 11 3 5 5
-18 7 -150 -44 -265 -102 -279 -142 -518 -350 -716 -621 l-75 -103 -78 61
c-97 74 -275 257 -354 363 -87 115 -160 236 -228 375 -60 124 -80 192 -59 205
19 12 13 54 -24 167 -19 60 -35 114 -34 121 0 7 41 45 90 83 154 119 372 357
489 533 14 21 18 22 80 11 145 -23 179 -34 276 -84 567 -293 1064 -435 1697
-483 l97 -7 46 -134 c120 -354 273 -646 487 -931 129 -172 361 -406 517 -521
121 -90 208 -146 140 -92 -159 129 -278 253 -417 435 -105 139 -250 363 -349
540 -87 155 -268 517 -262 523 2 2 35 -47 73 -108 385 -615 964 -1098 1638
-1368 224 -90 652 -207 675 -185 3 3 -2 6 -10 6 -29 0 -297 90 -436 147 -704
284 -1321 779 -1729 1388 -64 95 -123 197 -106 180 6 -5 48 -57 93 -115 180
-229 460 -478 706 -628 364 -223 825 -342 1222 -316 l127 8 -145 8 c-331 17
-597 84 -885 222 -324 155 -655 408 -903 688 -123 139 -140 165 -51 77 380
-375 845 -594 1354 -640 140 -12 329 -6 455 16 l75 12 -150 2 c-171 1 -282 12
-440 42 -379 73 -781 262 -1092 513 -85 68 -206 180 -188 174 6 -2 71 -34 145
-70 600 -293 1298 -405 1916 -309 140 22 354 74 272 66 -775 -74 -1531 31
-2043 285 -140 69 -241 128 -233 135 2 2 57 -5 122 -15 527 -86 1248 -21 1927
174 155 45 237 73 174 60 -16 -3 -136 -23 -265 -45 -742 -124 -1394 -142
-1892 -53 -49 9 -88 19 -87 23 0 9 88 77 204 158 451 316 1012 506 1590 539
l130 8 -55 14 c-91 23 -404 27 -540 7 -411 -60 -872 -256 -1330 -566 -69 -46
-129 -86 -134 -88 -18 -8 108 216 187 332 271 397 652 715 1067 892 36 16 115
45 175 66 138 48 100 50 -77 5 -234 -60 -450 -158 -656 -298 -111 -76 -140
-86 -260 -87 l-53 -1 62 75 c270 326 610 570 980 700 149 53 135 58 -28 11
-411 -119 -799 -380 -1077 -724 l-50 -63 -66 7 c-36 3 -67 8 -69 10 -2 2 19
44 46 94 l49 91 65 23 c67 24 209 93 209 101 0 3 -17 -3 -37 -14 -21 -10 -78
-33 -127 -50 -66 -23 -87 -27 -83 -16 13 31 134 216 215 325 250 338 552 634
891 874 52 36 90 66 86 66 -4 0 -60 -31 -124 -69 -378 -225 -722 -537 -996
-905 -81 -109 -84 -112 -146 -134 -73 -25 -184 -52 -216 -52 l-22 0 28 76 28
76 79 31 c104 40 209 95 308 162 138 93 136 97 -14 21 -157 -80 -328 -151
-338 -142 -9 9 85 197 142 285 27 42 41 69 32 62 -23 -20 -165 -232 -206 -310
-22 -41 -43 -66 -59 -73 -53 -20 -239 -57 -341 -68 -108 -11 -270 -4 -270 11
0 5 6 9 14 9 34 0 212 68 333 126 145 71 357 208 503 325 134 108 152 134 39
56 -253 -172 -556 -332 -769 -405 -63 -22 -130 -43 -149 -47 l-34 -7 43 78
c72 133 149 234 270 354 126 126 229 204 363 275 48 26 87 48 87 50 0 9 -111
-29 -178 -60 -212 -100 -444 -330 -608 -604 -59 -99 -64 -89 -39 82 41 282
173 547 369 741 66 65 68 68 24 38 -249 -171 -418 -478 -448 -816 -7 -73 -8
-56 -5 84 3 128 9 199 24 265 55 248 150 435 304 602 52 56 61 69 32 46 -138
-107 -281 -316 -345 -503 -48 -142 -63 -245 -64 -432 0 -97 -2 -175 -3 -174
-1 1 -9 45 -17 96 -52 329 -14 678 110 1002 19 51 64 148 98 215 35 68 60 120
55 118 -4 -3 -34 -47 -65 -98 -119 -191 -201 -398 -245 -613 -31 -153 -38
-436 -15 -593 10 -62 15 -115 13 -117 -2 -3 -20 51 -40 118 -71 241 -114 522
-104 668 5 69 5 71 -5 30 -16 -67 -16 -390 1 -480 23 -127 68 -274 124 -404
l54 -124 -77 -31 c-245 -97 -549 -140 -790 -112 -84 9 -97 13 -116 37 -17 21
-38 30 -105 43 l-84 17 1 40 c0 21 5 110 11 197 13 188 3 393 -28 578 l-22
130 39 34 c59 53 109 81 219 120 229 83 527 222 721 336 282 166 570 386 762
582 l74 74 109 -48 c294 -132 592 -219 904 -266 171 -25 623 -26 780 0 97 15
306 63 230 52 -16 -2 -90 -10 -164 -16 -331 -31 -852 46 -1401 208 -85 25
-170 49 -188 55 -66 19 -24 18 74 -2 186 -37 329 -51 571 -57 265 -6 420 4
649 42 500 84 993 285 1399 571 143 100 159 119 40 48 -375 -224 -811 -394
-1228 -478 -262 -54 -394 -68 -682 -73 -313 -6 -564 14 -765 60 -48 11 -21 13
210 9 202 -3 298 0 404 12 421 49 796 194 1121 433 112 82 355 326 414 413 25
38 32 53 16 35 -82 -91 -217 -224 -281 -276 -272 -222 -641 -393 -1024 -474
-205 -44 -334 -57 -600 -61 -146 -2 -260 -2 -255 0 6 3 73 10 150 16 319 25
557 87 820 215 341 165 643 431 831 730 11 17 -41 -32 -115 -108 -223 -229
-405 -364 -666 -492 -82 -40 -194 -90 -249 -110 -213 -78 -481 -138 -677 -150
l-94 -6 90 34 c302 114 617 287 869 477 305 230 532 469 729 767 73 110 182
298 165 283 -4 -3 -39 -49 -80 -102 -256 -336 -644 -715 -968 -945 -237 -169
-534 -316 -769 -382 -85 -23 -87 -27 54 85 353 279 740 769 1042 1319 92 167
199 385 189 385 -1 0 -54 -81 -117 -181 -291 -460 -595 -846 -924 -1174 -154
-154 -398 -365 -421 -365 -6 0 -9 15 -7 33 40 503 162 912 394 1320 103 181
257 395 362 505 23 23 37 42 33 42 -5 0 -39 -23 -76 -50 -88 -65 -249 -234
-324 -339 -250 -350 -426 -841 -510 -1426 l-22 -150 -33 85 c-60 157 -141 506
-141 610 0 31 11 47 88 125 143 147 173 195 47 77 -61 -57 -117 -108 -126
-113 -15 -8 -18 3 -24 90 -24 333 77 828 231 1134 14 26 22 47 19 47 -9 0 -80
-118 -131 -220 -97 -194 -168 -421 -194 -621 -15 -106 -65 -219 -137 -308 -8
-11 -14 13 -29 115 -24 156 -24 501 0 654 33 212 101 438 183 605 20 42 26 60
14 45 -27 -34 -114 -209 -147 -295 -98 -260 -144 -519 -144 -817 l0 -156 -57
-86 c-31 -47 -60 -86 -63 -86 -4 0 -18 42 -33 93 l-27 94 44 94 c42 88 111
297 102 306 -2 3 -7 -6 -11 -19 -17 -59 -149 -318 -156 -306 -13 23 -77 357
-96 498 -32 239 -24 814 14 1040 3 19 3 33 0 30 -13 -12 -67 -314 -83 -460
-12 -120 -15 -221 -12 -448 l5 -294 -34 -101 c-44 -132 -132 -355 -142 -362
-10 -5 -74 153 -107 263 -12 42 -23 70 -23 62 -1 -22 46 -214 76 -308 l27 -84
-38 -76 c-69 -140 -230 -391 -243 -379 -14 15 -33 203 -33 329 0 153 21 309
58 439 23 76 90 248 105 267 5 7 7 15 4 18 -10 10 -108 -152 -138 -230 -80
-208 -108 -527 -69 -804 4 -31 6 -58 5 -60 -2 -2 -21 23 -43 55 -86 126 -162
309 -198 474 -21 100 -29 315 -15 408 6 40 10 76 7 78 -8 8 -37 -143 -45 -235
-20 -236 33 -461 160 -674 40 -68 43 -77 18 -48 -17 19 -58 76 -91 125 -168
252 -245 503 -236 770 3 85 2 120 -4 100 -16 -54 -21 -287 -9 -375 35 -237
140 -457 317 -665 l69 -80 -71 62 c-255 224 -469 583 -569 954 l-23 86 102 32
c425 136 819 379 1076 664 l55 61 -90 -78 c-194 -169 -476 -327 -836 -469
-103 -41 -315 -117 -325 -117 -2 0 -4 7 -4 15 0 8 31 31 73 51 421 212 818
564 1099 974 77 111 183 297 234 408 45 97 124 299 124 315 -1 7 -29 -46 -64
-118 -293 -607 -760 -1109 -1343 -1443 -107 -61 -320 -162 -341 -162 -4 0 34
24 84 54 491 288 816 664 979 1135 46 136 83 319 89 451 l6 105 -14 -95 c-41
-281 -141 -539 -305 -786 -176 -266 -402 -490 -686 -683 -157 -107 -164 -106
-26 5 411 328 673 831 687 1319 l4 140 -16 -95 c-74 -457 -269 -842 -597
-1177 -108 -110 -237 -224 -237 -208 0 3 17 29 38 58 191 258 367 642 456 993
63 249 90 573 71 839 l-9 110 -13 -160 c-59 -724 -264 -1335 -578 -1723 -27
-33 -51 -59 -53 -57 -2 2 10 45 26 97 58 181 101 410 121 653 14 155 14 533 1
706 -10 121 -49 450 -54 456 -2 2 -3 -160 -3 -360 1 -478 -25 -771 -98 -1132
-33 -163 -98 -401 -114 -418 -10 -10 -40 39 -114 189 -148 295 -236 605 -268
948 -12 136 -7 457 10 551 5 28 7 52 6 53 -6 6 -62 -181 -76 -253 -21 -105
-18 -461 4 -590 52 -295 184 -683 318 -934 22 -40 38 -75 36 -77 -9 -9 -228
168 -319 259 -328 326 -525 694 -614 1142 l-14 70 5 -110 c3 -60 16 -160 29
-221 99 -459 371 -861 766 -1133 40 -28 70 -51 65 -51 -4 0 -55 28 -112 62
-147 88 -332 230 -463 354 -349 335 -537 676 -624 1134 -3 14 -3 -9 0 -50 2
-41 16 -131 31 -200 22 -106 26 -151 27 -300 1 -96 -3 -210 -7 -254 l-9 -78
-45 43 c-72 71 -203 230 -226 276 -11 23 -24 40 -28 37 -9 -5 -83 97 -156 213
l-45 72 65 118 c81 149 198 411 197 442 0 3 -29 -48 -63 -114 -70 -135 -177
-317 -211 -360 l-23 -28 -57 109 c-64 122 -64 109 -1 -43 l43 -101 -85 -114
c-92 -122 -186 -235 -282 -338 l-60 -65 -28 34 c-59 72 -60 69 -7 -14 9 -14
14 -31 11 -39 -6 -16 -246 -236 -257 -236 -5 0 -13 12 -19 28 -10 25 -11 25
-6 -10 6 -37 4 -38 -77 -103 -176 -140 -399 -281 -623 -392 -124 -63 -361
-163 -382 -163 -4 0 44 28 107 62 264 140 457 278 647 461 211 204 350 395
472 648 83 171 133 315 166 476 24 114 49 312 41 320 -2 2 -9 -31 -15 -74 -38
-257 -156 -563 -314 -814 -191 -303 -500 -608 -842 -832 -85 -55 -276 -163
-221 -125 280 197 451 360 613 586 220 308 365 711 378 1050 l5 117 -19 -97
c-79 -405 -250 -774 -508 -1093 -109 -135 -327 -346 -459 -444 -59 -44 -110
-79 -112 -77 -2 2 28 66 66 143 166 330 285 692 349 1058 25 144 25 535 0 655
-19 94 -77 283 -84 277 -2 -3 2 -45 9 -93 19 -134 16 -548 -5 -704 -47 -339
-130 -630 -262 -914 -46 -102 -154 -296 -164 -296 -10 0 -73 205 -110 355
-103 426 -145 890 -140 1523 2 210 4 382 3 382 0 0 -11 -66 -22 -147z m2319
-1145 c48 -85 136 -221 217 -338 24 -35 33 -62 42 -123 11 -88 13 -206 4 -284
l-7 -52 -42 34 c-39 33 -43 40 -59 121 -20 105 -48 188 -93 278 -38 75 -55 86
-23 14 31 -72 68 -221 81 -331 19 -168 -3 -364 -62 -544 -17 -51 -31 -93 -32
-93 -1 0 -2 91 -2 203 0 215 -8 279 -55 462 -34 130 -80 244 -155 379 l-54 99
57 81 c32 45 73 105 91 134 18 28 35 52 36 52 2 0 27 -42 56 -92z m594 -266
c192 -399 510 -713 969 -958 56 -30 98 -54 94 -54 -4 0 -54 18 -110 41 -154
61 -407 194 -553 291 -161 107 -335 244 -335 264 0 8 -4 13 -10 9 -5 -3 -40
23 -77 59 l-69 65 9 88 c7 80 4 255 -8 372 l-5 46 20 -54 c11 -30 45 -106 75
-169z m-800 -31 c62 -140 95 -244 83 -259 -8 -9 -7 -11 4 -7 12 5 21 -21 46
-122 44 -179 55 -284 50 -456 -5 -151 -19 -206 -32 -125 -13 80 -86 282 -151
415 l-65 132 50 47 c28 26 50 51 50 57 0 5 -22 -11 -50 -37 -27 -25 -54 -46
-59 -46 -6 0 -16 10 -22 23 -6 12 -43 70 -81 129 l-70 108 31 37 c17 21 62 75
98 120 37 46 70 80 74 75 4 -4 24 -45 44 -91z m597 -251 l57 -66 -15 -59 c-15
-61 -53 -184 -61 -197 -2 -4 -20 2 -39 15 l-35 22 6 85 c5 79 -4 219 -21 300
l-7 35 29 -35 c15 -19 54 -64 86 -100z m-783 -57 c34 -62 61 -118 61 -126 0
-23 -277 -195 -291 -180 -15 16 -119 176 -119 183 0 5 59 66 132 138 116 114
134 128 144 113 7 -9 39 -67 73 -128z m969 -246 c-61 -118 -57 -115 -112 -87
-30 16 -44 30 -41 39 3 7 17 59 31 115 15 55 28 108 31 115 3 10 24 -5 66 -47
l62 -62 -37 -73z m-332 -8 c-10 -73 -54 -215 -103 -332 -25 -59 -47 -106 -49
-104 -2 2 7 37 21 77 41 121 57 217 59 352 l1 127 38 -37 c36 -35 38 -40 33
-83z m-923 -60 l17 -26 -101 -47 c-56 -26 -120 -55 -142 -63 l-40 -16 -53 55
c-30 31 -54 53 -54 50 0 -4 18 -32 40 -61 22 -30 38 -56 37 -57 -1 -1 -38 -16
-81 -34 l-80 -31 -43 44 -44 43 63 39 c79 48 233 157 317 224 l64 51 41 -72
c23 -40 49 -85 59 -99z m409 66 c53 -118 105 -264 133 -368 27 -99 30 -127 16
-127 -6 0 -58 32 -116 71 -103 69 -256 204 -315 279 l-30 37 58 41 c31 22 91
67 132 100 41 33 78 57 81 54 3 -4 21 -43 41 -87z m1193 -161 c183 -124 405
-241 597 -314 49 -18 87 -35 85 -36 -11 -11 -417 110 -608 181 -129 48 -404
169 -431 189 -16 12 -15 18 16 92 19 43 36 87 39 96 5 15 24 3 109 -65 57 -45
144 -110 193 -143z m-590 131 l29 -24 -33 -78 c-46 -107 -104 -213 -169 -310
-30 -46 -56 -83 -58 -83 -1 0 22 48 52 108 57 113 105 246 126 350 6 34 14 62
18 62 3 -1 18 -12 35 -25z m127 -98 l27 -20 -46 -66 c-55 -79 -173 -225 -243
-301 l-51 -55 62 94 c65 99 140 239 177 329 23 56 22 56 74 19z m-979 -130
c110 -111 225 -207 340 -282 31 -21 57 -40 57 -42 0 -2 -21 -1 -47 2 -227 30
-422 100 -586 209 -101 68 -125 87 -112 92 6 2 60 33 120 69 61 35 112 65 113
65 2 0 54 -51 115 -113z m1125 34 c229 -142 516 -257 806 -321 133 -29 322
-60 371 -60 27 0 27 0 20 -52 -23 -184 -113 -486 -204 -687 -83 -183 -222
-419 -334 -566 -17 -22 -32 -42 -33 -44 -2 -1 -49 15 -106 37 -267 104 -499
152 -801 168 l-137 7 6 136 c3 75 7 142 10 149 6 22 -15 314 -30 397 -17 97
-48 219 -76 300 l-20 59 62 55 c137 119 267 272 345 406 21 36 39 65 40 65 1
0 37 -22 81 -49z m-1799 -32 c18 -22 30 -44 25 -49 -5 -4 -75 -29 -156 -56
-133 -44 -149 -47 -172 -34 -14 7 -26 16 -26 20 0 3 32 22 71 40 39 19 103 54
142 77 40 23 74 42 77 42 3 1 20 -18 39 -40z m341 -95 c172 -147 334 -220 585
-264 116 -21 78 -25 -76 -9 -260 26 -506 110 -668 227 l-44 32 64 29 c35 16
69 30 75 30 5 1 34 -20 64 -45z m-201 -48 c44 -40 158 -114 234 -150 162 -78
321 -114 537 -124 170 -7 145 -17 -70 -28 -300 -15 -635 52 -919 183 l-84 39
134 51 c74 28 136 51 138 52 3 0 16 -10 30 -23z m-460 0 c7 -8 8 -17 3 -20
-15 -9 -344 -98 -348 -94 -2 3 51 26 119 52 67 26 133 53 147 61 32 18 64 19
79 1z m3751 -29 c0 -11 -159 -68 -187 -67 -9 1 167 78 180 79 4 1 7 -5 7 -12z
m-3542 -107 c169 -95 388 -171 602 -207 111 -18 399 -21 505 -5 38 6 71 10 72
8 5 -5 -159 -46 -282 -71 -180 -35 -314 -48 -459 -43 -128 4 -130 4 -76 -10
37 -10 119 -15 255 -16 172 -1 216 2 312 22 108 22 315 87 376 118 16 9 33 12
38 7 14 -15 67 -185 89 -288 30 -141 38 -421 16 -564 -15 -97 -18 -107 -50
-136 -32 -29 -43 -32 -170 -49 -419 -54 -790 -205 -1139 -463 -73 -55 -90 -63
-102 -53 -28 23 -151 183 -227 295 -250 367 -423 770 -503 1170 -13 66 -25
138 -27 160 l-3 39 135 18 c149 19 330 55 460 92 47 13 86 24 88 25 1 0 41
-21 90 -49z m3556 -22 c85 -435 252 -751 544 -1029 78 -75 87 -86 47 -59 -248
167 -512 411 -592 548 -37 63 -40 51 -3 -15 148 -264 394 -492 684 -635 l65
-32 -26 -50 c-105 -207 -333 -448 -571 -601 -65 -41 -77 -46 -111 -40 -33 5
-52 -1 -138 -44 l-100 -50 -99 100 c-163 165 -344 302 -546 415 -49 27 -88 52
-88 55 0 4 36 64 80 135 234 372 409 806 471 1169 7 39 15 73 19 77 3 5 46 15
96 23 49 9 123 24 164 34 98 25 99 25 104 -1z m1331 -119 c9 -57 28 -162 44
-234 l29 -130 -21 -30 c-11 -16 -45 -63 -76 -104 -63 -84 -57 -86 -116 31
l-34 66 25 63 c29 72 108 342 119 407 4 24 9 42 11 40 2 -2 11 -51 19 -109z
m560 -692 c-16 -15 -34 -26 -40 -24 -5 2 -20 49 -33 104 l-23 99 45 74 c25 40
51 89 58 109 12 32 14 16 18 -149 l5 -185 -30 -28z m-191 228 l15 -100 -49
-49 -48 -49 -17 39 c-30 73 -29 84 19 169 26 44 49 89 53 100 8 24 7 27 27
-110z m-291 -182 c-36 -35 -69 -63 -73 -63 -5 0 -20 20 -35 45 l-26 46 39 47
c21 26 54 69 72 95 l34 49 28 -79 27 -78 -66 -62z m-229 -5 c-34 -38 -200
-172 -245 -198 l-44 -24 17 24 c71 100 126 189 171 277 l51 101 34 -79 c34
-78 34 -80 16 -101z m565 -43 c11 -43 19 -80 18 -81 -1 -1 -21 -11 -43 -22
l-42 -21 -22 60 -23 60 43 44 c24 25 45 44 46 42 1 -1 11 -38 23 -82z m-236 7
l17 -42 -62 -40 c-33 -22 -64 -40 -68 -40 -4 0 -12 11 -18 25 -11 24 -8 29 51
84 34 33 62 58 63 58 0 -1 8 -21 17 -45z m-263 -33 c21 -39 21 -41 3 -55 -26
-20 -253 -131 -283 -139 -24 -6 -24 -5 5 17 59 46 201 166 224 192 14 14 26
26 28 26 1 0 12 -18 23 -41z m701 -116 c23 -138 48 -230 103 -387 24 -69 40
-124 36 -121 -14 9 -136 296 -182 430 l-47 140 32 27 c17 14 33 25 35 23 2 -2
12 -52 23 -112z m-387 16 c10 -23 13 -45 9 -49 -4 -4 -29 -15 -55 -25 l-48
-18 -20 24 c-10 13 -19 29 -19 34 0 9 96 74 110 75 4 0 14 -19 23 -41z m-254
-9 c10 -19 6 -23 -47 -46 -68 -31 -213 -79 -263 -88 -19 -3 2 7 46 24 45 17
119 53 165 80 46 27 85 49 86 49 1 1 7 -8 13 -19z m500 -76 c21 -64 22 -77 9
-85 -30 -19 -49 -9 -73 39 -40 80 -41 89 -9 106 15 8 33 15 39 16 6 0 21 -34
34 -76z m-450 -13 c5 -11 10 -22 10 -24 0 -14 -252 -67 -389 -81 -72 -7 -61 0
30 19 85 18 203 55 269 84 57 25 67 25 80 2z m275 -51 c30 -59 31 -67 8 -73
-68 -19 -69 -18 -101 27 -18 24 -32 47 -32 51 0 6 77 43 92 44 4 1 19 -21 33
-49z m239 -105 c15 -38 65 -143 111 -232 46 -90 82 -163 80 -163 -13 0 -174
249 -253 392 l-32 57 28 15 c15 8 30 11 33 8 3 -4 18 -38 33 -77z m-436 39
c13 -20 21 -38 18 -42 -3 -3 -122 -7 -263 -8 l-258 -3 115 15 c63 8 165 27
225 43 61 16 117 29 125 30 8 0 25 -15 38 -35z m-7126 -58 c130 -66 278 -154
283 -170 7 -20 25 -179 21 -184 -3 -2 -55 14 -118 36 -62 21 -137 45 -165 52
-50 11 -53 14 -64 53 -6 23 -26 90 -45 148 -36 112 -38 119 -28 119 4 0 56
-24 116 -54z m7428 -78 c35 -62 101 -168 146 -236 46 -67 79 -120 75 -117 -25
15 -361 421 -361 435 0 4 17 11 38 17 20 6 38 11 38 12 1 0 30 -50 64 -111z
m-795 32 c108 -14 317 -12 432 6 58 8 108 14 113 12 4 -2 43 -48 87 -103 132
-166 338 -378 474 -487 l38 -31 -60 -68 c-63 -71 -237 -229 -349 -315 -196
-153 -462 -306 -726 -419 -136 -59 -385 -143 -447 -151 -40 -6 -50 -3 -77 20
-33 28 -67 32 -132 17 l-36 -8 -22 58 c-39 108 -157 333 -238 455 l-80 122 36
23 c20 13 57 49 82 80 26 33 98 96 170 150 214 160 430 394 545 592 l40 69 40
-7 c22 -3 72 -10 110 -15z m-6250 -194 c106 -84 248 -236 283 -302 9 -17 -4
-12 -56 23 -58 38 -233 132 -270 144 -10 3 -42 145 -42 188 0 15 -5 18 85 -53z
m-308 -95 c43 -16 114 -44 157 -62 l79 -33 -6 -125 c-4 -85 -10 -127 -19 -132
-12 -8 -136 -3 -204 7 -31 4 -31 5 -44 92 -7 48 -23 131 -35 185 -12 53 -18
97 -14 97 4 0 43 -13 86 -29z m517 -252 c42 -27 61 -46 53 -50 -19 -10 -158
-38 -231 -45 l-66 -7 0 45 c0 25 -3 80 -7 123 l-6 78 95 -50 c53 -28 126 -70
162 -94z m7523 5 c-3 -3 -12 -4 -19 -1 -8 3 -5 6 6 6 11 1 17 -2 13 -5z
m-8213 -118 l51 -13 6 -69 c4 -38 7 -104 8 -146 l1 -78 -63 0 -64 0 -17 83
c-10 45 -31 123 -47 173 -16 50 -29 94 -29 97 0 3 23 -4 52 -15 29 -11 75 -25
102 -32z m780 -21 c-85 -67 -328 -205 -338 -194 -2 2 -1 43 2 90 l4 86 102 7
c55 4 133 12 171 19 39 7 72 11 74 10 3 -2 -4 -10 -15 -18z m335 -25 c52 -28
130 -76 175 -108 82 -58 291 -257 341 -325 l28 -38 -61 -127 c-33 -70 -76
-171 -96 -225 -95 -255 -150 -586 -145 -867 l3 -115 -75 3 c-384 15 -821 117
-1150 269 l-97 45 43 81 c64 120 157 343 210 504 l47 141 76 50 c167 109 307
252 432 442 59 90 160 285 160 309 0 17 8 14 109 -39z m-731 -5 c4 -4 -19
-187 -24 -193 -4 -6 -148 -42 -165 -42 -14 0 -18 16 -23 88 -4 48 -9 105 -12
126 l-6 39 113 -7 c63 -4 115 -9 117 -11z m464 -42 c-42 -59 -152 -176 -228
-244 -84 -75 -206 -170 -212 -165 -1 2 0 26 3 53 7 48 7 48 81 87 94 50 221
146 304 230 35 36 66 66 68 66 2 0 -6 -12 -16 -27z m-83 -9 c-59 -64 -299
-234 -330 -234 -12 0 -4 50 9 61 4 3 32 16 62 29 70 29 173 88 230 134 54 42
62 45 29 10z m115 -66 c-114 -183 -251 -364 -360 -474 -83 -83 -162 -149 -170
-141 -4 3 4 49 17 103 l24 96 71 49 c154 104 330 266 411 378 37 52 42 45 7
-11z m-534 -157 c0 -46 -19 -69 -72 -89 -107 -40 -99 -42 -96 24 l3 58 65 12
c96 17 100 16 100 -5z m-280 -81 l0 -67 -31 -7 c-62 -12 -66 -10 -73 45 -4 29
-9 64 -12 78 l-6 26 61 -3 61 -4 0 -68z m257 -47 c-3 -5 -10 -34 -17 -66 -11
-55 -14 -59 -63 -87 -29 -16 -56 -30 -60 -30 -4 0 -7 35 -5 77 l3 76 60 18
c69 19 88 22 82 12z m-443 -62 c3 -5 9 -60 12 -123 6 -103 5 -115 -10 -121
-26 -10 -33 -2 -41 50 -6 42 -27 136 -41 186 -4 14 1 17 35 17 22 0 42 -4 45
-9z m185 -63 c-1 -97 -9 -120 -42 -131 -16 -5 -30 -7 -32 -5 -2 2 -7 49 -11
106 l-7 102 47 0 46 0 -1 -72z m162 -244 c-49 -170 -149 -475 -159 -484 -3 -3
-2 6 2 20 23 87 68 334 82 452 l18 141 50 22 c28 13 52 22 53 21 1 -1 -20 -79
-46 -172z m-178 34 c-11 -101 -55 -349 -73 -413 l-20 -70 5 55 c3 30 10 100
15 155 5 55 10 146 10 202 0 107 0 108 52 112 13 1 15 -6 11 -41z m-147 -165
c-10 -218 -23 -283 -25 -118 -1 66 -6 153 -11 194 -10 77 -6 90 29 91 11 0 13
-28 7 -167z m8288 -1050 c-14 -32 -28 -64 -31 -70 -9 -22 -75 -27 -208 -15
-118 11 -320 53 -337 70 -4 4 55 8 130 8 135 1 299 21 397 48 77 22 77 22 49
-41z m300 -60 c-10 -16 -35 -56 -56 -89 -23 -36 -48 -64 -61 -68 -12 -3 -60
-6 -106 -6 l-83 0 6 25 c17 68 21 72 98 89 40 9 102 30 138 45 82 37 86 37 64
4z m-900 -228 c104 -84 271 -189 360 -225 49 -20 57 -26 52 -44 -16 -58 -56
-295 -67 -401 -7 -66 -13 -216 -13 -332 -1 -166 -4 -214 -14 -218 -21 -8 -330
13 -444 30 -397 60 -777 190 -1139 391 -176 98 -209 124 -209 170 0 50 -11 65
-90 124 -38 28 -70 54 -70 56 0 3 7 18 15 34 34 65 88 211 120 320 l33 115 78
6 c44 3 90 11 104 16 14 6 108 11 220 10 294 0 527 39 755 125 l90 34 63 -67
c34 -37 105 -102 156 -144z m141 186 c99 -26 251 -44 330 -39 36 2 65 1 65 -3
0 -23 -24 -69 -37 -69 -70 0 -376 88 -443 127 -14 8 -17 12 -6 8 10 -3 51 -14
91 -24z m77 -96 c57 -19 143 -40 191 -47 67 -9 86 -15 82 -26 -3 -8 -8 -25
-11 -38 -6 -22 -10 -24 -37 -18 -58 12 -251 95 -342 145 -126 70 -158 97 -63
54 43 -20 124 -51 180 -70z m-42 -89 c47 -22 128 -54 180 -72 52 -18 95 -37
94 -41 -1 -4 -7 -29 -14 -55 l-12 -46 -62 36 c-102 59 -228 146 -335 232 -55
44 -101 82 -101 85 0 2 37 -19 83 -47 45 -28 120 -69 167 -92z m600 29 c0 -6
-60 -127 -66 -134 -1 -2 -37 4 -79 14 -56 12 -75 20 -71 30 3 8 8 29 11 49 l7
35 72 4 c39 1 83 4 99 5 15 1 27 0 27 -3z m-154 -170 c27 -4 52 -9 56 -11 5
-4 -45 -126 -58 -143 -5 -6 -93 29 -99 39 -5 8 8 85 20 119 3 7 11 11 19 8 7
-3 35 -9 62 -12z m480 -147 c-186 -186 -292 -329 -426 -578 -58 -106 -58 -104
-5 27 74 184 200 415 319 584 l60 87 81 9 c44 6 88 11 97 12 9 0 -48 -63 -126
-141z m-179 99 c-103 -158 -137 -214 -192 -319 -73 -141 -122 -257 -176 -413
-46 -133 -49 -120 -9 40 47 195 109 383 163 505 11 25 21 47 21 50 1 3 16 40
35 83 l34 77 70 0 69 0 -15 -23z m-366 -108 c19 -6 39 -12 46 -14 9 -3 6 -19
-11 -57 -51 -116 -129 -378 -179 -603 -13 -56 -5 60 13 196 36 270 76 489 89
489 5 0 23 -5 42 -11z m-6481 -291 c223 -394 544 -713 938 -933 92 -51 103
-60 98 -80 -3 -13 -1 -37 5 -54 6 -17 8 -42 5 -55 -16 -63 -365 -424 -566
-585 -148 -119 -380 -269 -542 -352 -117 -59 -308 -140 -385 -163 -19 -6 -24
3 -64 121 -74 224 -171 445 -271 616 l-39 67 30 93 c61 190 76 299 75 542 0
200 -2 232 -27 346 -14 69 -29 135 -32 145 -17 58 43 -90 81 -199 55 -161 100
-344 113 -467 6 -52 13 -111 15 -130 2 -19 3 48 1 150 -3 139 -9 206 -24 271
-33 145 -82 278 -153 419 -61 120 -66 136 -52 147 32 23 221 101 309 127 114
33 291 64 371 65 l62 1 52 -92z m-1020 -294 c0 -19 -87 -187 -135 -261 -61
-93 -164 -223 -177 -223 -4 0 -30 20 -58 45 -28 25 -84 70 -125 101 -41 31
-75 60 -75 63 0 21 316 191 460 247 84 33 110 40 110 28z m87 -106 c-7 -131
-28 -248 -64 -362 -32 -101 -100 -249 -112 -244 -5 1 -48 45 -96 95 l-87 93
55 63 c72 82 191 260 251 375 26 51 50 92 53 92 3 0 3 -51 0 -112z m147 -133
c35 -238 29 -444 -19 -681 -37 -184 -30 -179 -104 -68 l-63 96 36 78 c44 97
79 203 97 295 14 76 18 323 7 445 l-7 75 19 -70 c11 -38 26 -115 34 -170z
m-85 -10 c1 -220 -32 -407 -101 -565 l-23 -53 -43 57 -43 56 46 77 c93 159
144 347 146 535 1 67 4 94 9 78 4 -14 8 -97 9 -185z m-613 -148 c84 -81 116
-118 111 -129 -3 -9 -47 -51 -97 -93 -88 -72 -93 -75 -114 -61 -18 13 -206
134 -284 183 l-23 14 44 34 c82 63 230 165 238 165 4 0 61 -51 125 -113z m248
-281 c97 -125 96 -113 11 -211 l-43 -50 -39 36 c-21 20 -76 67 -123 105 -47
38 -87 72 -90 76 -3 4 27 29 65 56 39 27 81 61 94 76 14 15 28 25 33 24 4 -2
46 -52 92 -112z m149 -204 c20 -32 37 -65 37 -73 0 -8 -18 -37 -38 -66 l-38
-52 -63 63 -62 63 58 61 c32 34 60 62 63 62 3 0 22 -26 43 -58z m104 -164 c22
-35 52 -86 68 -114 l29 -52 -18 -46 -18 -46 -36 44 c-21 24 -63 73 -96 110
l-58 66 38 50 c21 27 41 50 45 50 4 0 25 -28 46 -62z m3082 -688 c21 -572 21
-522 2 -508 -9 7 -38 32 -65 56 -125 109 -335 228 -526 296 -90 32 -95 36 -93
61 3 42 115 265 182 362 83 121 195 248 294 333 72 63 86 71 113 67 17 -3 37
-1 45 4 17 10 30 -175 48 -671z m-2813 200 c57 -112 104 -209 104 -214 0 -6
-19 21 -42 60 -52 84 -149 227 -211 309 l-45 59 20 40 20 39 25 -44 c14 -24
72 -136 129 -249z m2393 -482 c183 -96 388 -231 429 -281 9 -10 12 -47 10
-117 l-3 -101 -51 73 c-116 165 -279 325 -445 435 -38 25 -69 48 -69 49 0 9
20 0 129 -58z"/>
<path d="M18242 29380 c0 -14 2 -19 5 -12 2 6 2 18 0 25 -3 6 -5 1 -5 -13z"/>
<path d="M18220 29264 c-18 -125 -8 -413 18 -529 40 -176 95 -314 185 -463 30
-51 53 -92 51 -92 -9 0 -172 212 -227 295 -66 101 -108 181 -143 270 -29 75
-31 59 -3 -31 65 -212 183 -401 358 -573 l95 -93 -69 -67 c-39 -36 -101 -90
-140 -119 -143 -107 -473 -250 -516 -223 -27 16 -39 15 -236 -24 -163 -33
-180 -38 -205 -66 -47 -50 -28 -119 33 -119 29 0 306 57 322 66 7 4 32 22 57
41 25 19 101 56 168 83 222 89 401 201 554 348 l66 64 49 -22 c208 -93 438
-138 643 -126 184 12 191 22 20 28 -163 6 -323 33 -485 83 l-80 25 60 -8 c120
-14 434 -8 525 12 124 26 262 72 365 121 84 40 275 158 275 170 0 3 -17 -6
-38 -19 -68 -42 -214 -112 -312 -149 -209 -78 -470 -114 -691 -96 -207 17
-212 25 -19 31 189 6 259 20 398 77 139 58 308 186 384 293 12 18 -10 1 -50
-39 -128 -126 -277 -208 -468 -258 -98 -26 -252 -46 -336 -44 -49 1 -46 2 37
15 163 25 290 73 420 159 74 49 180 153 225 220 33 50 33 50 -36 -20 -122
-124 -251 -206 -416 -264 -96 -33 -220 -61 -270 -61 -31 1 -30 2 22 24 309
129 559 338 709 594 17 29 31 55 31 58 0 3 -28 -30 -62 -73 -212 -267 -502
-482 -738 -548 -22 -6 -21 -3 10 21 175 140 371 393 499 644 64 125 58 121
-42 -30 -95 -143 -224 -307 -330 -417 -89 -92 -204 -189 -214 -179 -10 9 16
173 43 273 43 163 120 319 221 452 85 113 83 109 47 83 -18 -12 -55 -47 -82
-77 -134 -147 -230 -372 -278 -655 -9 -52 -17 -96 -19 -98 -5 -6 -44 121 -61
198 -20 95 -23 301 -5 400 11 62 37 146 85 275 4 11 -6 -2 -23 -30 -43 -70
-89 -201 -107 -309 -25 -140 -8 -332 40 -471 4 -11 0 -7 -10 9 -23 40 -61 151
-87 255 -18 72 -21 113 -21 256 1 172 5 201 58 360 3 11 -6 -5 -21 -35 -47
-96 -65 -183 -71 -335 -6 -197 22 -338 106 -514 48 -102 48 -103 12 -51 -49
71 -136 248 -173 357 -71 202 -104 432 -93 636 4 64 5 117 3 117 -3 0 -10 -39
-17 -86z"/>
<path d="M32771 29269 c-2 -145 46 -305 131 -437 l50 -77 -42 40 c-52 50 -128
145 -163 205 -39 65 -33 39 9 -40 46 -88 113 -170 194 -239 36 -30 66 -58 68
-62 2 -4 -26 -36 -61 -71 -105 -107 -255 -198 -327 -198 -55 0 -212 -49 -239
-75 -24 -24 -23 -58 3 -68 23 -9 197 50 225 76 14 14 58 41 96 62 101 54 190
120 267 197 l67 68 78 -22 c64 -18 102 -22 213 -22 74 1 149 6 165 12 25 9 17
10 -41 5 -67 -5 -256 11 -295 25 -10 4 22 8 71 9 162 4 331 58 467 151 32 22
65 48 73 58 14 18 14 18 -5 3 -35 -30 -128 -81 -200 -111 -102 -43 -216 -67
-335 -73 l-105 -5 104 19 c136 25 244 77 324 157 32 32 63 66 68 77 6 10 -16
-8 -49 -40 -85 -84 -218 -150 -333 -167 -44 -6 -44 -6 17 18 110 43 192 105
246 185 32 46 32 46 -39 -20 -38 -36 -94 -80 -124 -97 -49 -27 -167 -72 -192
-72 -6 0 30 27 80 59 99 66 209 176 260 262 55 93 49 97 -15 11 -69 -92 -163
-188 -226 -231 -38 -26 -120 -71 -129 -71 -3 0 13 19 35 43 58 63 143 193 187
288 59 128 58 144 -1 39 -82 -148 -233 -350 -259 -350 -14 0 -10 108 5 180 19
87 49 164 91 235 20 32 34 60 32 61 -8 8 -70 -81 -97 -139 -40 -85 -60 -166
-67 -269 -3 -48 -10 -85 -14 -82 -5 3 -20 42 -34 87 -34 106 -42 229 -22 317
9 36 14 66 12 68 -2 2 -13 -26 -24 -63 -32 -101 -26 -234 13 -350 4 -11 -4 1
-18 27 -54 100 -82 277 -62 389 6 31 5 32 -5 9 -6 -14 -13 -65 -16 -115 -6
-109 12 -196 62 -298 32 -65 33 -69 10 -42 -39 45 -121 220 -145 307 -11 42
-25 112 -29 155 l-8 78 -2 -76z"/>
<path d="M29632 28708 c-3 -186 48 -352 156 -508 15 -21 -2 -8 -41 32 -36 37
-86 98 -111 135 -50 73 -59 77 -25 10 53 -103 160 -228 242 -281 15 -10 27
-24 27 -30 0 -20 -139 -149 -204 -191 -84 -54 -162 -88 -186 -80 -24 8 -213
-50 -235 -71 -19 -20 -20 -63 0 -70 24 -9 186 45 225 74 19 15 73 49 120 76
107 61 179 117 252 194 l58 60 62 -21 c53 -18 88 -21 223 -21 90 0 170 4 184
10 17 8 0 9 -70 6 -51 -3 -139 1 -194 9 l-100 13 105 8 c176 13 330 67 466
163 85 61 100 84 18 29 -152 -102 -309 -153 -484 -159 -100 -4 -107 -3 -51 5
178 25 333 109 414 225 12 17 -7 4 -44 -31 -91 -86 -225 -149 -359 -168 -38
-5 -33 -3 28 18 118 39 236 130 286 218 15 28 11 25 -24 -15 -50 -56 -148
-128 -213 -156 -51 -22 -147 -52 -147 -46 0 2 28 20 61 41 86 52 172 126 225
192 48 61 109 161 102 167 -2 3 -28 -30 -58 -71 -76 -106 -201 -222 -291 -269
l-74 -38 47 51 c61 65 139 185 187 287 54 113 60 144 11 55 -70 -125 -151
-240 -218 -309 l-64 -66 6 85 c8 132 55 273 128 385 14 21 8 17 -21 -14 -73
-78 -123 -217 -139 -387 l-8 -79 -18 40 c-51 116 -66 305 -33 410 20 61 16 70
-6 13 -48 -129 -49 -246 -2 -393 18 -57 -28 40 -52 110 -25 71 -28 94 -28 205
0 116 -1 121 -12 75 -26 -114 -7 -247 52 -375 29 -62 31 -70 12 -47 -39 47
-104 177 -130 262 -33 105 -39 133 -47 240 l-7 90 -1 -97z"/>
<path d="M26539 28583 c-23 -111 -18 -368 9 -476 27 -108 70 -219 117 -298 19
-32 33 -59 31 -59 -8 0 -134 176 -171 239 -21 35 -51 93 -66 130 -32 74 -37
71 -13 -10 38 -126 124 -267 234 -383 l75 -78 -50 -44 c-107 -95 -223 -161
-370 -213 -73 -26 -98 -31 -140 -26 -63 8 -292 -30 -317 -52 -41 -37 -28 -93
21 -93 15 0 76 9 135 19 80 15 116 26 141 45 19 15 74 40 122 57 156 55 298
135 421 238 l64 53 77 -35 c132 -61 217 -79 386 -83 l150 -3 -110 14 c-105 13
-312 61 -365 84 -24 11 -24 11 5 6 70 -14 309 -17 383 -6 150 24 372 108 452
172 15 12 -5 5 -48 -16 -92 -45 -223 -89 -332 -111 -96 -19 -289 -24 -395 -9
l-70 9 125 7 c69 4 152 15 185 23 104 27 234 100 311 172 42 40 52 53 26 32
-91 -69 -109 -81 -179 -115 -109 -53 -200 -74 -338 -78 -100 -3 -108 -2 -50 4
161 19 291 78 401 183 42 40 80 81 86 92 6 12 -21 -9 -61 -46 -115 -106 -293
-183 -466 -202 l-50 -5 35 16 c141 65 203 97 260 135 84 55 215 185 270 268
l44 65 -110 -111 c-117 -120 -220 -201 -324 -257 -63 -34 -167 -73 -175 -65
-2 1 25 26 59 55 69 56 157 154 228 254 44 60 148 234 148 246 0 3 -25 -30
-56 -73 -75 -105 -153 -201 -225 -279 -64 -68 -190 -175 -206 -175 -13 0 1 94
28 185 41 136 120 280 208 378 42 47 14 36 -39 -15 -113 -108 -201 -291 -241
-503 l-13 -70 -18 59 c-54 176 -36 412 43 569 32 61 13 42 -25 -25 -84 -153
-104 -322 -60 -518 14 -65 -29 54 -48 130 -37 150 -28 315 26 475 3 11 -5 -3
-19 -32 -35 -71 -55 -171 -55 -278 0 -106 17 -193 58 -298 16 -42 28 -77 26
-77 -9 0 -90 173 -115 249 -57 167 -80 368 -60 525 6 49 9 91 7 93 -2 2 -10
-27 -17 -64z"/>
<path d="M23215 28360 c44 -238 26 -531 -44 -682 l-19 -43 -1 107 c-1 116 -25
259 -65 391 -25 83 -82 223 -71 177 3 -14 19 -79 35 -145 16 -66 36 -166 45
-222 16 -109 21 -313 7 -313 -15 0 -116 129 -159 203 -58 97 -123 274 -123
333 0 13 -5 26 -11 30 -9 5 -10 -10 -5 -57 19 -172 83 -312 227 -496 27 -35
46 -63 42 -63 -3 0 -38 16 -77 35 -148 73 -288 206 -358 340 -18 35 -34 62
-36 60 -7 -6 42 -111 81 -172 50 -80 167 -189 254 -237 89 -48 43 -36 -73 19
-155 75 -289 193 -350 310 -16 30 -30 52 -32 50 -11 -11 82 -160 138 -219 101
-106 200 -168 350 -217 66 -22 75 -27 40 -22 -64 8 -201 49 -287 84 -147 62
-326 187 -429 302 l-47 52 34 -48 c80 -115 274 -270 421 -337 77 -34 184 -67
280 -86 l73 -14 -115 5 c-139 6 -283 29 -367 60 -91 32 -67 12 27 -25 144 -55
199 -64 389 -65 l173 0 -5 -145 c-4 -114 -10 -163 -30 -230 -39 -135 -65 -193
-101 -225 -19 -16 -64 -82 -100 -145 -56 -98 -65 -121 -60 -148 8 -40 27 -56
58 -48 34 8 146 207 146 260 0 20 12 69 26 109 62 172 94 345 94 508 l0 87 40
16 c59 23 165 90 238 149 66 54 170 174 198 230 18 36 12 30 -36 -32 -44 -57
-159 -155 -274 -232 l-91 -62 72 67 c179 166 326 445 347 658 5 51 5 52 -4 13
-62 -245 -184 -460 -356 -625 -74 -71 -75 -72 -33 -20 137 167 194 301 203
484 5 83 4 86 -5 36 -35 -192 -79 -307 -164 -425 -57 -81 -75 -93 -34 -24 80
137 116 316 90 454 -6 33 -8 22 -13 -65 -8 -124 -34 -225 -88 -335 -39 -78
-90 -154 -75 -110 77 225 86 521 20 691 -8 21 -13 28 -10 14z"/>
<path d="M23482 28260 c0 -19 2 -27 5 -17 2 9 2 25 0 35 -3 9 -5 1 -5 -18z"/>
<path d="M23361 28224 c0 -11 3 -14 6 -6 3 7 2 16 -1 19 -3 4 -6 -2 -5 -13z"/>
<path d="M26421 28204 c0 -11 3 -14 6 -6 3 7 2 16 -1 19 -3 4 -6 -2 -5 -13z"/>
<path d="M34981 27694 c-2 -192 51 -370 157 -519 l36 -50 -38 35 c-56 52 -143
161 -177 222 -17 29 -27 42 -24 28 22 -82 130 -230 226 -308 38 -31 69 -60 69
-65 0 -16 -115 -130 -170 -167 -84 -57 -176 -100 -213 -100 -40 0 -221 -53
-242 -70 -19 -16 -19 -66 0 -73 26 -10 188 43 225 74 19 16 62 43 95 60 100
53 176 109 258 190 l79 78 76 -22 c64 -18 100 -22 217 -21 77 1 152 5 167 10
20 6 -7 9 -90 9 -64 0 -148 4 -187 9 l-70 9 118 13 c191 22 372 95 492 200
l40 35 -60 -39 c-167 -110 -372 -174 -544 -171 -36 1 -55 4 -41 6 224 35 348
95 441 214 31 40 28 39 -36 -19 -75 -69 -172 -121 -271 -146 -73 -19 -116 -20
-59 -2 105 34 242 136 289 217 15 25 1 15 -50 -36 -72 -72 -151 -121 -250
-155 -85 -30 -95 -24 -28 16 91 55 163 113 214 175 49 58 125 177 118 184 -2
2 -30 -32 -63 -77 -70 -94 -180 -200 -256 -245 -87 -52 -99 -52 -54 -2 75 81
153 208 206 332 16 38 29 72 29 75 0 3 -29 -45 -65 -107 -70 -124 -150 -234
-216 -296 l-42 -40 7 85 c10 136 58 281 129 385 l20 30 -34 -32 c-72 -67 -132
-230 -145 -395 -8 -91 -13 -88 -50 27 -21 63 -26 101 -27 180 0 55 5 119 12
143 7 24 14 51 17 60 2 9 -4 -2 -16 -26 -45 -98 -51 -252 -12 -365 27 -82 8
-60 -26 31 -42 108 -56 188 -50 290 6 99 -8 69 -18 -38 -8 -90 17 -206 65
-302 47 -95 38 -92 -25 7 -84 136 -131 284 -144 460 l-7 100 -2 -101z"/>
<path d="M27395 27403 c-83 -114 -131 -252 -142 -403 -6 -81 -8 -89 -14 -55
-4 22 -11 85 -15 140 -8 97 -9 98 -15 45 -8 -66 5 -197 25 -265 8 -27 13 -52
11 -56 -6 -9 -84 -26 -157 -34 -75 -8 -216 11 -248 34 -31 22 -176 71 -211 71
-31 0 -52 -21 -43 -43 8 -21 151 -68 205 -67 24 0 109 -2 189 -5 110 -5 162
-3 215 8 68 15 69 15 84 -6 34 -52 161 -166 224 -201 37 -21 70 -36 72 -34 3
2 -24 23 -58 45 -34 23 -87 67 -117 98 l-55 57 51 -36 c114 -80 244 -122 404
-131 l95 -5 -94 15 c-52 8 -120 22 -150 30 -71 20 -227 96 -266 129 -29 25
-28 25 25 -3 30 -16 82 -37 115 -47 74 -21 212 -21 275 0 25 9 34 13 20 10
-69 -16 -187 -15 -250 1 -65 17 -163 55 -157 61 1 2 25 -3 52 -11 63 -20 198
-19 264 1 29 8 51 17 49 20 -2 2 -20 -1 -39 -7 -79 -23 -280 -5 -338 32 -12 7
0 9 44 6 126 -10 292 22 385 73 46 25 39 25 -47 -4 -99 -34 -178 -47 -284 -47
-102 0 -147 14 -80 25 57 9 153 42 226 79 64 31 175 97 175 104 0 2 -31 -12
-68 -31 -95 -48 -183 -83 -266 -105 -108 -29 -126 -32 -126 -22 0 18 89 118
143 159 30 24 86 59 124 77 40 21 59 35 47 35 -12 0 -55 -16 -95 -37 -57 -28
-96 -58 -166 -129 -51 -51 -93 -88 -93 -83 0 24 44 139 73 188 17 30 57 81 89
113 65 65 51 64 -23 0 -56 -50 -94 -103 -125 -179 -29 -72 -31 -48 -3 43 28
92 70 164 133 227 34 34 40 44 19 29 -87 -61 -163 -185 -184 -298 -18 -95 -29
-107 -23 -24 11 147 53 278 125 398 21 34 36 62 33 62 -2 0 -19 -21 -39 -47z"/>
<path d="M27222 27210 c0 -14 2 -19 5 -12 2 6 2 18 0 25 -3 6 -5 1 -5 -13z"/>
<path d="M14461 26794 c0 -11 3 -14 6 -6 3 7 2 16 -1 19 -3 4 -6 -2 -5 -13z"/>
<path d="M15132 26620 c0 -14 2 -19 5 -12 2 6 2 18 0 25 -3 6 -5 1 -5 -13z"/>
<path d="M31641 25389 c-2 -152 59 -337 157 -474 l36 -50 -33 30 c-54 50 -144
162 -179 223 -18 31 -30 46 -27 32 23 -86 141 -240 255 -333 l45 -36 -91 -88
c-103 -100 -253 -189 -301 -180 -15 3 -72 -10 -133 -29 -84 -27 -109 -39 -120
-58 -11 -21 -11 -28 0 -41 17 -20 30 -19 127 10 50 15 96 37 116 54 17 16 57
41 87 56 91 46 170 104 257 188 l81 79 89 -23 c69 -18 113 -22 203 -22 169 2
220 19 65 21 -66 2 -154 9 -195 16 l-75 13 88 2 c198 3 415 82 546 199 l36 32
-55 -36 c-152 -101 -311 -154 -480 -159 -105 -4 -109 -3 -44 5 159 20 315 109
397 225 11 17 -11 0 -50 -37 -79 -73 -156 -115 -273 -147 -99 -28 -132 -26
-50 2 36 12 87 35 113 50 55 33 143 119 171 168 16 28 12 26 -25 -15 -83 -93
-227 -179 -339 -201 -32 -6 -30 -4 23 29 97 59 154 104 213 169 53 59 141 194
132 203 -3 2 -22 -22 -44 -53 -86 -127 -242 -268 -341 -309 l-37 -16 57 61
c64 70 138 189 191 310 20 45 36 85 36 88 0 4 -28 -43 -63 -104 -75 -130 -147
-230 -213 -293 l-46 -45 5 90 c8 127 56 267 129 380 14 21 7 17 -21 -14 -75
-80 -125 -217 -140 -385 l-8 -81 -22 48 c-59 127 -65 287 -16 442 4 13 1 11
-9 -5 -25 -43 -46 -145 -46 -222 0 -64 11 -127 35 -203 16 -50 -30 46 -52 109
-29 83 -42 255 -24 320 15 55 5 58 -11 5 -7 -25 -13 -92 -13 -154 0 -121 18
-190 74 -293 42 -75 20 -55 -35 33 -77 124 -130 280 -144 425 l-7 75 -2 -86z"/>
<path d="M8028 25303 c7 -3 16 -2 19 1 4 3 -2 6 -13 5 -11 0 -14 -3 -6 -6z"/>
<path d="M35115 24849 c6 -176 55 -328 150 -467 l45 -67 -71 75 c-39 41 -93
108 -120 148 -27 41 -49 71 -49 67 0 -4 16 -38 36 -75 46 -88 128 -186 204
-245 l60 -47 -32 -40 c-77 -98 -307 -246 -360 -233 -28 7 -215 -49 -240 -72
-22 -20 -23 -46 -3 -63 23 -19 195 33 227 67 13 14 50 39 83 55 102 51 197
120 275 198 l75 75 85 -22 c65 -17 113 -22 205 -21 155 0 210 15 65 18 -58 1
-139 7 -180 14 l-75 13 75 2 c100 2 238 31 329 70 76 32 198 108 222 138 8 9
-8 2 -34 -16 -137 -93 -313 -151 -482 -156 -93 -3 -100 -3 -49 5 175 25 323
104 404 216 l34 48 -61 -61 c-92 -92 -224 -157 -363 -177 -42 -6 -40 -5 20 16
120 42 213 110 273 197 29 44 27 43 -45 -25 -80 -76 -180 -133 -275 -158 -29
-8 -53 -13 -53 -11 0 1 30 20 67 41 123 72 283 245 323 349 14 36 5 31 -20
-11 -68 -116 -221 -265 -333 -325 l-61 -32 60 70 c71 85 141 200 189 312 19
46 35 86 35 89 0 4 -24 -36 -53 -88 -93 -168 -248 -373 -268 -353 -13 13 8
179 32 252 22 69 60 149 91 194 34 48 12 41 -26 -9 -70 -91 -114 -225 -132
-399 l-7 -60 -19 45 c-45 104 -63 282 -37 373 6 22 8 41 5 44 -3 3 -12 -21
-22 -53 -21 -73 -21 -220 0 -289 20 -64 14 -68 -12 -8 -51 119 -69 254 -50
373 6 37 5 41 -4 20 -6 -14 -13 -72 -15 -130 -6 -124 9 -198 62 -302 19 -38
33 -68 31 -68 -7 0 -76 110 -104 166 -44 86 -81 214 -97 334 l-14 105 4 -106z"/>
<path d="M24872 24498 c-21 -134 -24 -212 -13 -313 17 -145 49 -255 111 -382
31 -62 55 -113 54 -113 -1 0 -27 33 -56 73 -77 102 -147 220 -179 302 -35 87
-38 64 -4 -35 47 -138 139 -284 247 -393 27 -26 48 -52 48 -57 0 -25 -165
-144 -278 -200 -118 -59 -230 -92 -267 -80 -22 7 -65 4 -168 -14 -148 -25
-177 -39 -177 -86 0 -49 18 -54 132 -35 128 20 156 29 198 60 18 13 63 34 99
46 145 48 341 159 451 256 l44 40 74 -34 c147 -68 336 -102 490 -87 l87 8
-115 7 c-112 7 -281 41 -365 74 l-40 15 40 -5 c180 -24 347 -14 502 31 90 25
268 107 313 143 14 12 -10 3 -52 -18 -100 -50 -242 -96 -352 -116 -109 -19
-318 -19 -406 0 l-65 14 65 -5 c147 -12 341 32 459 104 71 43 165 123 182 154
6 11 -11 0 -37 -26 -124 -120 -307 -190 -519 -201 -107 -5 -105 -3 20 21 92
18 157 43 235 92 58 36 164 133 182 167 6 11 -14 -3 -44 -32 -103 -96 -218
-157 -371 -193 -45 -11 -98 -20 -117 -20 -34 1 -34 1 20 24 201 84 361 200
464 336 85 112 77 112 -35 -1 -117 -119 -219 -198 -324 -251 -61 -31 -166 -71
-172 -65 -1 2 26 27 62 55 109 87 259 280 349 447 30 57 26 52 -75 -84 -93
-124 -194 -236 -287 -316 -48 -41 -91 -75 -96 -75 -11 0 1 96 23 173 43 147
118 287 209 388 32 36 39 48 23 39 -31 -16 -104 -92 -140 -144 -67 -97 -142
-290 -157 -405 -4 -28 -10 -54 -14 -56 -15 -9 -43 131 -48 236 -5 119 13 232
53 331 13 32 21 58 19 58 -10 0 -74 -148 -89 -205 -19 -75 -20 -252 -1 -325
22 -84 11 -72 -18 19 -66 208 -60 435 14 580 11 23 18 41 15 41 -11 0 -64
-124 -82 -190 -36 -134 -19 -345 39 -479 36 -85 8 -53 -36 40 -89 190 -121
349 -114 584 2 85 3 155 2 155 -1 0 -6 -33 -12 -72z"/>
<path d="M18368 24533 c7 -3 16 -2 19 1 4 3 -2 6 -13 5 -11 0 -14 -3 -6 -6z"/>
<path d="M35868 24203 c7 -3 16 -2 19 1 4 3 -2 6 -13 5 -11 0 -14 -3 -6 -6z"/>
<path d="M36478 23893 c-94 -102 -169 -241 -190 -355 -7 -38 -16 -68 -21 -68
-9 0 0 131 14 204 11 57 6 71 -10 26 -22 -64 -33 -194 -22 -270 5 -41 8 -77 5
-82 -3 -4 -47 -8 -98 -8 -105 0 -236 28 -276 60 -14 11 -60 38 -103 61 -88 45
-130 49 -135 12 -3 -18 8 -28 67 -58 39 -19 82 -35 97 -35 14 0 70 -12 123
-27 79 -22 118 -27 218 -27 l122 -1 21 -37 c39 -69 108 -153 157 -189 97 -73
106 -72 28 3 -44 42 -96 98 -115 125 l-34 48 62 -57 c100 -92 237 -158 357
-172 48 -6 47 -5 -20 15 -105 30 -205 82 -290 149 -82 66 -99 88 -32 42 95
-65 207 -103 302 -101 31 1 24 4 -35 14 -41 8 -95 21 -120 30 -44 16 -130 62
-130 70 0 3 24 -5 53 -16 60 -24 183 -35 242 -22 35 8 29 9 -46 10 -60 0 -105
7 -155 22 -58 19 -134 56 -134 65 0 2 24 -3 53 -11 68 -19 247 -21 317 -4 57
14 108 37 60 27 -14 -3 -67 -10 -119 -16 -99 -12 -224 -2 -286 24 -29 12 -27
13 45 19 88 7 159 25 271 68 91 35 102 49 15 19 -113 -38 -366 -81 -366 -61 0
5 26 33 58 61 61 55 167 113 247 135 48 13 48 13 15 14 -77 1 -206 -63 -306
-153 l-55 -48 17 43 c35 88 93 166 179 238 l40 33 -44 -23 c-53 -29 -114 -88
-153 -149 -19 -30 -27 -36 -22 -20 23 83 109 201 181 249 26 17 42 31 36 31
-19 0 -118 -78 -148 -116 -49 -63 -67 -95 -92 -164 -28 -81 -30 -50 -3 49 27
96 82 206 139 277 25 31 52 65 60 75 25 34 4 20 -41 -28z"/>
<path d="M19645 23710 c5 -193 45 -320 149 -475 l47 -70 -57 60 c-82 87 -118
133 -158 200 -46 75 -46 64 -2 -24 55 -108 160 -228 254 -291 l23 -15 -51 -57
c-97 -109 -256 -209 -339 -214 -55 -3 -220 -53 -244 -73 -25 -21 -19 -65 10
-69 34 -5 188 46 209 69 11 12 42 32 69 46 100 50 222 137 294 210 l75 74 79
-21 c103 -28 241 -35 332 -18 l70 13 -120 1 c-66 0 -154 7 -195 14 l-75 15
120 6 c144 8 238 33 352 94 71 37 203 129 203 140 0 2 -30 -17 -67 -42 -133
-90 -275 -142 -443 -163 -158 -19 -190 -10 -49 15 116 20 233 79 309 155 32
32 63 67 69 78 6 11 -18 -9 -52 -43 -86 -85 -225 -155 -344 -170 l-48 -6 65
23 c36 13 89 38 118 56 57 37 144 127 168 175 11 20 -5 7 -48 -38 -78 -85
-156 -136 -256 -169 -102 -34 -108 -33 -37 10 93 56 170 123 231 198 47 59
112 166 101 166 -2 0 -24 -28 -48 -62 -82 -119 -246 -265 -334 -298 -28 -11
-28 -11 6 27 65 72 129 171 184 284 30 63 55 119 55 124 0 6 -22 -29 -49 -77
-86 -152 -234 -348 -263 -348 -16 0 -2 141 22 229 21 74 80 202 108 234 8 9
10 17 4 17 -15 0 -78 -89 -102 -144 -30 -67 -59 -187 -66 -278 -7 -75 -8 -79
-20 -55 -8 13 -23 60 -35 103 -27 96 -29 242 -5 319 19 61 14 70 -7 13 -46
-121 -47 -242 -2 -383 18 -57 -28 40 -52 110 -24 70 -28 95 -28 197 0 79 -3
109 -8 90 -5 -15 -9 -72 -10 -127 0 -84 4 -113 27 -179 15 -43 38 -98 52 -122
38 -65 22 -53 -24 19 -94 143 -147 300 -162 480 l-9 102 4 -135z"/>
<path d="M16869 23313 c-13 -16 -12 -17 4 -4 9 7 17 15 17 17 0 8 -8 3 -21
-13z"/>
<path d="M18198 23183 c7 -3 16 -2 19 1 4 3 -2 6 -13 5 -11 0 -14 -3 -6 -6z"/>
<path d="M36778 23163 c7 -3 16 -2 19 1 4 3 -2 6 -13 5 -11 0 -14 -3 -6 -6z"/>
<path d="M36818 23033 c7 -3 16 -2 19 1 4 3 -2 6 -13 5 -11 0 -14 -3 -6 -6z"/>
<path d="M24024 21347 c-118 -100 -201 -206 -273 -346 -57 -112 -85 -193 -111
-322 l-19 -94 6 110 c6 140 27 283 51 363 11 34 18 62 16 62 -1 0 -13 -21 -24
-47 -59 -132 -87 -323 -71 -479 6 -54 8 -100 6 -103 -12 -11 -166 -12 -248 -1
-156 21 -334 83 -356 123 -18 34 -243 157 -286 157 -39 0 -70 -34 -59 -64 11
-28 214 -136 256 -136 21 0 79 -14 130 -31 176 -58 243 -70 416 -76 l162 -6
38 -74 c75 -150 228 -320 352 -391 53 -30 51 -24 -6 19 -59 43 -174 173 -244
275 l-54 79 90 -85 c141 -135 277 -216 459 -273 80 -25 233 -53 241 -44 3 3
-17 8 -43 12 -135 20 -356 115 -487 209 -78 56 -179 148 -208 189 -21 30 -19
30 23 -8 64 -59 130 -102 214 -141 104 -48 182 -64 305 -62 l105 1 -97 7
c-113 9 -212 37 -318 90 -64 32 -200 124 -200 135 0 2 30 -14 67 -36 131 -76
284 -107 436 -88 45 6 83 11 84 13 1 1 -48 3 -110 3 -130 1 -230 24 -344 77
-70 34 -167 95 -129 82 167 -57 371 -78 531 -56 69 10 219 50 212 56 -2 2 -39
-4 -83 -13 -53 -11 -134 -16 -249 -17 -178 0 -280 16 -380 61 l-40 17 135 7
c145 8 265 33 425 89 78 28 179 74 120 55 -11 -4 -78 -22 -150 -40 -168 -43
-317 -65 -446 -65 l-103 0 30 31 c109 114 311 220 504 264 l65 15 -85 -4
c-150 -8 -324 -89 -489 -226 -34 -28 -61 -46 -61 -41 0 20 42 105 83 169 74
114 217 242 320 287 18 8 27 14 20 15 -20 0 -119 -46 -170 -81 -93 -62 -171
-149 -235 -262 -39 -69 -26 -23 22 81 70 148 156 251 277 332 88 59 86 64 -6
14 -41 -23 -98 -70 -151 -123 -96 -96 -157 -200 -197 -331 -30 -100 -29 -60 1
65 54 221 154 400 320 573 43 45 77 82 75 82 -2 0 -32 -24 -65 -53z"/>
<path d="M18728 20023 c7 -3 16 -2 19 1 4 3 -2 6 -13 5 -11 0 -14 -3 -6 -6z"/>
<path d="M10711 18454 c0 -11 3 -14 6 -6 3 7 2 16 -1 19 -3 4 -6 -2 -5 -13z"/>
<path d="M17035 18265 c4 -186 43 -316 134 -455 55 -83 56 -88 14 -45 -72 77
-131 150 -167 210 -49 82 -45 60 7 -39 30 -58 66 -104 127 -167 47 -47 98 -95
114 -106 l29 -20 -69 -70 c-107 -109 -265 -204 -337 -201 -41 1 -206 -49 -230
-70 -25 -22 -19 -66 10 -70 34 -5 185 46 213 72 14 13 57 40 95 61 114 62 185
114 264 193 l74 74 86 -23 c68 -18 112 -23 206 -22 66 0 133 5 149 10 21 7 2
9 -75 9 -57 0 -144 7 -194 15 l-90 14 125 6 c187 10 331 61 484 174 30 22 53
41 51 43 -2 2 -19 -7 -37 -21 -56 -43 -188 -104 -283 -132 -100 -29 -274 -50
-289 -34 -6 5 2 9 22 9 136 0 329 101 411 215 34 47 33 47 -30 -16 -76 -76
-175 -131 -285 -159 -104 -27 -124 -25 -43 4 115 40 228 130 283 227 13 22 -3
9 -49 -39 -38 -40 -95 -89 -128 -108 -57 -33 -205 -90 -213 -81 -2 2 15 14 39
27 123 69 261 206 321 319 38 72 44 97 9 39 -72 -120 -228 -274 -335 -329
l-57 -29 70 87 c62 78 199 323 199 357 0 6 -26 -34 -58 -89 -31 -55 -73 -122
-91 -149 -48 -70 -150 -186 -163 -186 -16 0 -2 140 22 229 20 69 55 150 102
231 l20 35 -36 -40 c-74 -82 -129 -235 -142 -398 l-7 -82 -19 44 c-51 121 -67
302 -34 406 19 61 14 70 -7 13 -40 -105 -46 -214 -17 -323 10 -38 17 -71 15
-73 -1 -1 -14 26 -29 60 -54 131 -70 270 -42 378 16 61 14 80 -3 28 -47 -146
-33 -302 40 -452 l30 -61 -26 30 c-43 49 -122 224 -146 320 -12 50 -25 133
-30 185 -7 92 -7 91 -4 -35z"/>
<path d="M7638 17683 c7 -3 16 -2 19 1 4 3 -2 6 -13 5 -11 0 -14 -3 -6 -6z"/>
<path d="M17798 17613 c7 -3 16 -2 19 1 4 3 -2 6 -13 5 -11 0 -14 -3 -6 -6z"/>
</g>
</svg>
