<?xml version="1.0" standalone="no"?>
<!DOCTYPE svg PUBLIC "-//W3C//DTD SVG 20010904//EN"
 "http://www.w3.org/TR/2001/REC-SVG-20010904/DTD/svg10.dtd">
<svg version="1.0" xmlns="http://www.w3.org/2000/svg"
 width="612.000000pt" height="432.000000pt" viewBox="0 0 612.000000 432.000000"
 preserveAspectRatio="xMidYMid meet">

<g transform="translate(0.000000,432.000000) scale(0.100000,-0.100000)"
fill="#000000" stroke="none">
<path d="M3920 3639 c0 -5 5 -7 10 -4 6 3 10 8 10 11 0 2 -4 4 -10 4 -5 0 -10
-5 -10 -11z"/>
<path d="M4260 3580 c0 -5 5 -10 10 -10 6 0 10 5 10 10 0 6 -4 10 -10 10 -5 0
-10 -4 -10 -10z"/>
<path d="M880 3506 c0 -2 8 -10 18 -17 15 -13 16 -12 3 4 -13 16 -21 21 -21
13z"/>
<path d="M3820 3465 c-7 -9 -10 -18 -7 -21 3 -3 10 4 17 15 13 25 8 27 -10 6z"/>
<path d="M952 3463 c-9 -3 -10 -9 -3 -17 6 -7 12 -57 14 -112 l3 -99 2 106 c1
66 6 109 14 117 9 9 9 12 -2 11 -8 0 -21 -3 -28 -6z"/>
<path d="M670 3453 c0 -6 8 -17 18 -24 16 -13 16 -13 2 6 -8 11 -16 22 -17 24
-2 2 -3 0 -3 -6z"/>
<path d="M656 3410 c-16 -5 -15 -8 9 -24 15 -10 24 -20 21 -23 -3 -3 1 -11 9
-17 8 -6 30 -40 50 -76 19 -36 35 -60 35 -55 0 6 -14 35 -32 65 -17 30 -41 73
-53 96 -16 31 -26 39 -39 34z"/>
<path d="M4261 3404 c0 -11 3 -14 6 -6 3 7 2 16 -1 19 -3 4 -6 -2 -5 -13z"/>
<path d="M1209 3387 c-1 -7 -1 -15 0 -20 3 -21 -149 -265 -215 -342 -25 -29
-25 -29 -19 -5 7 24 7 24 -9 5 -15 -19 -15 -17 -16 30 -2 54 -5 52 -15 -7 -7
-44 -24 -51 -26 -10 -1 20 -3 22 -6 7 -10 -48 -14 -51 -30 -20 -9 17 -18 25
-20 18 -2 -7 1 -21 7 -32 16 -31 0 -25 -44 17 l-40 37 32 -38 c41 -48 40 -54
0 -26 l-33 22 30 -32 c17 -18 26 -32 20 -31 -34 7 -50 -15 -17 -23 13 -4 11
-5 -5 -6 -13 0 -23 -6 -23 -12 0 -6 9 -8 23 -4 20 5 20 5 5 -8 -11 -8 -14 -18
-8 -27 5 -8 6 -18 4 -22 -3 -4 3 -5 12 -1 15 6 15 4 -1 -21 -16 -23 -19 -59
-13 -121 2 -21 18 -19 18 3 0 9 7 26 15 36 8 11 15 25 15 30 -1 6 -8 -2 -16
-17 -9 -16 -18 -26 -21 -23 -9 9 17 64 33 70 8 3 13 2 10 -2 -2 -4 -1 -23 4
-42 6 -29 8 -30 9 -10 2 44 17 55 30 23 6 -15 21 -42 32 -58 l21 -30 -6 50
c-6 47 -6 49 10 30 17 -22 114 -212 131 -260 6 -16 32 -84 57 -149 25 -65 46
-124 46 -130 0 -6 6 -22 13 -36 7 -14 33 -81 57 -149 37 -105 41 -125 28 -132
-8 -4 -26 -18 -39 -29 -17 -15 -12 -14 16 5 l40 25 12 -27 c18 -41 16 -51 -9
-56 -21 -4 -20 -4 3 -6 37 -2 54 -45 22 -54 -14 -4 -13 -5 4 -6 17 -1 25 -13
42 -66 12 -35 21 -67 21 -70 0 -4 -15 3 -32 15 l-33 22 30 -26 c17 -14 33 -26
37 -26 5 0 134 -385 163 -488 4 -13 -8 -80 -29 -160 -65 -253 -144 -628 -194
-919 l-9 -53 31 0 31 0 48 263 c41 230 131 645 155 715 6 20 23 -27 80 -229
40 -140 100 -365 134 -501 l61 -248 34 0 c18 0 33 2 33 6 0 30 -163 632 -249
917 l-60 198 64 217 c89 303 228 702 244 702 4 0 7 8 8 19 2 30 109 260 154
331 40 63 41 64 34 27 -3 -21 -9 -46 -11 -55 -5 -14 -2 -13 10 2 15 19 16 14
18 -60 l2 -79 7 95 c8 110 18 160 30 160 5 0 9 -4 9 -8 0 -5 11 -22 24 -37 18
-21 23 -36 19 -57 -4 -19 -1 -28 7 -28 12 0 11 55 -3 145 -7 43 0 51 41 48
l37 -3 -40 14 c-25 9 -33 14 -20 15 18 2 18 3 -5 16 -14 8 -19 14 -12 15 6 0
12 5 12 11 0 5 -4 7 -10 4 -5 -3 -10 -2 -10 2 0 14 174 182 197 190 19 7 20
10 7 27 -14 20 -14 20 -15 0 -1 -10 -51 -66 -111 -124 -96 -92 -109 -101 -103
-75 6 27 5 28 -8 13 -20 -25 -27 -22 -28 10 -1 20 -2 22 -6 7 -8 -31 -23 -42
-23 -16 0 13 -4 20 -11 16 -6 -4 -8 -13 -5 -21 3 -8 1 -14 -4 -14 -6 0 -10 7
-10 15 0 8 -4 15 -10 15 -5 0 -6 -8 -3 -17 4 -10 -5 -4 -20 12 l-28 30 20 -37
c22 -41 19 -50 -15 -42 -30 8 -32 -4 -3 -14 19 -8 20 -10 6 -24 -9 -9 -14 -18
-11 -21 11 -10 -38 -18 -79 -13 -27 3 -33 3 -17 -2 l25 -8 -27 -7 c-16 -4 -28
-12 -28 -18 0 -6 6 -6 19 1 11 5 32 10 48 10 15 0 40 7 56 14 15 8 27 11 27 7
0 -14 -46 -51 -55 -44 -4 5 -5 3 -2 -3 4 -6 -3 -20 -14 -30 -12 -10 -26 -28
-31 -39 -10 -19 -10 -19 13 1 43 38 55 40 33 7 -43 -70 -157 -212 -165 -207
-5 3 -9 1 -9 -4 0 -5 9 -12 20 -15 15 -4 20 0 20 13 0 20 89 143 160 220 l41
45 -70 -140 c-87 -176 -152 -326 -229 -530 -52 -140 -159 -468 -178 -548 -6
-27 -24 -38 -24 -14 0 6 -22 81 -50 165 -27 84 -46 160 -43 169 4 11 2 14 -5
9 -13 -8 -28 36 -18 52 3 6 0 12 -7 15 -14 5 -42 85 -33 94 3 4 0 11 -8 17 -7
6 -18 26 -24 44 l-11 32 52 2 52 1 -54 6 c-51 6 -55 8 -67 41 -7 19 -13 43
-13 52 -1 20 114 93 130 82 8 -4 9 -3 5 4 -7 11 6 17 27 13 5 -1 6 3 2 9 -4 6
6 10 24 10 35 0 44 10 25 27 -10 10 -15 10 -21 0 -4 -6 -21 -19 -38 -27 -16
-8 -61 -34 -98 -57 -67 -43 -68 -43 -77 -21 -7 19 -3 28 27 56 20 17 45 32 55
32 16 0 17 3 6 20 -9 15 -14 17 -16 7 -4 -20 -80 -79 -87 -68 -3 6 -12 29 -20
52 -15 41 -15 43 16 90 17 26 36 47 42 45 7 -1 9 -1 5 1 -15 8 -8 21 15 27 22
6 22 7 2 18 -11 6 -23 15 -26 20 -3 5 -12 2 -19 -7 -11 -13 -10 -15 4 -9 9 4
16 1 16 -6 0 -14 -70 -124 -75 -118 -2 2 -19 48 -40 103 -20 55 -40 109 -45
120 -5 11 -34 80 -65 153 -31 74 -76 175 -102 225 -25 50 -39 86 -30 79 33
-27 190 -242 201 -276 9 -27 15 -33 26 -25 11 6 12 11 4 17 -7 4 -36 42 -65
85 -30 42 -69 98 -87 124 -38 54 -34 68 8 28 49 -47 34 -7 -15 43 -25 25 -44
47 -42 49 2 2 12 -6 22 -17 18 -20 55 -28 55 -12 0 5 -12 14 -26 21 -15 6 -25
14 -23 16 5 4 63 -8 94 -21 18 -7 18 -6 7 8 -7 9 -27 20 -44 23 -23 6 -27 9
-17 16 9 7 5 7 -13 3 -17 -4 -28 -2 -28 5 0 6 -7 8 -16 4 -13 -5 -15 -2 -9 15
5 17 2 22 -12 23 -15 0 -14 2 5 9 31 13 28 24 -5 15 l-27 -6 19 22 20 22 -22
-12 -23 -12 18 30 c9 17 52 81 94 144 42 62 87 133 99 158 13 24 27 46 31 47
13 6 9 19 -7 26 -8 3 -16 0 -16 -7z m881 -892 c-7 -9 -15 -13 -17 -11 -7 7 7
26 19 26 6 0 6 -6 -2 -15z"/>
<path d="M838 3363 c-18 -5 -25 -23 -9 -23 4 0 13 -15 18 -32 9 -32 10 -32 9
14 -1 27 -1 47 -1 47 0 -1 -8 -3 -17 -6z"/>
<path d="M3938 3313 c7 -3 16 -2 19 1 4 3 -2 6 -13 5 -11 0 -14 -3 -6 -6z"/>
<path d="M1047 3302 c-2 -4 0 -20 4 -37 4 -20 7 -23 8 -9 0 11 6 25 12 31 7 7
6 12 -5 16 -8 3 -17 3 -19 -1z"/>
<path d="M3466 3294 c-9 -24 -2 -26 12 -4 7 11 8 20 3 20 -5 0 -12 -7 -15 -16z"/>
<path d="M4840 3300 c0 -5 5 -10 11 -10 5 0 7 5 4 10 -3 6 -8 10 -11 10 -2 0
-4 -4 -4 -10z"/>
<path d="M454 3245 c-22 -25 -16 -35 23 -35 9 0 21 -7 28 -17 8 -11 14 -12 19
-5 4 6 -6 18 -25 27 -23 12 -30 22 -26 36 6 24 6 24 -19 -6z"/>
<path d="M862 3260 c-1 -8 5 -42 12 -75 8 -33 14 -49 14 -35 0 28 -25 133 -26
110z"/>
<path d="M2476 3255 c10 -8 24 -14 29 -14 6 0 1 6 -9 14 -11 8 -24 15 -30 15
-5 0 -1 -7 10 -15z"/>
<path d="M607 3237 c-4 -10 -2 -17 4 -17 6 0 48 -35 93 -77 l81 -77 -82 83
c-45 45 -84 88 -86 94 -2 6 -6 3 -10 -6z"/>
<path d="M953 3175 c0 -27 2 -38 4 -22 2 15 2 37 0 50 -2 12 -4 0 -4 -28z"/>
<path d="M1213 3185 c4 -9 -17 -35 -56 -72 -35 -32 -51 -49 -37 -38 14 11 44
37 67 58 27 26 46 37 55 31 7 -4 4 2 -6 14 -22 25 -30 28 -23 7z"/>
<path d="M540 3186 c0 -3 21 -19 48 -36 26 -18 68 -48 95 -67 26 -19 47 -32
47 -30 0 6 -177 137 -185 137 -3 0 -5 -2 -5 -4z"/>
<path d="M2640 3180 c8 -5 20 -10 25 -10 6 0 3 5 -5 10 -8 5 -19 10 -25 10 -5
0 -3 -5 5 -10z"/>
<path d="M791 3175 c0 -5 13 -35 29 -65 16 -30 29 -50 29 -45 0 6 -13 35 -29
65 -16 30 -29 51 -29 45z"/>
<path d="M1392 3139 c-8 -12 -19 -18 -28 -15 -8 3 -13 2 -10 -3 3 -4 -17 -18
-44 -31 -28 -13 -48 -25 -46 -27 2 -3 31 9 65 26 33 17 67 31 76 31 17 0 19 9
7 27 -6 9 -11 6 -20 -8z"/>
<path d="M2711 3157 c2 -2 12 -9 22 -16 14 -11 17 -11 17 1 0 7 -10 14 -21 15
-12 1 -20 1 -18 0z"/>
<path d="M1006 3125 c-9 -26 -7 -32 5 -12 6 10 9 21 6 23 -2 3 -7 -2 -11 -11z"/>
<path d="M892 3100 c0 -14 2 -19 5 -12 2 6 2 18 0 25 -3 6 -5 1 -5 -13z"/>
<path d="M547 3067 c-4 -10 4 -14 26 -14 18 -1 25 2 17 4 -8 3 -20 10 -26 15
-7 5 -14 3 -17 -5z"/>
<path d="M3315 3053 l-17 -28 23 22 c12 12 20 25 17 28 -3 3 -13 -7 -23 -22z"/>
<path d="M1220 3050 c-8 -5 -10 -10 -5 -10 6 0 17 5 25 10 8 5 11 10 5 10 -5
0 -17 -5 -25 -10z"/>
<path d="M740 3046 c0 -2 8 -10 18 -17 15 -13 16 -12 3 4 -13 16 -21 21 -21
13z"/>
<path d="M1059 3033 c-13 -16 -12 -17 4 -4 9 7 17 15 17 17 0 8 -8 3 -21 -13z"/>
<path d="M2118 3032 c-1 -9 0 -57 3 -107 l5 -90 2 83 c1 46 6 92 12 102 7 13
6 19 -4 23 -8 3 -16 -2 -18 -11z"/>
<path d="M1170 3030 c-8 -5 -10 -10 -5 -10 6 0 17 5 25 10 8 5 11 10 5 10 -5
0 -17 -5 -25 -10z"/>
<path d="M2382 3017 c-7 -8 -7 -18 -2 -27 5 -9 4 -20 -3 -30 -9 -12 -9 -13 3
-2 8 6 23 12 35 12 17 1 16 3 -8 16 -23 12 -26 18 -16 30 6 8 9 14 6 14 -2 0
-9 -6 -15 -13z"/>
<path d="M700 3010 c8 -5 20 -10 25 -10 6 0 3 5 -5 10 -8 5 -19 10 -25 10 -5
0 -3 -5 5 -10z"/>
<path d="M1105 3005 c-25 -12 -26 -14 -5 -9 28 7 60 23 45 23 -5 0 -23 -6 -40
-14z"/>
<path d="M454 2990 c0 -11 6 -22 14 -25 7 -2 10 0 7 5 -4 6 18 11 57 12 l63 2
-55 3 c-30 2 -59 8 -64 14 -15 14 -22 11 -22 -11z"/>
<path d="M2619 2993 c-13 -16 -12 -17 4 -4 16 13 21 21 13 21 -2 0 -10 -8 -17
-17z"/>
<path d="M760 2986 c0 -2 7 -7 16 -10 8 -3 12 -2 9 4 -6 10 -25 14 -25 6z"/>
<path d="M1880 2980 c-16 -5 -19 -8 -8 -9 9 -1 22 -9 27 -18 9 -15 10 -14 11
10 0 15 -1 27 -2 26 -2 -1 -14 -5 -28 -9z"/>
<path d="M623 2973 c9 -2 23 -2 30 0 6 3 -1 5 -18 5 -16 0 -22 -2 -12 -5z"/>
<path d="M1296 2972 c-3 -5 4 -17 16 -26 19 -17 20 -17 15 -1 -4 9 -7 21 -7
26 0 11 -17 12 -24 1z"/>
<path d="M2436 2963 c-6 -14 -5 -15 5 -6 7 7 10 15 7 18 -3 3 -9 -2 -12 -12z"/>
<path d="M693 2963 c9 -2 23 -2 30 0 6 3 -1 5 -18 5 -16 0 -22 -2 -12 -5z"/>
<path d="M758 2953 c7 -3 16 -2 19 1 4 3 -2 6 -13 5 -11 0 -14 -3 -6 -6z"/>
<path d="M1233 2953 c9 -2 25 -2 35 0 9 3 1 5 -18 5 -19 0 -27 -2 -17 -5z"/>
<path d="M2233 2924 c0 -14 0 -24 1 -22 1 2 9 12 18 23 16 20 16 21 -1 22 -13
1 -18 -5 -18 -23z"/>
<path d="M1345 2930 c-3 -5 -3 -10 2 -11 4 0 -1 -4 -12 -9 -11 -4 -33 -6 -50
-4 l-30 4 28 -9 c16 -5 34 -15 41 -21 13 -10 19 -1 31 48 4 15 -1 16 -10 2z"/>
<path d="M2347 2917 c-21 -33 -91 -174 -80 -162 11 12 103 185 99 185 -2 0
-10 -10 -19 -23z"/>
<path d="M1123 2923 c9 -2 25 -2 35 0 9 3 1 5 -18 5 -19 0 -27 -2 -17 -5z"/>
<path d="M1916 2917 c3 -10 9 -15 12 -12 3 3 0 11 -7 18 -10 9 -11 8 -5 -6z"/>
<path d="M695 2910 c-27 -7 -27 -8 -5 -8 14 0 36 4 50 8 20 6 21 8 5 8 -11 0
-33 -4 -50 -8z"/>
<path d="M1198 2913 c12 -2 30 -2 40 0 9 3 -1 5 -23 4 -22 0 -30 -2 -17 -4z"/>
<path d="M623 2893 c9 -2 23 -2 30 0 6 3 -1 5 -18 5 -16 0 -22 -2 -12 -5z"/>
<path d="M1128 2893 c6 -2 18 -2 25 0 6 3 1 5 -13 5 -14 0 -19 -2 -12 -5z"/>
<path d="M2028 2888 c5 -7 12 -22 15 -33 3 -13 5 -9 6 13 1 23 -3 32 -15 32
-12 0 -14 -3 -6 -12z"/>
<path d="M568 2883 c6 -2 18 -2 25 0 6 3 1 5 -13 5 -14 0 -19 -2 -12 -5z"/>
<path d="M1178 2883 c7 -3 16 -2 19 1 4 3 -2 6 -13 5 -11 0 -14 -3 -6 -6z"/>
<path d="M1932 2881 c2 -8 9 -22 15 -30 39 -50 43 -52 22 -16 -26 47 -42 66
-37 46z"/>
<path d="M470 2868 c-25 -6 -40 -12 -35 -14 6 -2 35 3 65 10 64 16 37 19 -30
4z"/>
<path d="M1218 2873 c6 -2 18 -2 25 0 6 3 1 5 -13 5 -14 0 -19 -2 -12 -5z"/>
<path d="M1260 2866 c0 -2 11 -6 25 -8 14 -3 25 -1 25 3 0 5 -11 9 -25 9 -14
0 -25 -2 -25 -4z"/>
<path d="M1338 2858 c-19 -5 -18 -6 10 -7 18 -1 42 -6 53 -11 13 -7 19 -7 19
0 0 5 0 13 0 18 0 9 -51 9 -82 0z"/>
<path d="M2980 2855 c0 -8 4 -15 10 -15 5 0 7 7 4 15 -4 8 -8 15 -10 15 -2 0
-4 -7 -4 -15z"/>
<path d="M404 2849 c-3 -6 -17 -9 -30 -6 -27 5 -26 5 -18 -16 5 -13 9 -13 35
1 16 10 29 20 29 25 0 10 -8 9 -16 -4z"/>
<path d="M2205 2830 c-4 -17 -5 -34 -2 -36 2 -3 7 10 11 27 8 42 0 50 -9 9z"/>
<path d="M2557 2818 c-17 -18 -17 -18 10 -12 35 9 36 9 21 21 -9 7 -18 4 -31
-9z"/>
<path d="M635 2820 c-3 -6 1 -7 9 -4 18 7 21 14 7 14 -6 0 -13 -4 -16 -10z"/>
<path d="M670 2794 c-60 -40 -94 -69 -45 -39 82 50 115 75 102 75 -1 0 -27
-16 -57 -36z"/>
<path d="M724 2768 c-33 -35 -81 -91 -107 -125 -26 -34 -52 -63 -59 -65 -7 -3
-2 -7 10 -10 16 -5 22 -2 22 11 0 20 79 122 153 199 28 28 49 52 46 52 -3 0
-33 -28 -65 -62z"/>
<path d="M2051 2820 c0 -8 4 -24 9 -35 5 -13 9 -14 9 -5 0 8 -4 24 -9 35 -5
13 -9 14 -9 5z"/>
<path d="M1100 2816 c0 -2 14 -14 30 -26 17 -12 30 -19 30 -16 0 2 -13 14 -30
26 -16 12 -30 19 -30 16z"/>
<path d="M1343 2795 c-3 -9 -3 -18 -1 -21 3 -3 8 4 11 16 6 23 -1 27 -10 5z"/>
<path d="M1881 2796 c-9 -11 -7 -15 8 -19 14 -3 17 0 14 14 -6 23 -7 23 -22 5z"/>
<path d="M585 2790 c-3 -5 -18 -10 -33 -11 -15 0 -21 -3 -14 -6 6 -2 12 -11
12 -19 0 -9 5 -12 11 -9 6 4 8 9 5 12 -3 3 5 14 17 24 12 10 19 18 15 19 -4 0
-10 -4 -13 -10z"/>
<path d="M2133 2745 c0 -33 2 -45 4 -27 2 18 2 45 0 60 -2 15 -4 0 -4 -33z"/>
<path d="M2448 2750 c-43 -27 -78 -52 -78 -54 0 -3 32 15 72 41 39 25 77 46
84 46 7 0 11 4 8 9 -7 11 1 14 -86 -42z"/>
<path d="M2005 2764 c10 -17 26 -41 37 -55 l20 -24 -17 31 c-10 17 -26 41 -37
55 l-20 24 17 -31z"/>
<path d="M1713 2761 c-10 -16 -9 -19 12 -17 19 1 21 4 12 16 -6 8 -12 16 -12
17 0 1 -6 -6 -12 -16z"/>
<path d="M2192 2760 c0 -14 2 -19 5 -12 2 6 2 18 0 25 -3 6 -5 1 -5 -13z"/>
<path d="M1170 2766 c0 -3 9 -10 20 -16 11 -6 20 -8 20 -6 0 3 -9 10 -20 16
-11 6 -20 8 -20 6z"/>
<path d="M1400 2756 c0 -2 7 -7 16 -10 8 -3 12 -2 9 4 -6 10 -25 14 -25 6z"/>
<path d="M961 2734 c0 -11 3 -14 6 -6 3 7 2 16 -1 19 -3 4 -6 -2 -5 -13z"/>
<path d="M1759 2733 c-7 -10 -10 -15 -5 -11 5 4 18 3 30 -3 19 -9 19 -9 4 4
-10 8 -15 17 -11 20 3 4 4 7 1 7 -3 0 -12 -8 -19 -17z"/>
<path d="M557 2724 c-15 -8 -32 -12 -37 -9 -6 3 -9 -5 -8 -19 l2 -24 21 21
c12 12 30 27 41 34 27 17 14 15 -19 -3z"/>
<path d="M1234 2726 c7 -6 16 -17 18 -25 2 -8 8 -5 15 10 9 22 8 24 -18 25
-23 1 -26 -1 -15 -10z"/>
<path d="M2246 2723 c-6 -14 -5 -15 5 -6 7 7 10 15 7 18 -3 3 -9 -2 -12 -12z"/>
<path d="M1950 2727 c0 -2 15 -16 33 -33 l32 -29 -29 33 c-28 30 -36 37 -36
29z"/>
<path d="M2182 2710 c0 -14 2 -19 5 -12 2 6 2 18 0 25 -3 6 -5 1 -5 -13z"/>
<path d="M2765 2720 c-16 -7 -17 -9 -3 -9 9 -1 20 4 23 9 7 11 7 11 -20 0z"/>
<path d="M913 2640 c0 -41 2 -58 4 -37 2 20 2 54 0 75 -2 20 -4 3 -4 -38z"/>
<path d="M1810 2705 c0 -5 68 -35 79 -35 8 1 -61 39 -71 40 -5 0 -8 -2 -8 -5z"/>
<path d="M971 2684 c0 -11 3 -14 6 -6 3 7 2 16 -1 19 -3 4 -6 -2 -5 -13z"/>
<path d="M2465 2670 c-18 -8 -17 -9 8 -9 16 -1 26 3 22 9 -3 6 -7 10 -8 9 -1
0 -11 -4 -22 -9z"/>
<path d="M1920 2655 c14 -8 30 -14 35 -14 6 0 -1 6 -15 14 -14 8 -29 14 -35
14 -5 0 1 -6 15 -14z"/>
<path d="M2035 2650 c10 -11 20 -20 23 -20 3 0 -3 9 -13 20 -10 11 -20 20 -23
20 -3 0 3 -9 13 -20z"/>
<path d="M2295 2644 l-30 -26 33 22 c17 12 32 23 32 26 0 7 -4 5 -35 -22z"/>
<path d="M981 2644 c0 -11 3 -14 6 -6 3 7 2 16 -1 19 -3 4 -6 -2 -5 -13z"/>
<path d="M2370 2640 c-8 -5 -10 -10 -5 -10 6 0 17 5 25 10 8 5 11 10 5 10 -5
0 -17 -5 -25 -10z"/>
<path d="M762 2620 c-10 -17 -10 -20 3 -20 8 0 15 9 15 20 0 11 -1 20 -3 20
-1 0 -8 -9 -15 -20z"/>
<path d="M2320 2620 c-8 -5 -10 -10 -5 -10 6 0 17 5 25 10 8 5 11 10 5 10 -5
0 -17 -5 -25 -10z"/>
<path d="M1800 2603 c0 -17 5 -19 28 -15 16 3 21 7 12 10 -8 3 -21 9 -27 15
-10 7 -13 4 -13 -10z"/>
<path d="M2525 2610 l-40 -7 36 -2 c19 0 39 -5 45 -11 6 -6 10 -3 10 10 0 11
-3 19 -6 19 -3 -1 -23 -5 -45 -9z"/>
<path d="M3285 2609 c-4 -6 -5 -12 -2 -15 2 -3 7 2 10 11 7 17 1 20 -8 4z"/>
<path d="M2403 2593 c9 -2 25 -2 35 0 9 3 1 5 -18 5 -19 0 -27 -2 -17 -5z"/>
<path d="M990 2580 c0 -5 7 -10 15 -10 8 0 15 5 15 10 0 6 -7 10 -15 10 -8 0
-15 -4 -15 -10z"/>
<path d="M1908 2583 c18 -2 45 -2 60 0 15 2 0 4 -33 4 -33 0 -45 -2 -27 -4z"/>
<path d="M2318 2583 c6 -2 18 -2 25 0 6 3 1 5 -13 5 -14 0 -19 -2 -12 -5z"/>
<path d="M896 2515 c-4 -24 -12 -47 -18 -51 -7 -4 -6 -9 3 -14 17 -11 39 -1
39 19 0 14 -2 14 -11 1 -7 -11 -8 0 -4 38 8 63 0 70 -9 7z"/>
<path d="M2008 2543 c7 -3 16 -2 19 1 4 3 -2 6 -13 5 -11 0 -14 -3 -6 -6z"/>
<path d="M2348 2533 c7 -3 16 -2 19 1 4 3 -2 6 -13 5 -11 0 -14 -3 -6 -6z"/>
<path d="M1898 2523 c6 -2 18 -2 25 0 6 3 1 5 -13 5 -14 0 -19 -2 -12 -5z"/>
<path d="M2388 2523 c6 -2 18 -2 25 0 6 3 1 5 -13 5 -14 0 -19 -2 -12 -5z"/>
<path d="M1708 2498 c3 -14 8 -16 15 -9 6 6 31 11 57 12 55 1 43 6 -26 12 -47
3 -51 2 -46 -15z"/>
<path d="M1843 2513 c9 -2 23 -2 30 0 6 3 -1 5 -18 5 -16 0 -22 -2 -12 -5z"/>
<path d="M2438 2513 c6 -2 18 -2 25 0 6 3 1 5 -13 5 -14 0 -19 -2 -12 -5z"/>
<path d="M2488 2503 c7 -3 16 -2 19 1 4 3 -2 6 -13 5 -11 0 -14 -3 -6 -6z"/>
<path d="M2528 2493 c7 -3 16 -2 19 1 4 3 -2 6 -13 5 -11 0 -14 -3 -6 -6z"/>
<path d="M2610 2468 c14 -5 30 -15 35 -22 9 -11 13 -10 21 8 9 20 7 21 -36 22
-38 1 -41 0 -20 -8z"/>
<path d="M1330 2451 c0 -6 4 -13 10 -16 6 -3 7 1 4 9 -7 18 -14 21 -14 7z"/>
<path d="M2280 2457 c0 -2 15 -16 33 -33 l32 -29 -29 33 c-28 30 -36 37 -36
29z"/>
<path d="M1908 2414 c-38 -20 -36 -28 2 -9 17 9 30 18 30 20 0 7 -1 6 -32 -11z"/>
<path d="M2462 2410 c7 -11 16 -20 20 -20 15 0 8 15 -12 28 -19 12 -20 11 -8
-8z"/>
<path d="M990 2385 c13 -14 26 -25 28 -25 3 0 -5 11 -18 25 -13 14 -26 25 -28
25 -3 0 5 -11 18 -25z"/>
<path d="M1838 2378 c9 -9 15 -9 24 0 9 9 7 12 -12 12 -19 0 -21 -3 -12 -12z"/>
<path d="M2375 2348 c22 -27 41 -48 43 -48 7 0 -36 56 -59 75 -12 11 -5 -1 16
-27z"/>
<path d="M726 2343 c-6 -14 -5 -15 5 -6 7 7 10 15 7 18 -3 3 -9 -2 -12 -12z"/>
<path d="M1123 2345 c-3 -9 -3 -18 -1 -21 3 -3 8 4 11 16 6 23 -1 27 -10 5z"/>
<path d="M2261 2335 c1 -19 18 -51 18 -35 0 8 -4 22 -9 30 -5 8 -9 11 -9 5z"/>
<path d="M1077 2315 c6 -17 25 -15 31 3 2 7 -5 12 -17 12 -14 0 -19 -5 -14
-15z"/>
<path d="M1084 2155 c0 -77 2 -107 3 -67 2 40 2 103 0 140 -2 37 -3 4 -3 -73z"/>
<path d="M2437 2260 c10 -19 19 -37 21 -39 1 -3 6 0 10 5 5 5 -5 23 -20 39
l-29 30 18 -35z"/>
<path d="M2277 2266 c-4 -10 -1 -13 8 -9 8 3 12 9 9 14 -7 12 -11 11 -17 -5z"/>
<path d="M823 2262 c-9 -6 -7 -11 7 -19 14 -10 19 -9 23 1 9 23 -7 32 -30 18z"/>
<path d="M2060 2250 c-13 -8 -12 -10 3 -10 9 0 17 5 17 10 0 12 -1 12 -20 0z"/>
<path d="M850 2215 c0 -19 145 -265 157 -265 3 0 -3 12 -13 28 -45 68 -124
207 -124 218 0 7 -4 16 -10 19 -5 3 -10 3 -10 0z"/>
<path d="M2160 2184 c0 -14 4 -23 9 -20 5 3 7 15 4 26 -7 28 -13 25 -13 -6z"/>
<path d="M973 2167 c8 -7 17 -21 20 -32 3 -14 5 -10 6 10 1 25 -3 31 -20 32
-18 2 -19 0 -6 -10z"/>
<path d="M1186 2165 c-3 -9 -6 -22 -5 -28 0 -7 5 -1 10 12 5 13 8 26 5 28 -2
2 -6 -3 -10 -12z"/>
<path d="M2157 2143 c-13 -13 -7 -21 13 -16 11 3 17 9 14 14 -6 11 -18 12 -27
2z"/>
<path d="M1165 2090 c-4 -17 -5 -34 -2 -36 2 -3 7 10 11 27 8 42 0 50 -9 9z"/>
<path d="M1001 2084 c0 -11 3 -14 6 -6 3 7 2 16 -1 19 -3 4 -6 -2 -5 -13z"/>
<path d="M821 2066 c-11 -13 -11 -16 0 -16 8 0 19 -8 25 -18 7 -10 40 -42 75
-71 l64 -53 -67 63 c-38 35 -72 75 -76 87 -7 21 -9 22 -21 8z"/>
<path d="M5330 2073 c0 -12 17 -26 36 -29 6 -1 11 5 11 13 0 8 -6 12 -15 8 -9
-3 -19 0 -24 7 -5 9 -8 10 -8 1z"/>
<path d="M642 2040 c-10 -17 -10 -20 5 -20 10 0 29 -9 43 -20 14 -11 29 -20
35 -20 5 0 -7 11 -27 25 -20 14 -38 32 -40 40 -2 13 -5 12 -16 -5z"/>
<path d="M1214 1999 c-14 -28 -24 -53 -22 -55 2 -2 16 21 31 51 15 30 25 55
22 55 -3 0 -16 -23 -31 -51z"/>
<path d="M1151 2024 c0 -11 3 -14 6 -6 3 7 2 16 -1 19 -3 4 -6 -2 -5 -13z"/>
<path d="M5124 2015 c-9 -19 -9 -25 3 -29 8 -3 11 -11 7 -17 -4 -7 -3 -9 4 -5
6 4 31 -35 64 -98 29 -58 54 -103 56 -101 3 2 -23 57 -57 121 -34 65 -60 123
-57 130 9 24 -9 23 -20 -1z"/>
<path d="M5550 2008 c0 -17 2 -18 15 -8 8 7 15 14 15 15 0 2 -7 5 -15 9 -10 4
-15 -1 -15 -16z"/>
<path d="M5361 1994 c0 -11 3 -14 6 -6 3 7 2 16 -1 19 -3 4 -6 -2 -5 -13z"/>
<path d="M1141 1984 c0 -11 3 -14 6 -6 3 7 2 16 -1 19 -3 4 -6 -2 -5 -13z"/>
<path d="M740 1975 c0 -7 61 -37 66 -33 2 3 -12 12 -31 21 -19 9 -35 15 -35
12z"/>
<path d="M5240 1974 c0 -3 7 -12 15 -20 13 -14 15 -13 15 5 0 12 -6 21 -15 21
-8 0 -15 -3 -15 -6z"/>
<path d="M5535 1969 c-4 -6 -5 -12 -2 -15 2 -3 7 2 10 11 7 17 1 20 -8 4z"/>
<path d="M1092 1928 c-3 -48 -21 -53 -55 -14 -19 22 -25 25 -21 11 4 -11 14
-29 23 -40 16 -19 16 -19 -14 -1 l-30 19 24 -26 24 -26 -53 19 c-66 24 -78 19
-16 -6 42 -17 60 -34 37 -34 -5 0 -11 -9 -14 -21 -4 -16 -12 -20 -34 -16 -15
2 -22 2 -16 0 8 -3 2 -14 -15 -29 -22 -21 -23 -23 -5 -15 33 17 41 12 15 -8
-31 -27 -5 -34 33 -9 28 18 28 17 -5 -14 -19 -18 -42 -42 -50 -52 -13 -18 -13
-19 0 -11 8 5 30 20 48 33 18 14 35 22 39 18 3 -3 13 0 21 7 9 6 4 -8 -10 -33
-57 -100 -148 -283 -207 -420 -35 -80 -75 -167 -89 -195 -14 -27 -26 -54 -26
-60 -1 -12 -8 -29 -91 -230 -69 -167 -77 -187 -80 -197 -2 -5 -3 -9 -4 -10 -1
-2 -12 -32 -25 -68 -12 -36 -27 -64 -32 -63 -5 1 -9 -11 -10 -25 0 -15 -19
-76 -41 -137 -23 -60 -55 -147 -71 -192 l-31 -83 34 0 c27 0 34 4 40 27 3 15
45 131 92 257 47 127 91 247 98 266 7 19 18 36 24 38 13 4 -1 -38 -24 -71 -23
-32 -19 -54 5 -26 18 23 19 23 20 4 1 -14 7 -8 20 20 10 22 19 38 19 35 1 -3
-6 -59 -14 -125 -9 -66 -18 -189 -22 -272 -6 -147 -5 -153 13 -153 19 0 21 13
32 218 13 226 27 326 43 301 5 -8 9 -25 10 -39 1 -19 2 -21 6 -6 3 13 7 15 12
7 4 -7 6 13 3 44 -2 30 -2 55 2 55 10 0 51 -44 49 -52 -2 -5 3 -7 9 -5 7 1 14
-7 16 -18 1 -12 13 -27 25 -34 21 -13 22 -13 5 6 -10 11 -18 28 -18 38 0 10
-11 33 -26 52 -14 18 -22 33 -18 33 3 0 2 6 -3 13 -6 6 -13 21 -17 31 -5 14
-3 17 6 10 7 -5 85 -7 173 -4 l160 6 -163 2 c-97 1 -161 6 -157 11 3 5 -4 11
-16 13 l-21 3 23 30 23 30 -27 -24 c-15 -14 -27 -21 -27 -17 0 5 -8 2 -17 -5
-15 -12 -16 -12 -10 3 3 10 2 20 -3 23 -6 4 -10 -3 -10 -14 0 -28 -20 -27 -21
2 -1 20 -2 20 -6 2 -3 -11 -9 -24 -15 -30 -11 -12 -8 -1 30 100 15 39 30 72
34 73 5 2 8 12 8 23 0 10 11 42 24 71 14 29 42 98 64 153 60 149 68 166 75
160 4 -3 5 -2 3 1 -13 18 151 358 184 384 4 3 10 12 13 20 3 8 6 -5 6 -30 1
-33 4 -41 11 -30 7 10 10 -15 10 -80 0 -52 3 -113 7 -134 4 -28 3 -37 -5 -32
-7 4 -12 2 -12 -3 0 -6 9 -11 21 -11 16 0 19 4 13 18 -4 9 -9 73 -12 142 -3
98 0 133 12 160 14 33 16 33 22 13 7 -27 24 -31 24 -6 0 15 2 14 15 -4 8 -11
13 -37 11 -58 -2 -33 -1 -35 11 -19 16 22 17 88 2 116 -10 18 -8 25 10 39 20
17 20 18 4 28 -15 9 -14 11 12 12 l30 1 -30 13 c-24 11 -26 14 -10 15 18 1 17
2 -5 15 -14 8 -19 14 -12 15 6 0 12 5 12 11 0 6 -7 8 -17 5 -10 -4 5 17 32 46
l50 53 -50 -45 c-27 -25 -53 -49 -57 -55 -11 -15 -10 9 2 41 9 24 9 25 -5 14
-8 -7 -15 -19 -15 -26 0 -8 -6 -14 -14 -14 -11 0 -13 11 -10 43 l4 42 -11 -37
c-6 -21 -15 -38 -19 -38 -5 0 -11 17 -13 38 l-4 37 -1 -37z"/>
<path d="M5330 1956 c0 -2 7 -7 16 -10 8 -3 12 -2 9 4 -6 10 -25 14 -25 6z"/>
<path d="M5427 1934 c3 -9 9 -12 12 -7 3 4 10 11 15 16 5 4 0 7 -12 7 -15 0
-20 -4 -15 -16z"/>
<path d="M850 1920 c19 -11 40 -19 45 -19 6 0 -6 8 -25 19 -19 11 -39 19 -45
19 -5 0 6 -8 25 -19z"/>
<path d="M1455 1931 c-6 -5 -19 -11 -30 -14 -11 -2 -4 -4 17 -4 26 0 35 4 31
14 -6 15 -6 16 -18 4z"/>
<path d="M5494 1898 c-40 -65 -41 -66 -19 -41 24 27 58 83 51 83 -3 0 -18 -19
-32 -42z"/>
<path d="M1050 1923 c0 -4 5 -15 10 -23 8 -13 10 -13 10 2 0 9 -4 20 -10 23
-5 3 -10 3 -10 -2z"/>
<path d="M5271 1914 c0 -11 3 -14 6 -6 3 7 2 16 -1 19 -3 4 -6 -2 -5 -13z"/>
<path d="M5353 1895 c0 -22 2 -30 4 -17 2 12 2 30 0 40 -3 9 -5 -1 -4 -23z"/>
<path d="M730 1869 c0 -23 3 -26 28 -21 17 3 21 7 12 10 -8 3 -20 12 -27 21
-11 14 -12 12 -13 -10z"/>
<path d="M5282 1870 c0 -14 2 -19 5 -12 2 6 2 18 0 25 -3 6 -5 1 -5 -13z"/>
<path d="M5069 1863 c-12 -15 -12 -16 2 -11 9 4 23 1 30 -5 9 -9 9 -6 -1 8 -8
11 -15 21 -16 23 -1 1 -7 -5 -15 -15z"/>
<path d="M1260 1860 c-8 -5 -10 -10 -5 -10 6 0 17 5 25 10 8 5 11 10 5 10 -5
0 -17 -5 -25 -10z"/>
<path d="M1540 1861 c0 -5 -10 -12 -22 -14 l-23 -4 23 -2 c13 0 20 -5 17 -11
-8 -13 5 -13 25 0 12 7 12 10 1 10 -7 0 -11 6 -7 15 3 8 1 15 -4 15 -6 0 -10
-4 -10 -9z"/>
<path d="M4950 1860 c-8 -6 -13 -10 -10 -11 23 -3 61 -7 59 -6 -2 2 -11 8 -19
14 -10 8 -21 9 -30 3z"/>
<path d="M5550 1860 c0 -5 7 -10 16 -10 8 0 12 5 9 10 -3 6 -10 10 -16 10 -5
0 -9 -4 -9 -10z"/>
<path d="M803 1843 c9 -2 25 -2 35 0 9 3 1 5 -18 5 -19 0 -27 -2 -17 -5z"/>
<path d="M5675 1823 c-29 -25 -29 -25 -2 -9 15 9 32 14 37 11 6 -3 10 -2 10 4
0 20 -16 18 -45 -6z"/>
<path d="M690 1830 c11 -7 12 -10 2 -10 -10 0 -9 -4 2 -16 9 -8 14 -20 11 -25
-4 -5 -1 -9 4 -9 6 0 11 4 11 9 0 5 8 12 18 14 12 3 10 5 -7 6 -13 0 -21 4
-18 8 9 8 -12 33 -27 33 -6 0 -4 -5 4 -10z"/>
<path d="M913 1833 c15 -2 37 -2 50 0 12 2 0 4 -28 4 -27 0 -38 -2 -22 -4z"/>
<path d="M5004 1827 c-4 -6 -3 -9 1 -5 5 5 28 -4 53 -18 25 -15 42 -21 38 -15
-4 6 -25 20 -46 31 -30 15 -41 17 -46 7z"/>
<path d="M5175 1780 c33 -33 62 -60 64 -60 3 0 -21 27 -54 60 -33 33 -62 60
-64 60 -3 0 21 -27 54 -60z"/>
<path d="M5292 1815 c0 -16 2 -22 5 -12 2 9 2 23 0 30 -3 6 -5 -1 -5 -18z"/>
<path d="M5342 1805 c0 -16 2 -22 5 -12 2 9 2 23 0 30 -3 6 -5 -1 -5 -18z"/>
<path d="M863 1813 c15 -2 39 -2 55 0 15 2 2 4 -28 4 -30 0 -43 -2 -27 -4z"/>
<path d="M620 1799 c0 -5 5 -7 10 -4 6 3 10 8 10 11 0 2 -4 4 -10 4 -5 0 -10
-5 -10 -11z"/>
<path d="M773 1803 c9 -2 25 -2 35 0 9 3 1 5 -18 5 -19 0 -27 -2 -17 -5z"/>
<path d="M5615 1790 c-3 -6 1 -7 9 -4 18 7 21 14 7 14 -6 0 -13 -4 -16 -10z"/>
<path d="M878 1783 c6 -2 18 -2 25 0 6 3 1 5 -13 5 -14 0 -19 -2 -12 -5z"/>
<path d="M1278 1783 c6 -2 18 -2 25 0 6 3 1 5 -13 5 -14 0 -19 -2 -12 -5z"/>
<path d="M5469 1773 c-13 -16 -12 -17 4 -4 16 13 21 21 13 21 -2 0 -10 -8 -17
-17z"/>
<path d="M823 1773 c9 -2 23 -2 30 0 6 3 -1 5 -18 5 -16 0 -22 -2 -12 -5z"/>
<path d="M623 1755 c4 -10 73 -8 142 4 29 5 14 7 -52 7 -57 -1 -92 -5 -90 -11z"/>
<path d="M5390 1745 c-7 -8 -16 -12 -21 -9 -5 3 -12 -3 -16 -13 -6 -16 -8 -15
-14 7 l-7 25 -1 -24 c-1 -24 -1 -24 -16 -5 -14 18 -14 18 -15 0 0 -16 -2 -17
-17 -5 -15 12 -16 12 -10 -5 6 -14 4 -17 -8 -12 -8 3 -15 1 -15 -5 0 -6 -4 -8
-9 -5 -5 3 -11 -3 -14 -14 -3 -10 0 -21 7 -24 6 -2 3 -5 -6 -5 -9 -1 -20 -6
-24 -13 -5 -8 0 -9 15 -5 18 4 20 3 10 -9 -8 -10 -8 -18 -1 -27 7 -8 7 -18 2
-27 -14 -21 -12 -100 1 -100 7 0 9 9 6 23 -4 14 1 31 14 47 12 14 18 20 16 15
-3 -6 -2 -17 4 -25 7 -12 9 -9 9 10 1 24 1 24 15 6 8 -11 16 -38 16 -60 2 -33
3 -36 6 -12 4 23 7 26 14 15 7 -9 8 -1 3 26 l-6 40 25 -34 c75 -98 311 -754
481 -1331 46 -160 57 -185 75 -188 13 -2 21 2 21 11 0 22 -132 456 -206 675
-127 378 -228 639 -311 807 l-45 90 32 -30 c24 -22 31 -25 26 -11 -6 18 -5 18
19 2 36 -24 31 -9 -12 32 -29 27 -31 31 -11 19 15 -9 32 -17 38 -17 18 0 11
17 -12 28 l-23 11 23 0 c13 1 32 -4 43 -9 13 -7 19 -7 19 0 0 5 -6 10 -12 11
-7 1 -2 4 12 9 18 5 11 7 -27 6 -39 -1 -56 4 -71 19 -17 18 -17 21 -3 33 14
12 14 13 -1 8 -10 -3 -18 -1 -18 4 0 6 -5 9 -11 8 -6 -2 -14 4 -16 12 -4 12
-2 12 5 2 7 -10 13 -7 26 12 18 28 16 35 -4 11z"/>
<path d="M1470 1740 c34 -11 60 -11 35 0 -11 5 -29 8 -40 8 -16 0 -15 -2 5 -8z"/>
<path d="M5026 1735 c-3 -8 -1 -15 4 -15 13 0 22 18 11 24 -5 3 -11 -1 -15 -9z"/>
<path d="M1530 1725 c0 -2 18 -9 40 -15 22 -6 48 -18 57 -28 10 -9 17 -15 16
-13 -1 2 2 12 8 22 7 15 6 17 -6 13 -8 -4 -33 1 -55 10 -41 16 -60 20 -60 11z"/>
<path d="M5620 1716 c0 -8 -8 -16 -17 -18 -13 -3 -11 -5 8 -9 22 -5 25 -3 21
18 -5 26 -12 31 -12 9z"/>
<path d="M618 1713 c7 -3 16 -2 19 1 4 3 -2 6 -13 5 -11 0 -14 -3 -6 -6z"/>
<path d="M1330 1716 c0 -3 9 -10 20 -16 11 -6 20 -8 20 -6 0 3 -9 10 -20 16
-11 6 -20 8 -20 6z"/>
<path d="M1282 1650 c119 -147 113 -140 79 -90 -17 25 -54 70 -82 100 l-51 55
54 -65z"/>
<path d="M933 1618 c-38 -46 -83 -101 -99 -123 -16 -22 -35 -45 -43 -51 -11
-9 -10 -12 7 -16 14 -4 19 -2 16 7 -5 12 68 113 154 214 24 28 42 51 39 51 -3
0 -36 -37 -74 -82z"/>
<path d="M874 1674 c-18 -14 -18 -15 4 -4 12 6 22 13 22 15 0 8 -5 6 -26 -11z"/>
<path d="M4960 1675 c0 -6 29 -8 77 -6 78 5 73 8 -25 13 -30 2 -52 -1 -52 -7z"/>
<path d="M5543 1683 c9 -2 23 -2 30 0 6 3 -1 5 -18 5 -16 0 -22 -2 -12 -5z"/>
<path d="M620 1659 c0 -5 5 -7 10 -4 6 3 10 8 10 11 0 2 -4 4 -10 4 -5 0 -10
-5 -10 -11z"/>
<path d="M5632 1655 c-20 -10 -21 -13 -7 -19 23 -8 22 -9 28 14 3 11 4 20 4
19 -1 -1 -12 -7 -25 -14z"/>
<path d="M5533 1653 c15 -2 37 -2 50 0 12 2 0 4 -28 4 -27 0 -38 -2 -22 -4z"/>
<path d="M765 1620 c4 -6 11 -8 16 -5 14 9 11 15 -7 15 -8 0 -12 -5 -9 -10z"/>
<path d="M5563 1623 c9 -2 25 -2 35 0 9 3 1 5 -18 5 -19 0 -27 -2 -17 -5z"/>
<path d="M5660 1621 l-35 -7 43 -5 c30 -3 42 -1 42 8 0 7 -3 12 -7 12 -5 -1
-24 -5 -43 -8z"/>
<path d="M1051 1604 c0 -11 3 -14 6 -6 3 7 2 16 -1 19 -3 4 -6 -2 -5 -13z"/>
<path d="M4988 1583 c7 -3 16 -2 19 1 4 3 -2 6 -13 5 -11 0 -14 -3 -6 -6z"/>
<path d="M5204 1568 l-19 -23 23 19 c12 11 22 21 22 23 0 8 -8 2 -26 -19z"/>
<path d="M1041 1564 c0 -11 3 -14 6 -6 3 7 2 16 -1 19 -3 4 -6 -2 -5 -13z"/>
<path d="M4870 1551 c0 -17 15 -19 28 -5 11 12 9 14 -8 14 -11 0 -20 -4 -20
-9z"/>
<path d="M5012 1518 c5 -15 28 -23 28 -10 0 5 -7 13 -16 16 -10 4 -14 1 -12
-6z"/>
<path d="M5464 1477 c21 -26 40 -47 43 -47 7 0 -56 78 -70 87 -6 4 6 -14 27
-40z"/>
<path d="M5565 1510 c3 -5 10 -10 16 -10 5 0 9 5 9 10 0 6 -7 10 -16 10 -8 0
-12 -4 -9 -10z"/>
<path d="M5124 1478 l-29 -33 33 29 c17 17 32 31 32 33 0 8 -8 1 -36 -29z"/>
<path d="M1230 1490 c0 -5 7 -7 15 -4 8 4 15 8 15 10 0 2 -7 4 -15 4 -8 0 -15
-4 -15 -10z"/>
<path d="M1001 1481 c-9 -6 -7 -10 8 -14 12 -3 21 -1 21 3 0 14 -15 19 -29 11z"/>
<path d="M5351 1474 c0 -11 3 -14 6 -6 3 7 2 16 -1 19 -3 4 -6 -2 -5 -13z"/>
<path d="M1414 1459 c0 -21 4 -23 25 -10 11 7 10 11 -6 19 -15 9 -19 7 -19 -9z"/>
<path d="M4993 1450 c1 -11 2 -20 4 -20 1 0 7 9 13 20 8 16 8 20 -4 20 -9 0
-14 -8 -13 -20z"/>
<path d="M5361 1434 c0 -11 3 -14 6 -6 3 7 2 16 -1 19 -3 4 -6 -2 -5 -13z"/>
<path d="M5079 1423 c-13 -16 -12 -17 4 -4 9 7 17 15 17 17 0 8 -8 3 -21 -13z"/>
<path d="M5186 1401 c-3 -5 1 -11 9 -15 8 -3 15 -1 15 4 0 13 -18 22 -24 11z"/>
<path d="M5302 1380 c0 -19 2 -27 5 -17 2 9 2 25 0 35 -3 9 -5 1 -5 -18z"/>
<path d="M5370 1396 c0 -9 5 -16 10 -16 6 0 10 4 10 9 0 6 -4 13 -10 16 -5 3
-10 -1 -10 -9z"/>
<path d="M5050 1385 c-7 -8 -20 -15 -29 -16 -12 0 -11 -2 4 -9 28 -12 37 -12
30 0 -4 6 -1 17 5 25 7 8 10 15 7 15 -2 0 -10 -7 -17 -15z"/>
<path d="M5534 1368 c0 -19 2 -20 28 -10 15 6 14 8 -5 18 -19 8 -23 7 -23 -8z"/>
<path d="M5291 1324 c0 -11 3 -14 6 -6 3 7 2 16 -1 19 -3 4 -6 -2 -5 -13z"/>
<path d="M1210 1306 c0 -2 8 -10 18 -17 15 -13 16 -12 3 4 -13 16 -21 21 -21
13z"/>
<path d="M5270 1290 c0 -5 6 -10 14 -10 8 0 18 5 21 10 3 6 -3 10 -14 10 -12
0 -21 -4 -21 -10z"/>
<path d="M520 1036 c0 -2 8 -10 18 -17 15 -13 16 -12 3 4 -13 16 -21 21 -21
13z"/>
<path d="M495 1003 c7 -16 17 -39 22 -52 8 -21 10 -22 16 -7 4 9 3 15 -2 11
-5 -3 -12 13 -16 35 -4 24 -12 40 -20 40 -12 0 -12 -4 0 -27z"/>
<path d="M5088 988 c7 -7 12 -21 12 -32 0 -25 5 -18 14 17 5 23 3 27 -16 27
-17 0 -19 -3 -10 -12z"/>
<path d="M615 963 c3 -8 5 -31 5 -50 0 -48 6 -39 12 18 4 35 2 46 -9 46 -8 0
-12 -6 -8 -14z"/>
<path d="M5265 944 c1 -13 5 -27 10 -31 4 -5 5 -2 1 5 -4 7 -1 15 8 18 21 8
20 21 -2 26 -13 4 -17 -1 -17 -18z"/>
<path d="M930 937 c0 -7 -8 -17 -18 -24 -10 -6 -38 -35 -61 -64 l-43 -54 48
50 c26 28 51 49 56 47 5 -1 7 2 3 7 -3 6 6 13 20 17 28 7 33 19 10 28 -8 3
-15 0 -15 -7z"/>
<path d="M4914 937 c-8 -8 -5 -21 9 -44 23 -40 33 -44 14 -5 -7 15 -12 35 -10
45 5 20 2 21 -13 4z"/>
<path d="M310 929 c-11 -6 -12 -9 -2 -9 7 0 25 -13 39 -30 13 -16 29 -30 35
-30 5 0 2 7 -6 16 -9 8 -14 20 -11 25 4 5 -1 6 -9 3 -10 -4 -16 -1 -16 9 0 21
-13 28 -30 16z"/>
<path d="M531 915 c0 -5 6 -21 14 -35 8 -14 14 -20 14 -15 0 6 -6 21 -14 35
-8 14 -14 21 -14 15z"/>
<path d="M813 913 c4 -3 1 -13 -6 -21 -11 -13 -9 -14 10 -2 22 14 22 30 1 30
-6 0 -8 -3 -5 -7z"/>
<path d="M5016 895 c4 -8 7 -15 9 -15 2 0 5 7 9 15 3 9 0 15 -9 15 -9 0 -12
-6 -9 -15z"/>
<path d="M5190 899 c0 -5 5 -7 10 -4 6 3 10 8 10 11 0 2 -4 4 -10 4 -5 0 -10
-5 -10 -11z"/>
<path d="M5245 899 c-4 -6 -5 -12 -2 -15 2 -3 7 2 10 11 7 17 1 20 -8 4z"/>
<path d="M456 891 c-3 -5 0 -11 7 -14 8 -3 14 1 14 9 0 16 -13 19 -21 5z"/>
<path d="M5103 855 c0 -27 2 -38 4 -22 2 15 2 37 0 50 -2 12 -4 0 -4 -28z"/>
<path d="M764 819 c-14 -28 -24 -53 -22 -55 2 -2 16 21 31 51 15 30 25 55 22
55 -3 0 -16 -23 -31 -51z"/>
<path d="M427 818 c68 -57 80 -64 28 -16 -27 26 -54 48 -58 48 -4 0 9 -14 30
-32z"/>
<path d="M4967 819 c10 -17 24 -36 32 -42 8 -7 2 7 -14 31 -32 49 -45 57 -18
11z"/>
<path d="M5216 833 c-6 -14 -5 -15 5 -6 7 7 10 15 7 18 -3 3 -9 -2 -12 -12z"/>
<path d="M570 825 c0 -5 5 -17 10 -25 5 -8 10 -10 10 -5 0 6 -5 17 -10 25 -5
8 -10 11 -10 5z"/>
<path d="M5275 820 c-3 -5 1 -10 10 -10 9 0 13 5 10 10 -3 6 -8 10 -10 10 -2
0 -7 -4 -10 -10z"/>
<path d="M692 790 c0 -19 2 -27 5 -17 2 9 2 25 0 35 -3 9 -5 1 -5 -18z"/>
<path d="M5347 807 c-3 -8 1 -14 9 -14 8 0 14 6 14 14 0 7 -4 13 -9 13 -5 0
-11 -6 -14 -13z"/>
<path d="M897 797 c-3 -8 1 -14 9 -14 16 0 19 13 5 21 -5 3 -11 0 -14 -7z"/>
<path d="M4907 804 c-3 -6 10 -26 31 -45 32 -30 34 -30 11 -4 -15 17 -28 37
-31 45 -3 8 -7 10 -11 4z"/>
<path d="M5196 795 c-9 -26 -7 -32 5 -12 6 10 9 21 6 23 -2 3 -7 -2 -11 -11z"/>
<path d="M520 796 c0 -2 8 -10 18 -17 15 -13 16 -12 3 4 -13 16 -21 21 -21 13z"/>
<path d="M4775 790 c-3 -5 1 -10 9 -10 9 0 16 5 16 10 0 6 -4 10 -9 10 -6 0
-13 -4 -16 -10z"/>
<path d="M367 783 c-11 -11 -8 -20 7 -20 8 0 12 6 9 14 -6 15 -7 15 -16 6z"/>
<path d="M784 768 l-19 -23 23 19 c21 18 27 26 19 26 -2 0 -12 -10 -23 -22z"/>
<path d="M990 761 c0 -5 -10 -12 -22 -14 -17 -3 -14 -5 9 -6 25 -1 31 2 27 14
-7 17 -14 20 -14 6z"/>
<path d="M4810 766 c0 -2 7 -7 16 -10 8 -3 12 -2 9 4 -6 10 -25 14 -25 6z"/>
<path d="M5456 749 c2 -4 -4 -9 -13 -12 -10 -2 -4 -4 14 -4 20 0 30 4 27 12
-3 6 -11 12 -19 12 -8 0 -12 -4 -9 -8z"/>
<path d="M434 736 c11 -9 24 -16 30 -16 12 0 7 5 -24 19 -24 11 -24 11 -6 -3z"/>
<path d="M809 733 c-13 -16 -12 -17 4 -4 9 7 17 15 17 17 0 8 -8 3 -21 -13z"/>
<path d="M530 736 c0 -2 8 -10 18 -17 15 -13 16 -12 3 4 -13 16 -21 21 -21 13z"/>
<path d="M5239 723 c-13 -16 -12 -17 4 -4 9 7 17 15 17 17 0 8 -8 3 -21 -13z"/>
<path d="M235 719 c-9 -14 -2 -20 14 -10 8 6 9 11 3 15 -6 3 -14 1 -17 -5z"/>
<path d="M4904 716 c11 -9 24 -16 30 -16 12 0 7 5 -24 19 -24 11 -24 11 -6 -3z"/>
<path d="M5115 696 c9 -30 -16 -38 -44 -13 l-24 22 17 -26 c14 -22 14 -26 1
-26 -8 0 -12 4 -9 9 3 4 -3 5 -12 1 -16 -6 -15 -7 1 -19 17 -12 17 -14 2 -20
-20 -7 -23 -25 -4 -22 6 2 11 -3 10 -9 -2 -7 2 -13 9 -13 6 0 4 -7 -5 -18 -10
-10 -17 -27 -16 -38 0 -17 1 -17 9 2 13 33 34 43 28 13 -3 -13 -9 -40 -12 -59
l-7 -35 15 30 c14 30 14 30 17 5 1 -18 4 -13 8 15 l7 40 7 -60 c17 -149 50
-384 59 -428 7 -36 14 -47 29 -47 10 0 19 2 19 3 0 2 -9 46 -20 98 -26 127
-40 224 -48 342 -6 82 -5 95 6 80 7 -10 11 -27 8 -38 -5 -19 -4 -19 8 -2 10
13 11 28 5 55 -12 53 -11 57 9 39 10 -10 26 -17 35 -17 9 0 17 -6 17 -14 0 -8
5 -18 11 -22 23 -14 -3 41 -32 69 -16 16 -27 33 -24 38 4 5 1 9 -6 9 -7 0 -4
7 7 16 18 15 18 15 0 10 -16 -5 -17 -4 -7 8 10 12 9 13 -8 9 -13 -3 -21 -1
-21 8 0 10 -3 10 -12 1 -9 -9 -15 -7 -25 6 -14 16 -14 16 -8 -2z"/>
<path d="M325 690 c19 -8 73 -14 64 -6 -2 2 -22 6 -44 9 -28 5 -34 4 -20 -3z"/>
<path d="M4950 696 c0 -3 9 -10 20 -16 11 -6 20 -8 20 -6 0 3 -9 10 -20 16
-11 6 -20 8 -20 6z"/>
<path d="M4850 677 c0 -10 8 -17 18 -17 9 0 13 4 7 8 -5 4 -13 11 -17 16 -5 5
-8 2 -8 -7z"/>
<path d="M408 673 c6 -2 18 -2 25 0 6 3 1 5 -13 5 -14 0 -19 -2 -12 -5z"/>
<path d="M478 663 c6 -2 18 -2 25 0 6 3 1 5 -13 5 -14 0 -19 -2 -12 -5z"/>
<path d="M1106 651 c-3 -5 1 -11 9 -15 9 -3 15 0 15 9 0 16 -16 20 -24 6z"/>
<path d="M5375 640 c3 -5 8 -10 11 -10 2 0 4 5 4 10 0 6 -5 10 -11 10 -5 0 -7
-4 -4 -10z"/>
<path d="M357 604 c2 -7 11 -10 19 -7 19 7 18 10 -5 16 -13 3 -18 1 -14 -9z"/>
<path d="M478 613 c7 -3 16 -2 19 1 4 3 -2 6 -13 5 -11 0 -14 -3 -6 -6z"/>
<path d="M408 603 c6 -2 18 -2 25 0 6 3 1 5 -13 5 -14 0 -19 -2 -12 -5z"/>
<path d="M868 603 c7 -3 16 -2 19 1 4 3 -2 6 -13 5 -11 0 -14 -3 -6 -6z"/>
<path d="M4750 587 c0 -9 13 -11 41 -9 47 5 47 7 -3 15 -26 4 -38 2 -38 -6z"/>
<path d="M4893 593 c9 -2 25 -2 35 0 9 3 1 5 -18 5 -19 0 -27 -2 -17 -5z"/>
<path d="M5277 589 c7 -7 15 -10 18 -7 3 3 -2 9 -12 12 -14 6 -15 5 -6 -5z"/>
<path d="M975 570 c4 -6 11 -8 16 -5 14 9 11 15 -7 15 -8 0 -12 -5 -9 -10z"/>
<path d="M430 545 c-14 -8 -20 -14 -15 -14 6 0 21 6 35 14 14 8 21 14 15 14
-5 0 -21 -6 -35 -14z"/>
<path d="M4955 550 c-3 -6 1 -7 9 -4 18 7 21 14 7 14 -6 0 -13 -4 -16 -10z"/>
<path d="M4955 494 c-33 -30 -70 -57 -82 -60 -13 -4 -23 -9 -23 -13 0 -20 14
-16 47 13 57 48 129 116 123 115 -3 0 -32 -25 -65 -55z"/>
<path d="M4870 521 c0 -5 5 -13 10 -16 6 -3 10 -2 10 4 0 5 -4 13 -10 16 -5 3
-10 2 -10 -4z"/>
<path d="M5430 519 c0 -5 5 -7 10 -4 6 3 10 8 10 11 0 2 -4 4 -10 4 -5 0 -10
-5 -10 -11z"/>
<path d="M307 503 c6 -16 12 -16 41 0 22 13 21 13 -12 13 -24 0 -32 -4 -29
-13z"/>
<path d="M965 470 c10 -11 20 -20 23 -20 3 0 -3 9 -13 20 -10 11 -20 20 -23
20 -3 0 3 -9 13 -20z"/>
<path d="M5310 479 c0 -5 5 -7 10 -4 6 3 10 8 10 11 0 2 -4 4 -10 4 -5 0 -10
-5 -10 -11z"/>
<path d="M588 455 c-3 -11 -9 -29 -13 -40 -3 -11 1 -7 10 8 9 16 15 33 12 40
-2 6 -6 3 -9 -8z"/>
<path d="M730 455 c0 -5 5 -17 10 -25 5 -8 10 -10 10 -5 0 6 -5 17 -10 25 -5
8 -10 11 -10 5z"/>
<path d="M1007 430 c6 -21 18 -26 28 -11 3 6 -3 15 -14 20 -16 9 -18 8 -14 -9z"/>
<path d="M690 412 c0 -16 -3 -37 -6 -46 -4 -10 -1 -16 8 -16 10 0 14 11 12 40
-2 49 -14 67 -14 22z"/>
<path d="M857 424 c3 -7 9 -14 14 -14 14 0 10 17 -5 23 -10 4 -13 1 -9 -9z"/>
<path d="M5082 410 c0 -19 2 -27 5 -17 2 9 2 25 0 35 -3 9 -5 1 -5 -18z"/>
<path d="M750 407 c0 -4 11 -30 25 -58 14 -27 23 -54 20 -59 -4 -6 3 -10 14
-10 12 0 21 5 21 10 0 6 -4 10 -10 10 -5 0 -23 26 -39 58 -17 31 -30 53 -31
49z"/>
<path d="M4986 395 c-16 -12 -17 -15 -4 -15 9 0 18 7 22 15 7 18 6 18 -18 0z"/>
<path d="M5180 390 c0 -5 5 -10 11 -10 5 0 7 5 4 10 -3 6 -8 10 -11 10 -2 0
-4 -4 -4 -10z"/>
<path d="M5261 385 c10 -11 19 -29 20 -39 3 -16 6 -17 15 -5 9 11 5 19 -20 39
-21 17 -26 18 -15 5z"/>
<path d="M551 344 c0 -11 3 -14 6 -6 3 7 2 16 -1 19 -3 4 -6 -2 -5 -13z"/>
<path d="M5068 307 c-2 -22 1 -34 9 -34 8 0 10 10 6 31 -8 42 -10 43 -15 3z"/>
<path d="M537 305 c-8 -20 -4 -29 11 -24 5 2 6 13 2 23 -6 19 -7 19 -13 1z"/>
</g>
</svg>
