<?xml version="1.0" standalone="no"?>
<!DOCTYPE svg PUBLIC "-//W3C//DTD SVG 20010904//EN"
 "http://www.w3.org/TR/2001/REC-SVG-20010904/DTD/svg10.dtd">
<svg version="1.0" xmlns="http://www.w3.org/2000/svg"
 width="189.000000pt" height="266.000000pt" viewBox="0 0 189.000000 266.000000"
 preserveAspectRatio="xMidYMid meet">

<g transform="translate(0.000000,266.000000) scale(0.100000,-0.100000)"
fill="#000000" stroke="none">
<path d="M0 1330 l0 -1330 945 0 945 0 0 1330 0 1330 -945 0 -945 0 0 -1330z
m843 836 c3 -8 16 -12 31 -11 18 2 26 -2 27 -13 0 -10 6 -6 13 12 8 18 16 24
20 17 4 -6 12 -9 17 -6 5 4 9 -4 9 -16 0 -19 2 -20 16 -8 9 7 23 14 32 15 8 2
18 8 22 14 5 8 9 4 13 -9 6 -25 27 -28 27 -3 0 14 2 15 10 2 9 -13 10 -13 10
0 0 12 2 13 9 1 5 -7 14 -10 20 -7 6 4 11 1 11 -6 0 -9 3 -9 10 2 8 12 10 10
10 -8 0 -13 4 -20 10 -17 6 3 10 0 10 -7 1 -7 7 -2 15 12 17 29 19 10 5 -38
l-9 -34 26 26 c28 28 43 33 43 14 0 -9 4 -8 10 2 9 13 11 13 20 0 5 -8 8 -21
5 -28 -3 -8 7 -5 24 7 18 13 29 16 28 8 -1 -41 3 -50 18 -37 12 10 15 10 15
-3 0 -8 7 -20 15 -27 9 -7 14 -19 11 -27 -7 -17 -1 -17 19 3 9 9 19 14 22 10
4 -3 1 -12 -5 -18 -17 -17 -15 -28 5 -21 10 4 14 2 10 -4 -8 -13 25 -12 35 2
12 17 20 -2 9 -22 -8 -16 -7 -20 7 -20 9 0 23 5 31 11 9 7 8 1 -3 -16 -18 -27
-18 -28 0 -29 11 0 14 -3 7 -6 -7 -2 -13 -9 -13 -14 0 -5 14 -2 31 6 17 9 33
14 36 12 2 -3 -5 -10 -16 -17 -12 -6 -21 -15 -21 -21 0 -6 5 -7 10 -4 6 4 17
1 25 -5 11 -9 12 -17 4 -32 -8 -15 -8 -19 0 -14 14 9 14 -4 1 -41 -10 -28 -10
-28 8 -7 13 15 23 19 37 13 11 -4 16 -8 10 -9 -5 -1 -1 -5 10 -9 19 -7 19 -8
-3 -27 -31 -26 -27 -34 9 -24 l31 9 -18 -21 c-15 -17 -16 -20 -3 -16 18 7 22
-19 6 -39 -7 -10 -4 -13 8 -13 17 0 17 -1 2 -18 -22 -24 -22 -36 -1 -28 14 5
15 4 5 -8 -7 -8 -22 -17 -34 -19 -12 -2 -2 -5 23 -7 39 -2 41 -3 16 -9 -16 -3
-31 -11 -33 -18 -3 -7 3 -10 15 -7 10 3 29 -4 43 -15 13 -12 20 -21 14 -20
-26 3 -46 -2 -40 -11 3 -5 -3 -10 -14 -10 -11 0 -23 -4 -26 -10 -8 -13 28 -13
41 0 6 6 21 6 39 1 24 -7 25 -9 8 -10 -31 -1 -54 -12 -47 -22 3 -5 0 -9 -5 -9
-20 0 -11 -17 15 -29 14 -6 31 -8 37 -4 7 3 4 -3 -6 -14 -9 -11 -14 -23 -10
-27 4 -4 -1 -4 -12 -1 -17 6 -18 5 -5 -7 21 -19 22 -58 1 -50 -14 5 -14 4 -1
-13 14 -17 13 -18 -25 -11 -34 5 -37 5 -20 -6 11 -6 31 -22 45 -35 l25 -23
-25 0 c-18 0 -21 -3 -12 -9 11 -7 10 -10 -3 -15 -9 -3 -26 -6 -37 -6 -20 0
-20 0 -1 -17 10 -10 14 -15 9 -10 -15 11 -28 8 -20 -4 4 -8 -1 -9 -17 -4 -19
5 -21 4 -9 -4 8 -6 26 -11 40 -12 25 0 25 0 3 -11 -12 -6 -24 -17 -27 -25 -3
-8 -2 -12 3 -9 4 3 16 -1 26 -8 16 -12 14 -13 -16 -9 -25 2 -29 1 -14 -5 18
-8 17 -9 -8 -14 -15 -3 -30 -1 -33 3 -3 5 -10 9 -16 9 -6 0 -6 -6 2 -15 7 -9
20 -13 29 -10 8 3 12 3 8 -1 -4 -4 -1 -14 6 -22 11 -13 9 -14 -13 -2 l-25 13
25 -28 25 -27 -37 22 c-43 25 -47 19 -19 -26 18 -30 18 -31 1 -27 -20 5 -45
-28 -32 -42 4 -5 1 -5 -5 -1 -8 4 -13 2 -13 -6 0 -9 -3 -9 -8 -2 -4 6 -16 13
-28 16 -19 5 -20 3 -10 -17 6 -13 13 -22 17 -20 3 2 6 -3 6 -12 0 -14 -3 -13
-16 3 -9 10 -25 26 -35 34 -19 15 -19 14 -2 -12 11 -18 14 -28 7 -28 -9 0 -9
-5 -1 -20 6 -12 8 -30 5 -40 -6 -19 -8 -19 -36 -5 -28 15 -29 15 -30 -7 l0
-23 -11 22 c-14 30 -42 31 -35 2 5 -20 5 -20 -14 -3 -18 16 -19 16 -19 -10 0
-15 7 -41 16 -59 l17 -32 -22 19 c-23 21 -27 16 -10 -17 12 -21 11 -22 -8 -4
-18 16 -22 16 -35 4 -10 -10 -20 -12 -30 -6 -13 7 -15 5 -11 -14 4 -18 3 -19
-6 -7 -9 13 -11 12 -11 -5 0 -17 -2 -17 -10 -5 -5 8 -10 11 -10 5 0 -5 -5 -3
-11 5 -8 12 -10 9 -6 -12 2 -16 0 -28 -4 -28 -5 0 -9 7 -9 17 0 15 -2 15 -19
-1 -11 -10 -24 -15 -30 -12 -5 3 -12 0 -14 -6 -3 -8 -6 -6 -6 4 -1 11 -6 15
-16 12 -10 -4 -15 0 -15 12 -1 17 -2 17 -13 -2 -11 -20 -13 -20 -26 -7 -13 14
-15 13 -23 -7 -8 -22 -9 -22 -22 -5 -11 15 -15 16 -22 4 -5 -8 -17 -15 -26
-15 -10 -1 -15 2 -12 7 3 5 0 9 -5 9 -6 0 -11 -10 -12 -22 -1 -21 -2 -20 -13
6 -8 18 -16 24 -20 17 -11 -18 -29 -13 -22 7 5 14 3 13 -10 -3 -11 -14 -18
-16 -21 -8 -3 9 -11 8 -29 -3 -25 -17 -33 -7 -11 15 10 10 8 11 -7 5 -13 -5
-17 -4 -12 4 3 6 -3 16 -14 22 -15 8 -20 8 -18 -1 2 -6 -2 -13 -9 -16 -6 -2
-13 4 -16 14 -3 15 -6 14 -15 -7 -8 -18 -11 -20 -11 -7 -1 21 -19 23 -27 2 -9
-23 -26 -18 -19 6 5 14 3 19 -3 15 -6 -3 -14 3 -17 14 -6 18 -9 19 -23 8 -13
-10 -13 -7 2 17 l19 30 -26 -18 c-32 -21 -51 -22 -44 -3 7 19 -13 26 -37 14
-16 -9 -18 -7 -14 10 6 20 5 21 -21 4 l-26 -17 19 30 19 30 -26 -18 c-20 -13
-25 -14 -21 -3 4 10 -8 21 -38 35 -24 11 -38 20 -31 21 6 0 11 9 10 19 -1 16
-5 18 -20 9 -16 -8 -17 -7 -8 10 8 15 7 19 -2 18 -6 0 -14 4 -15 9 -6 18 -24
35 -36 34 -6 -1 -18 -1 -26 0 -13 1 -13 2 0 11 13 8 12 10 -4 10 -18 0 -18 1
2 19 29 24 28 27 -10 36 -22 5 -27 9 -16 12 10 3 15 10 11 20 -3 8 0 19 8 25
10 7 6 8 -14 3 -26 -5 -27 -4 -17 15 9 16 8 20 -6 20 -10 0 -14 5 -10 15 3 8
0 15 -7 15 -7 0 -4 5 6 11 18 10 18 11 0 25 -17 12 -17 13 0 14 25 0 21 13
-11 32 -18 12 -22 18 -10 18 30 0 4 58 -32 73 -11 4 -10 6 5 7 18 1 18 2 -5
15 l-25 14 25 2 c14 1 18 3 10 5 -9 3 -21 14 -28 25 -12 19 -11 20 9 14 14 -5
19 -4 15 4 -4 6 -3 11 1 11 16 0 8 79 -10 100 -21 25 -22 34 -1 26 12 -5 15
-2 10 11 -4 9 -1 20 6 25 10 6 8 12 -7 24 -19 16 -19 16 12 12 26 -4 30 -2 22
9 -7 7 -8 13 -4 13 4 0 3 6 -2 13 -16 20 1 71 21 61 6 -3 3 1 -7 9 -21 18 -22
28 -2 20 9 -3 15 -2 14 3 -4 23 2 33 18 27 11 -4 14 -3 9 5 -10 17 16 52 38
52 16 0 17 3 8 12 -14 14 -16 32 -3 24 17 -11 19 19 2 38 -15 18 -15 18 7 7
22 -12 23 -11 18 6 -4 13 -2 20 8 20 9 0 13 -4 10 -9 -3 -4 2 -8 11 -8 14 0
14 3 1 28 -14 27 -7 67 8 44 3 -6 15 -10 26 -9 15 1 20 9 20 30 0 30 10 32 64
11 12 -4 16 0 16 16 0 11 4 19 9 16 5 -4 12 13 16 36 l7 41 20 -24 20 -24 -7
29 c-5 25 -4 28 9 17 12 -10 15 -8 18 11 2 16 9 5 21 -37 9 -33 15 -48 13 -32
-2 15 1 27 6 27 4 0 6 11 2 25 -4 15 -2 25 5 25 6 0 11 10 11 22 0 12 3 18 7
15 3 -4 12 -2 19 4 8 6 21 9 29 5 8 -3 15 0 15 6 0 7 5 6 15 -2 12 -10 15 -9
15 4 0 23 32 17 47 -9 11 -19 12 -18 13 10 0 23 3 27 10 15 8 -12 10 -11 10 8
0 24 25 31 33 8z"/>
<path d="M981 2084 c0 -11 3 -14 6 -6 3 7 2 16 -1 19 -3 4 -6 -2 -5 -13z"/>
<path d="M815 1871 c5 -26 4 -32 -5 -26 -10 6 -11 1 -5 -21 4 -16 9 -49 10
-74 l2 -45 -13 30 c-7 17 -11 42 -8 57 3 14 2 28 -3 31 -4 3 -8 -8 -9 -24 -2
-40 -10 -46 -36 -23 -12 10 -18 13 -14 7 4 -7 5 -13 2 -13 -3 0 -12 12 -20 28
l-15 27 4 -38 c5 -37 43 -120 86 -184 11 -18 19 -33 16 -33 -3 0 -19 22 -36
49 -37 57 -68 81 -95 71 -16 -5 -10 -16 47 -75 37 -38 65 -70 64 -72 -2 -1
-25 20 -52 47 -27 28 -54 50 -59 50 -6 0 19 -30 54 -67 65 -68 30 -41 -67 52
-29 27 -53 44 -53 37 0 -7 -7 -12 -16 -12 -18 0 -10 -9 76 -83 25 -22 38 -36
30 -31 -8 4 -25 16 -37 27 -13 11 -26 17 -30 13 -5 -5 1 -13 11 -20 11 -6 31
-22 45 -36 24 -22 24 -25 7 -28 -11 -2 -28 7 -41 22 -12 14 -27 26 -34 26 -6
0 -11 5 -11 12 0 6 -3 9 -6 5 -4 -3 -19 0 -35 8 -15 8 -36 15 -45 15 -13 0
-11 -4 7 -18 13 -10 38 -24 54 -32 32 -16 62 -40 48 -40 -4 1 -19 7 -33 15
-14 8 -29 14 -33 15 -15 0 18 -27 40 -34 25 -8 49 -34 39 -43 -5 -5 -58 7
-104 24 -9 4 -13 2 -9 -4 4 -6 39 -19 77 -28 39 -10 69 -19 67 -21 -2 -3 -33
2 -68 11 -35 8 -72 15 -81 15 -23 0 -13 -26 13 -33 26 -7 24 -32 -3 -51 -21
-15 -19 -16 44 -16 37 0 70 5 73 10 8 13 42 13 51 -1 11 -18 -14 -26 -69 -23
-29 2 -44 1 -34 -2 29 -9 15 -37 -23 -47 -43 -11 -48 -16 -31 -26 8 -6 47 2
100 20 47 16 89 28 94 26 4 -1 -30 -16 -77 -32 -47 -16 -86 -33 -86 -37 0 -12
15 -10 66 12 26 11 49 18 52 16 3 -3 -6 -10 -19 -15 -97 -37 -110 -44 -97 -52
7 -5 23 -9 35 -9 18 0 22 -5 21 -26 -2 -19 -17 -38 -56 -66 -45 -34 -72 -69
-72 -96 0 -4 11 6 25 21 23 24 36 31 56 29 3 -1 21 15 40 35 24 25 28 34 15
29 -19 -7 -19 -6 -1 14 11 12 13 20 6 20 -7 0 -9 5 -6 11 4 6 13 8 21 5 8 -3
13 -1 11 5 -1 6 10 20 25 31 24 19 28 19 48 5 14 -9 17 -17 11 -22 -6 -3 -9
-10 -6 -15 3 -4 -17 -27 -45 -50 -58 -48 -64 -65 -17 -45 17 8 31 19 30 24 -2
6 3 8 11 5 7 -3 21 7 30 21 10 15 20 24 23 21 11 -10 -58 -85 -72 -79 -10 3
-15 -1 -15 -12 0 -10 5 -13 12 -9 6 4 4 -3 -5 -15 -14 -22 -14 -51 2 -51 8 0
44 26 72 53 11 10 22 31 26 47 3 17 10 30 15 30 5 0 6 10 3 21 -5 16 -3 20 6
17 8 -3 13 -12 11 -22 -2 -9 2 -16 8 -16 17 0 12 -30 -12 -68 -12 -20 -21 -49
-20 -69 1 -19 -5 -49 -14 -67 l-15 -31 19 22 c21 24 34 21 25 -5 -4 -10 -2
-14 3 -9 5 5 14 27 21 50 9 35 11 37 12 15 1 -16 6 -28 13 -28 7 0 6 -5 -4
-12 -9 -7 -18 -25 -22 -40 l-6 -27 25 25 c25 25 34 64 15 64 -5 0 -10 9 -10
20 0 11 6 20 14 20 8 0 17 6 20 13 3 6 4 -11 3 -39 -2 -32 2 -59 10 -70 7 -10
13 -14 13 -10 0 4 15 -7 33 -23 17 -17 35 -31 40 -31 9 0 8 99 -3 165 -4 28
-8 45 -9 38 0 -7 -8 -10 -17 -6 -9 3 -20 0 -25 -8 -6 -10 -9 -6 -9 14 0 25 8
31 37 28 6 -1 13 9 15 21 2 13 8 -5 12 -39 5 -39 13 -64 22 -67 12 -5 14 1 8
29 -3 19 -4 35 -2 35 4 0 25 -84 44 -179 6 -30 14 -22 24 23 7 31 5 36 -10 36
-14 0 -17 7 -15 33 2 17 3 43 4 56 1 24 1 24 16 5 20 -27 18 -4 -6 60 -21 58
-17 87 15 92 9 1 14 -1 11 -6 -3 -4 2 -11 11 -14 9 -4 14 -13 10 -21 -7 -20
47 -111 65 -108 8 2 19 -7 24 -19 7 -15 20 -23 39 -25 35 -2 57 -20 39 -31 -8
-5 -9 -13 -3 -22 9 -15 8 -17 25 37 6 18 -40 73 -62 73 -7 0 -10 6 -7 15 4 10
-5 21 -25 32 -30 18 -41 48 -20 55 7 2 4 10 -7 18 -11 9 -15 10 -10 3 4 -7 0
-23 -8 -35 -16 -22 -16 -21 -16 23 0 25 -5 50 -12 57 -7 7 -8 12 -2 12 5 0 27
-18 48 -39 35 -36 41 -38 67 -29 36 12 36 22 2 46 -29 20 -93 45 -93 36 0 -3
-10 2 -22 10 -28 20 -44 21 -28 1 7 -9 8 -15 2 -15 -14 0 -23 28 -12 35 6 3
17 2 26 -3 12 -7 22 -4 35 9 10 10 26 15 38 12 21 -5 30 -23 11 -23 -14 0 37
-48 69 -65 16 -8 32 -11 36 -7 3 4 5 0 3 -8 -2 -12 6 -14 37 -12 22 2 42 8 43
13 2 5 13 9 23 9 12 0 17 4 13 11 -3 6 -15 9 -25 6 -11 -3 -17 -2 -14 2 5 9
-92 51 -118 51 -9 0 -17 4 -17 8 0 4 -23 16 -50 26 -57 21 -61 35 -5 16 20 -7
52 -9 71 -6 25 5 34 3 32 -5 -4 -17 119 -61 144 -53 12 3 17 12 14 20 -3 8 1
14 10 14 32 0 2 18 -35 22 -22 2 -37 0 -35 -4 8 -13 -14 -9 -28 5 -7 8 -27 17
-43 21 -87 20 -161 33 -167 30 -4 -2 -10 1 -13 7 -5 7 8 9 41 5 27 -3 76 -8
108 -12 38 -4 57 -3 53 3 -4 6 3 20 14 31 l20 22 -66 0 c-37 0 -75 -5 -86 -11
-13 -6 -25 -7 -32 -1 -7 5 -37 9 -67 8 -30 -1 -47 0 -37 2 20 4 23 28 5 35 -7
2 4 9 24 16 21 7 43 9 49 5 6 -3 14 -2 18 3 3 6 15 7 26 3 16 -6 13 -8 -18
-14 -22 -4 -37 -13 -37 -21 0 -12 12 -14 58 -10 116 9 153 17 148 32 -4 8 -6
16 -6 18 0 2 -26 2 -57 -1 -41 -3 -54 -2 -43 6 8 5 11 10 5 10 -5 1 3 8 19 16
22 13 26 18 15 25 -8 5 -9 9 -3 9 6 0 22 10 35 22 20 18 21 20 4 13 -100 -39
-122 -48 -145 -60 -29 -15 -87 -28 -76 -18 4 4 16 8 27 10 28 4 82 33 75 40
-3 3 3 18 14 32 10 16 15 32 11 40 -6 9 -23 0 -62 -30 -30 -23 -60 -46 -66
-52 -7 -5 -13 -7 -13 -4 0 3 39 35 88 72 48 37 90 75 94 86 10 26 -7 24 -34
-3 -31 -32 -101 -88 -110 -88 -4 0 2 17 14 38 l22 37 -29 -25 c-24 -20 -22
-17 8 19 33 40 70 128 59 141 -2 3 -12 -7 -23 -22 -11 -14 -29 -37 -40 -50
l-20 -23 18 30 c9 17 29 45 43 64 22 30 22 33 4 21 -11 -7 -33 -32 -48 -56
-37 -58 -44 -57 -10 1 14 25 22 45 17 45 -8 -1 -21 -16 -66 -83 -14 -21 -28
-33 -32 -27 -3 5 -2 10 2 10 10 0 12 10 19 100 4 60 3 64 -11 45 -18 -22 -75
-195 -75 -225 0 -11 3 -20 8 -20 9 0 37 42 34 53 -1 4 3 7 8 7 14 0 12 -8 -8
-38 -10 -15 -24 -42 -32 -60 l-13 -33 -15 32 c-15 29 -14 36 2 78 38 97 55
180 46 229 -4 26 -8 40 -9 30 0 -9 -7 -18 -13 -20 -7 -3 -21 -45 -30 -94 -18
-89 -18 -84 -3 71 3 39 2 43 -4 20 -5 -16 -9 -23 -10 -15 -3 27 -31 -21 -31
-53 0 -25 2 -27 15 -17 12 10 13 6 9 -27 -3 -21 -8 -44 -10 -51 -7 -23 -24 -2
-25 31 -1 23 -4 18 -9 -18 -4 -27 -6 -69 -5 -92 1 -24 -3 -40 -8 -36 -5 3 -7
49 -4 107 3 63 2 82 -2 51 l-8 -50 -1 48 c-1 29 -6 46 -12 42 -5 -3 -10 2 -10
12 0 10 -7 27 -15 37 -18 24 -18 23 0 -93 9 -52 13 -96 10 -99 -3 -3 -5 3 -5
14 0 10 -7 32 -15 48 -8 15 -12 32 -9 38 3 5 1 30 -5 56 -6 26 -14 58 -16 71
-2 14 -10 29 -16 35 -8 8 -9 2 -4 -23z m175 -67 c0 -8 -4 -12 -10 -9 -5 3 -10
10 -10 16 0 5 5 9 10 9 6 0 10 -7 10 -16z m-134 -211 c-5 -5 -36 86 -35 101 0
6 9 -13 20 -43 10 -30 17 -56 15 -58z m124 10 c-10 -16 -11 -15 -6 7 3 14 6
34 7 45 1 13 3 11 6 -7 2 -15 -1 -35 -7 -45z m164 27 c-15 -22 -29 -40 -31
-40 -5 0 3 15 29 53 30 43 31 32 2 -13z m-247 -42 c-3 -7 -5 -2 -5 12 0 14 2
19 5 13 2 -7 2 -19 0 -25z m-49 -33 c-3 -3 -9 2 -12 12 -6 14 -5 15 5 6 7 -7
10 -15 7 -18z m-107 -74 c-7 -5 -10 -14 -7 -20 4 -6 12 -9 17 -6 5 4 9 1 9 -4
0 -12 -11 -14 -34 -5 -12 5 -13 10 -5 25 5 10 15 19 22 19 8 0 8 -3 -2 -9z
m219 -86 c4 3 6 -4 3 -15 -6 -24 0 -25 32 -4 22 15 23 14 18 -5 -3 -12 -9 -21
-14 -21 -12 0 1 -33 20 -49 14 -12 11 -13 -25 -8 -44 5 -74 -6 -74 -28 0 -8
-5 -17 -11 -21 -20 -12 2 40 25 59 11 9 14 15 6 12 -8 -2 -26 -6 -40 -9 -14
-2 -34 -7 -45 -10 -11 -3 1 4 27 16 37 18 46 28 46 48 0 14 0 39 2 55 l2 30
10 -28 c5 -15 13 -25 18 -22z m-270 -15 c0 -5 -2 -10 -4 -10 -3 0 -8 5 -11 10
-3 6 -1 10 4 10 6 0 11 -4 11 -10z m160 -17 l25 -12 -27 4 c-36 5 -50 14 -42
27 4 6 9 6 13 1 3 -5 17 -14 31 -20z m-6 -32 c4 -5 -3 -7 -14 -4 -23 6 -26 13
-6 13 8 0 17 -4 20 -9z m326 0 c0 -5 -10 -11 -23 -13 -14 -3 -24 0 -24 7 0 6
11 12 24 13 13 1 23 -2 23 -7z m157 3 c-3 -3 -12 -4 -19 -1 -8 3 -5 6 6 6 11
1 17 -2 13 -5z m-235 -39 c11 -14 25 -25 33 -25 26 0 22 -25 -8 -47 l-30 -22
-28 27 c-16 15 -29 31 -29 36 0 6 5 5 12 -2 16 -16 28 -15 28 3 0 8 5 15 12
15 6 0 3 9 -7 20 -10 11 -15 20 -10 20 4 0 16 -11 27 -25z m-272 5 c0 -5 -4
-10 -10 -10 -5 0 -10 5 -10 10 0 6 5 10 10 10 6 0 10 -4 10 -10z m324 -9 c4
-5 -3 -7 -14 -4 -23 6 -26 13 -6 13 8 0 17 -4 20 -9z m-254 -16 c-7 -8 -10
-21 -7 -29 5 -13 -40 -42 -51 -31 -3 2 -11 0 -19 -6 -18 -16 -16 -5 7 33 12
20 31 36 47 39 16 4 30 7 32 8 2 0 -2 -6 -9 -14z m71 1 c-6 -7 -8 -22 -4 -31
4 -12 3 -16 -5 -12 -6 4 -12 2 -15 -5 -2 -7 -2 1 1 17 5 36 10 45 24 45 7 0 7
-5 -1 -14z m-208 -13 c-7 -2 -21 -2 -30 0 -10 3 -4 5 12 5 17 0 24 -2 18 -5z
m37 -3 c0 -5 -2 -10 -4 -10 -3 0 -8 5 -11 10 -3 6 -1 10 4 10 6 0 11 -4 11
-10z m208 3 c-10 -2 -18 -12 -18 -20 0 -9 -3 -14 -6 -10 -12 11 5 37 23 36 17
-1 17 -2 1 -6z m-228 -33 c-8 -5 -22 -10 -30 -10 -13 0 -13 1 0 10 8 5 22 10
30 10 13 0 13 -1 0 -10z m240 -20 c0 -5 -4 -10 -10 -10 -5 0 -10 5 -10 10 0 6
5 10 10 10 6 0 10 -4 10 -10z m45 -32 c2 -20 1 -20 -11 -3 -7 10 -11 22 -8 27
8 13 17 2 19 -24z m-110 -9 c-6 -19 -5 -20 15 -9 27 14 26 15 35 -38 7 -42 6
-43 -13 -33 -15 8 -22 8 -25 -2 -3 -7 -6 -5 -6 6 -1 20 -17 23 -24 5 -4 -9 -6
-8 -6 2 -1 20 19 90 25 90 3 0 2 -9 -1 -21z m147 -21 c-7 -7 -12 -8 -13 -2 0
5 -2 18 -4 28 -3 18 -2 18 13 3 13 -13 14 -19 4 -29z m-58 16 c3 -8 2 -12 -4
-9 -6 3 -10 10 -10 16 0 14 7 11 14 -7z m0 -109 c4 -27 0 -19 -14 25 -10 36
-19 67 -19 70 2 15 28 -62 33 -95z m-136 60 c-6 -14 -13 -23 -15 -21 -5 5 15
46 22 46 3 0 -1 -11 -7 -25z m191 -95 c-1 -17 -23 32 -33 70 -3 14 3 7 14 -15
11 -22 19 -47 19 -55z m-162 3 c-3 -10 -5 -2 -5 17 0 19 2 27 5 18 2 -10 2
-26 0 -35z m20 -135 c-3 -8 -6 -5 -6 6 -1 11 2 17 5 13 3 -3 4 -12 1 -19z"/>
<path d="M801 1774 c0 -11 3 -14 6 -6 3 7 2 16 -1 19 -3 4 -6 -2 -5 -13z"/>
<path d="M586 1725 c9 -14 20 -22 25 -19 5 3 7 -1 4 -8 -5 -13 32 -44 42 -35
6 7 -67 87 -78 87 -5 0 -2 -11 7 -25z"/>
<path d="M1251 1671 c-8 -5 -16 -17 -17 -26 -2 -14 2 -13 22 6 32 30 29 41 -5
20z"/>
<path d="M1357 1608 c-37 -18 -55 -33 -50 -41 5 -8 8 -8 11 1 2 7 11 12 21 12
9 0 32 13 51 30 42 35 41 35 -33 -2z"/>
<path d="M1438 1603 c7 -3 16 -2 19 1 4 3 -2 6 -13 5 -11 0 -14 -3 -6 -6z"/>
<path d="M1377 1581 c-18 -11 -25 -21 -18 -25 6 -4 11 -2 11 4 0 6 5 8 10 5
12 -7 40 12 40 26 0 14 -12 11 -43 -10z"/>
<path d="M1405 1500 c-8 -13 5 -13 25 0 13 8 13 10 -2 10 -9 0 -20 -4 -23 -10z"/>
<path d="M580 1470 c0 -5 5 -10 10 -10 6 0 10 5 10 10 0 6 -4 10 -10 10 -5 0
-10 -4 -10 -10z"/>
<path d="M1455 1452 c-13 -9 -16 -42 -4 -42 11 0 22 25 17 39 -1 6 -7 7 -13 3z"/>
<path d="M1600 1449 c0 -5 5 -7 10 -4 6 3 10 8 10 11 0 2 -4 4 -10 4 -5 0 -10
-5 -10 -11z"/>
<path d="M1512 1314 c-11 -12 -10 -15 3 -20 21 -8 29 1 18 19 -7 13 -10 13
-21 1z"/>
<path d="M530 1290 c0 -5 7 -10 16 -10 8 0 12 5 9 10 -3 6 -10 10 -16 10 -5 0
-9 -4 -9 -10z"/>
<path d="M535 1220 c-12 -4 -27 -15 -34 -24 -12 -14 -10 -15 17 -5 17 6 36 17
43 25 13 16 5 17 -26 4z"/>
<path d="M1390 1207 c14 -8 36 -17 50 -21 l25 -7 -25 14 c-14 8 -36 17 -50 21
l-25 7 25 -14z"/>
<path d="M1570 1211 c0 -17 25 -30 40 -21 13 8 12 10 -2 10 -10 0 -18 5 -18
10 0 6 -4 10 -10 10 -5 0 -10 -4 -10 -9z"/>
<path d="M510 1170 c-9 -6 -10 -10 -3 -10 6 0 15 5 18 10 8 12 4 12 -15 0z"/>
<path d="M680 1147 c-8 -12 -15 -27 -15 -34 0 -6 -9 -21 -19 -32 -33 -37 -5
-23 43 21 55 50 57 54 36 62 -11 4 -14 2 -9 -7 6 -9 5 -9 -7 0 -12 10 -18 8
-29 -10z"/>
<path d="M533 1138 c-20 -10 -32 -28 -18 -28 12 0 75 29 75 34 0 9 -33 6 -57
-6z"/>
<path d="M1302 1097 c-28 -30 -28 -35 2 -33 19 1 22 4 13 14 -8 10 -5 14 11
19 12 3 22 9 22 14 0 17 -27 9 -48 -14z"/>
<path d="M1497 1075 c2 -7 13 -11 24 -8 25 7 24 10 -5 15 -16 3 -23 1 -19 -7z"/>
<path d="M1103 1067 c3 -8 11 -33 18 -55 12 -43 35 -60 53 -42 15 15 -34 104
-59 109 -13 2 -16 -1 -12 -12z"/>
<path d="M1350 1027 c4 -20 6 -38 4 -40 -9 -9 27 -29 42 -23 13 5 14 9 4 21
-6 8 -17 13 -23 12 -6 -1 -13 9 -15 23 -2 14 -7 29 -12 34 -5 5 -5 -8 0 -27z"/>
<path d="M793 1010 c-27 -46 -29 -57 -7 -39 14 12 44 61 44 74 0 16 -18 0 -37
-35z"/>
<path d="M1390 1045 c0 -5 5 -17 10 -25 5 -8 10 -10 10 -5 0 6 -5 17 -10 25
-5 8 -10 11 -10 5z"/>
<path d="M645 1020 c-4 -6 -10 -8 -15 -5 -5 3 -11 1 -14 -4 -8 -12 14 -8 39 7
11 6 15 12 8 12 -6 0 -15 -5 -18 -10z"/>
<path d="M677 1012 c-21 -23 -21 -29 -2 -29 8 0 13 2 10 5 -2 3 0 13 6 23 12
24 7 24 -14 1z"/>
<path d="M1326 1017 c3 -10 9 -15 12 -12 3 3 0 11 -7 18 -10 9 -11 8 -5 -6z"/>
<path d="M1461 994 c0 -11 3 -14 6 -6 3 7 2 16 -1 19 -3 4 -6 -2 -5 -13z"/>
<path d="M740 950 c-6 -11 -8 -20 -6 -20 3 0 10 9 16 20 6 11 8 20 6 20 -3 0
-10 -9 -16 -20z"/>
<path d="M1190 925 c-21 -26 -17 -75 8 -92 20 -14 22 -14 22 1 0 10 -8 16 -21
16 -18 0 -19 3 -9 15 6 8 8 20 4 26 -4 7 -3 9 3 6 6 -4 11 4 11 18 0 29 -2 30
-18 10z"/>
<path d="M755 916 c-11 -7 -24 -14 -30 -14 -5 0 -11 -6 -13 -14 -3 -10 -2 -10
6 1 7 9 11 10 13 2 3 -8 14 -2 28 13 27 29 26 33 -4 12z"/>
<path d="M1031 910 c2 -33 16 -89 18 -70 1 13 2 13 12 0 8 -11 9 -5 4 25 -8
48 -36 85 -34 45z"/>
<path d="M820 819 c0 -5 5 -7 10 -4 6 3 10 8 10 11 0 2 -4 4 -10 4 -5 0 -10
-5 -10 -11z"/>
<path d="M736 665 c-3 -8 -1 -15 3 -15 5 0 11 7 15 15 3 8 1 15 -3 15 -5 0
-11 -7 -15 -15z"/>
</g>
</svg>
