<?xml version="1.0" standalone="no"?>
<!DOCTYPE svg PUBLIC "-//W3C//DTD SVG 20010904//EN"
 "http://www.w3.org/TR/2001/REC-SVG-20010904/DTD/svg10.dtd">
<svg version="1.0" xmlns="http://www.w3.org/2000/svg"
 width="280.000000pt" height="280.000000pt" viewBox="0 0 280.000000 280.000000"
 preserveAspectRatio="xMidYMid meet">

<g transform="translate(0.000000,280.000000) scale(0.100000,-0.100000)"
fill="#000000" stroke="none">
<path d="M1345 2328 c-133 -177 -209 -425 -203 -664 l3 -119 260 0 260 0 3
119 c4 187 -42 383 -129 544 -44 84 -118 182 -136 182 -6 0 -32 -28 -58 -62z"/>
<path d="M393 1912 c6 -93 39 -221 82 -314 l26 -58 300 0 c164 0 299 3 299 6
0 13 -92 122 -147 175 -146 142 -354 249 -527 273 l-39 5 6 -87z"/>
<path d="M2340 1985 c-162 -33 -337 -127 -474 -255 -68 -64 -146 -159 -146
-178 0 -9 78 -12 294 -12 l295 0 25 56 c48 103 77 215 83 312 3 52 2 92 -3 91
-5 0 -38 -7 -74 -14z"/>
<path d="M546 1458 c4 -7 16 -25 26 -40 l19 -28 814 0 814 0 19 28 c10 15 22
33 26 40 6 9 -169 12 -859 12 -690 0 -865 -3 -859 -12z"/>
<path d="M695 1270 l39 -40 667 0 666 0 44 40 44 39 -750 1 -749 0 39 -40z"/>
<path d="M875 1135 c66 -54 243 -129 336 -141 l50 -7 -3 84 -3 84 -205 2 -205
3 30 -25z"/>
<path d="M1280 1153 c0 -22 108 -173 123 -173 15 0 127 153 127 173 0 4 -56 7
-125 7 -69 0 -125 -3 -125 -7z"/>
<path d="M1557 1153 c-3 -5 -8 -43 -12 -85 l-7 -78 29 0 c38 0 132 25 196 52
58 24 184 96 193 109 3 5 -83 9 -195 9 -110 0 -202 -3 -204 -7z"/>
<path d="M1060 809 c0 -64 -2 -70 -17 -64 -81 34 -149 25 -207 -25 -46 -40
-59 -78 -54 -149 5 -69 36 -118 91 -145 40 -19 128 -21 160 -5 16 9 22 9 25 0
2 -6 24 -11 48 -11 l44 0 0 235 0 235 -45 0 -45 0 0 -71z m-41 -148 c75 -53
33 -171 -61 -171 -30 0 -46 7 -69 29 -50 51 -34 127 35 157 34 15 59 11 95
-15z"/>
<path d="M1190 835 l0 -45 40 0 40 0 0 45 0 45 -40 0 -40 0 0 -45z"/>
<path d="M1590 810 c0 -70 0 -71 -22 -59 -34 18 -118 15 -161 -6 -68 -32 -108
-118 -93 -200 8 -40 55 -99 97 -121 33 -17 122 -19 152 -3 16 9 22 9 25 0 2
-6 24 -11 48 -11 l44 0 0 235 0 235 -45 0 -45 0 0 -70z m-27 -161 c38 -41 37
-90 -2 -130 -21 -21 -39 -29 -64 -29 -42 0 -92 37 -101 75 -10 39 18 93 56
110 43 18 76 10 111 -26z"/>
<path d="M2342 858 c-7 -7 -12 -21 -12 -33 0 -12 5 -26 12 -33 7 -7 21 -12 33
-12 12 0 26 5 33 12 24 24 8 79 -22 78 -6 0 -3 -5 7 -11 21 -13 22 -55 1 -63
-25 -10 -34 -7 -28 8 3 8 12 12 19 10 10 -4 12 1 8 15 -8 30 -33 26 -33 -5 0
-14 -4 -23 -10 -19 -16 10 -12 43 8 54 9 6 12 11 7 11 -6 0 -16 -5 -23 -12z"/>
<path d="M497 755 c-141 -50 -160 -250 -32 -322 44 -25 131 -31 167 -12 15 8
22 8 28 -1 4 -6 24 -10 46 -8 l39 3 3 173 2 172 -45 0 c-25 0 -45 -4 -45 -9 0
-5 -21 -3 -47 5 -56 17 -67 17 -116 -1z m97 -79 c70 -29 88 -105 37 -157 -55
-54 -148 -29 -167 46 -10 39 19 93 59 110 40 18 32 17 71 1z"/>
<path d="M1827 755 c-75 -26 -117 -84 -118 -163 -2 -61 23 -115 69 -150 26
-20 49 -27 97 -30 37 -3 71 1 85 8 17 9 24 9 30 0 4 -6 24 -10 46 -8 l39 3 3
173 2 172 -44 0 c-24 0 -46 -4 -48 -10 -2 -6 -19 -4 -43 5 -50 18 -70 18 -118
0z m119 -90 c11 -8 27 -27 34 -44 38 -92 -80 -174 -153 -107 -36 33 -43 70
-23 113 27 57 87 73 142 38z"/>
<path d="M2235 766 c-5 -3 -22 -7 -36 -10 -75 -16 -106 -116 -53 -169 23 -24
95 -47 143 -47 10 0 24 -7 31 -15 10 -13 10 -19 -5 -35 -27 -30 -72 -26 -105
10 -21 23 -37 30 -64 30 -41 0 -45 -13 -21 -59 20 -39 71 -61 145 -61 96 0
150 39 150 108 0 66 -31 91 -137 112 -72 14 -92 30 -68 54 29 28 105 14 105
-19 0 -11 12 -15 45 -15 25 0 45 3 45 6 0 21 -35 73 -59 87 -28 16 -97 30
-116 23z"/>
<path d="M1190 585 l0 -175 40 0 40 0 0 175 0 175 -40 0 -40 0 0 -175z"/>
</g>
</svg>
