<?xml version="1.0" standalone="no"?>
<!DOCTYPE svg PUBLIC "-//W3C//DTD SVG 20010904//EN"
 "http://www.w3.org/TR/2001/REC-SVG-20010904/DTD/svg10.dtd">
<svg version="1.0" xmlns="http://www.w3.org/2000/svg"
 width="237.000000pt" height="300.000000pt" viewBox="0 0 237.000000 300.000000"
 preserveAspectRatio="xMidYMid meet">

<g transform="translate(0.000000,300.000000) scale(0.100000,-0.100000)"
fill="#000000" stroke="none">
<path d="M1765 2733 c-12 -2 -34 -15 -50 -28 l-30 -24 38 10 c47 13 100 5 187
-28 65 -25 124 -27 226 -7 28 5 33 3 43 -23 10 -26 11 -25 7 16 -6 59 -16 67
-64 53 -65 -20 -151 -15 -230 13 -70 24 -85 27 -127 18z"/>
<path d="M1497 2695 c-73 -39 -117 -44 -174 -20 -67 28 -168 13 -204 -31 -10
-13 -8 -13 15 -4 42 16 118 12 188 -10 34 -11 71 -20 81 -20 9 0 53 19 97 42
73 38 82 41 115 31 31 -10 37 -9 46 8 15 29 3 39 -50 39 -36 0 -65 -9 -114
-35z"/>
<path d="M955 2532 c-33 -32 -104 -88 -158 -126 -293 -207 -343 -512 -157
-958 29 -71 34 -78 60 -78 45 0 63 10 49 26 -6 8 -17 14 -24 14 -14 0 -74 143
-110 265 -68 232 -27 462 106 595 52 52 101 70 137 51 17 -9 24 -6 47 20 29
35 65 101 65 121 0 7 11 37 25 67 14 30 24 55 23 57 -2 1 -30 -23 -63 -54z"/>
<path d="M2082 2519 c-53 -32 -82 -62 -82 -88 0 -11 4 -9 15 5 20 29 74 51 85
35 5 -9 9 -5 14 11 6 22 7 23 21 4 14 -19 15 -17 15 22 0 23 -3 42 -7 42 -5 0
-32 -14 -61 -31z"/>
<path d="M2000 2392 c0 -26 35 -51 84 -59 38 -6 66 8 66 34 0 13 -3 13 -15 3
-12 -10 -15 -9 -15 6 0 15 -2 16 -9 5 -11 -17 -67 -8 -93 16 -17 15 -18 15
-18 -5z"/>
<path d="M1900 2279 c-77 -36 -91 -39 -145 -35 -33 2 -70 7 -82 11 -22 7 -23
5 -23 -44 0 -39 -7 -62 -30 -99 -16 -27 -33 -64 -37 -83 -6 -33 -5 -32 54 31
69 74 259 195 355 228 32 10 55 22 51 25 -15 16 -63 4 -143 -34z"/>
<path d="M1666 2031 c-5 -8 -10 -50 -11 -95 -2 -44 -12 -118 -24 -162 -27
-104 -73 -316 -69 -318 12 -8 78 -23 78 -18 0 3 -10 16 -21 28 l-21 23 46 188
c45 184 52 246 38 328 -5 28 -10 36 -16 26z"/>
<path d="M811 1790 c-9 -62 -9 -102 -1 -178 8 -65 9 -119 3 -165 -9 -60 -8
-67 6 -61 9 3 37 9 64 11 52 6 56 12 28 37 -56 51 -94 217 -83 365 2 39 3 71
0 71 -2 0 -10 -36 -17 -80z"/>
<path d="M1396 1838 c-9 -20 -23 -64 -33 -98 -19 -70 -47 -95 -139 -125 l-52
-17 23 -75 c13 -41 26 -77 29 -80 3 -3 34 -8 70 -10 l66 -6 0 99 c0 113 13
203 40 283 21 63 18 83 -4 29z"/>
<path d="M1480 1418 c-25 -5 -97 -7 -160 -4 -114 6 -252 -6 -450 -39 -138 -24
-243 -36 -296 -34 -59 1 -274 -52 -312 -78 -27 -18 -24 -18 201 -23 l229 -5
23 -29 23 -29 746 -5 c528 -3 746 -2 746 6 0 21 -76 73 -130 88 -30 9 -95 29
-145 45 -49 15 -119 35 -154 44 -35 9 -97 29 -137 46 -78 30 -109 33 -184 17z"/>
<path d="M210 1188 c0 -27 -102 -384 -118 -415 -7 -12 -12 -24 -12 -27 0 -11
424 -6 463 5 46 12 64 39 88 127 l18 67 -24 19 -24 19 32 16 c36 18 66 82 66
144 1 60 -26 67 -279 67 l-210 0 0 -22z m300 -78 c0 -11 -7 -36 -14 -55 -15
-35 -15 -35 -79 -35 l-64 0 15 55 15 55 64 0 c57 0 63 -2 63 -20z m-57 -202
c-1 -15 -8 -40 -15 -55 -12 -26 -19 -28 -76 -31 -34 -2 -62 0 -62 3 0 4 7 31
16 61 l16 55 61 -3 c61 -3 62 -4 60 -30z"/>
<path d="M771 1127 c-13 -6 -32 -23 -43 -37 -19 -27 -88 -249 -88 -286 0 -12
12 -32 26 -43 25 -20 39 -21 271 -21 219 0 245 2 239 16 -3 9 -6 26 -6 40 l0
23 -157 3 c-155 3 -158 3 -161 26 -3 21 0 22 75 23 137 1 221 13 243 35 28 28
64 173 51 207 l-11 27 -207 0 c-145 0 -215 -4 -232 -13z m238 -67 c16 -8 17
-15 8 -55 l-10 -45 -69 0 c-37 0 -68 4 -68 9 0 21 24 77 38 89 19 14 76 16
101 2z"/>
<path d="M1254 1118 c3 -13 6 -31 6 -40 0 -16 15 -18 165 -18 91 0 165 -3 165
-6 0 -3 -5 -14 -10 -25 -10 -17 -22 -19 -136 -19 -183 0 -203 -12 -238 -148
-19 -72 -12 -97 32 -109 15 -5 177 -8 361 -8 l333 0 19 70 c29 112 58 187 76
201 10 7 37 14 61 14 66 0 121 35 136 88 7 22 6 22 -71 22 -48 0 -88 -6 -105
-14 -24 -13 -28 -13 -28 0 0 11 -19 14 -97 14 l-98 0 -1 -38 c-2 -49 -72 -293
-90 -312 -20 -21 -18 -6 16 130 37 148 38 172 4 199 -25 20 -39 21 -267 21
l-239 0 6 -22z m302 -195 c-2 -10 -10 -37 -17 -60 l-12 -43 -63 0 c-35 0 -65
4 -68 8 -7 11 12 83 26 100 7 7 35 12 75 12 57 0 64 -2 59 -17z"/>
<path d="M667 672 c-51 -52 -61 -74 -22 -48 31 20 89 21 105 1 7 -8 16 -13 20
-10 11 7 -31 105 -45 105 -6 0 -32 -22 -58 -48z m63 -4 c0 -5 -12 -8 -27 -8
-26 0 -26 0 -8 20 14 16 20 17 27 8 4 -7 8 -16 8 -20z"/>
<path d="M816 708 c-3 -7 -9 -28 -15 -47 -8 -24 -8 -38 -1 -45 7 -7 12 -4 16
12 8 29 40 29 71 0 24 -22 44 -19 25 5 -9 10 -7 17 8 30 11 9 20 26 20 37 0
18 -7 20 -60 20 -40 0 -62 -4 -64 -12z m94 -23 c0 -16 -64 -22 -74 -6 -9 14 5
21 41 21 23 0 33 -5 33 -15z"/>
<path d="M971 706 c-7 -8 -15 -30 -18 -49 -4 -30 -2 -36 17 -42 32 -10 107 3
114 20 8 21 -15 31 -26 11 -6 -10 -22 -16 -43 -16 -36 0 -44 15 -29 54 7 20
80 22 87 4 3 -10 7 -10 17 -1 22 20 0 33 -54 33 -34 0 -58 -5 -65 -14z"/>
<path d="M1126 708 c-3 -7 -9 -28 -15 -47 -14 -43 3 -68 18 -28 9 24 16 27 56
27 39 0 46 -3 43 -17 -1 -10 1 -20 6 -23 10 -5 34 52 35 83 1 24 -20 22 -26
-3 -4 -16 -14 -20 -49 -20 -37 0 -44 3 -44 20 0 22 -18 28 -24 8z"/>
<path d="M1292 673 c-10 -37 -10 -48 0 -55 18 -11 106 -10 113 2 4 6 -13 10
-44 10 -39 0 -51 4 -51 15 0 10 11 15 35 15 19 0 35 5 35 10 0 6 -13 10 -30
10 -16 0 -30 5 -30 10 0 6 25 10 55 10 30 0 55 5 55 10 0 6 -28 10 -63 10
l-63 0 -12 -47z"/>
<path d="M1437 673 c-16 -55 -10 -77 11 -45 18 28 39 28 69 0 23 -22 47 -18
25 4 -17 17 -15 25 8 31 14 3 20 14 20 31 0 25 -2 26 -59 26 l-60 0 -14 -47z
m103 12 c0 -10 -11 -15 -35 -15 -24 0 -35 5 -35 15 0 10 11 15 35 15 24 0 35
-5 35 -15z"/>
<path d="M1590 712 c0 -5 9 -17 20 -27 16 -14 19 -26 15 -47 -9 -37 13 -37 26
0 5 15 26 38 45 52 20 13 31 26 25 28 -6 2 -25 -6 -41 -18 l-31 -22 -23 21
c-24 22 -36 27 -36 13z"/>
</g>
</svg>
