<?xml version="1.0" standalone="no"?>
<!DOCTYPE svg PUBLIC "-//W3C//DTD SVG 20010904//EN"
 "http://www.w3.org/TR/2001/REC-SVG-20010904/DTD/svg10.dtd">
<svg version="1.0" xmlns="http://www.w3.org/2000/svg"
 width="512.000000pt" height="284.000000pt" viewBox="0 0 512.000000 284.000000"
 preserveAspectRatio="xMidYMid meet">

<g transform="translate(0.000000,284.000000) scale(0.100000,-0.100000)"
fill="#000000" stroke="none">
<path d="M1840 1969 c-160 -18 -284 -61 -321 -112 -9 -13 -44 -126 -78 -251
-71 -263 -71 -267 7 -308 62 -33 111 -44 262 -59 132 -12 399 -7 525 11 148
21 257 68 282 121 20 41 123 433 123 468 0 96 -180 142 -545 140 -99 -1 -214
-5 -255 -10z m372 -108 c14 -5 28 -16 31 -25 3 -8 -20 -110 -51 -227 -65 -240
-65 -241 -166 -260 -70 -13 -191 -3 -223 17 -13 8 -23 23 -23 34 0 24 94 377
110 411 15 34 44 50 105 60 59 9 182 4 217 -10z"/>
<path d="M271 1848 c-33 -126 -148 -549 -157 -580 -5 -17 9 -18 190 -18 l194
0 11 33 c5 17 24 87 42 155 l32 122 164 0 c89 0 163 -3 163 -6 0 -6 -64 -247
-76 -286 -5 -17 9 -18 190 -18 l195 0 10 38 c6 20 19 69 30 107 35 123 151
561 151 568 0 4 -87 7 -194 7 l-194 0 -22 -82 c-12 -46 -28 -107 -37 -135
l-14 -53 -166 0 c-134 0 -164 3 -160 13 10 25 67 237 67 247 0 6 -69 10 -193
10 l-194 0 -32 -122z"/>
<path d="M2703 1963 c2 -5 66 -111 142 -236 l137 -228 -31 -118 c-17 -64 -31
-121 -31 -124 0 -4 89 -6 197 -5 l197 3 31 118 c18 65 34 119 36 121 2 2 91
81 197 175 l194 171 214 0 c178 0 214 -2 214 -14 0 -12 -126 -494 -146 -559
-5 -16 7 -17 193 -15 l198 3 11 45 c13 51 132 496 140 523 5 15 23 17 193 17
l189 0 11 48 c7 26 14 55 17 65 5 16 -35 17 -749 17 l-755 0 -132 -140 c-73
-78 -136 -137 -140 -133 -4 4 -33 68 -65 141 l-58 132 -204 0 c-112 0 -202 -3
-200 -7z"/>
<path d="M4579 1333 c-13 -17 -13 -17 6 -3 11 8 22 16 24 17 2 2 0 3 -6 3 -6
0 -17 -8 -24 -17z"/>
<path d="M4601 1303 c2 -25 2 -26 6 -5 3 16 10 22 19 18 9 -3 12 -1 9 4 -13
21 -35 10 -34 -17z"/>
<path d="M4662 1300 c0 -14 2 -19 5 -12 2 6 2 18 0 25 -3 6 -5 1 -5 -13z"/>
<path d="M4570 1276 c0 -2 8 -10 18 -17 15 -13 16 -12 3 4 -13 16 -21 21 -21
13z"/>
<path d="M4640 1260 c-9 -6 -10 -10 -3 -10 6 0 15 5 18 10 8 12 4 12 -15 0z"/>
<path d="M971 958 c-64 -75 -69 -83 -49 -86 15 -3 28 4 36 17 13 19 24 21 104
21 81 0 90 -2 95 -20 4 -13 14 -20 30 -20 19 0 23 4 19 18 -3 9 -15 47 -26 85
l-21 67 -59 0 -59 0 -70 -82z m163 20 c3 -13 6 -26 6 -30 0 -5 -29 -8 -65 -8
-36 0 -65 3 -65 7 0 4 10 17 22 30 30 32 93 33 102 1z"/>
<path d="M1415 1028 c-2 -7 -11 -41 -20 -75 -8 -34 -18 -69 -21 -78 -4 -10 0
-15 13 -15 14 0 23 10 29 33 l10 32 100 3 100 3 17 -36 c9 -19 23 -35 32 -35
19 0 19 4 0 39 -14 28 -13 29 10 35 30 8 47 38 43 74 l-3 27 -153 3 c-117 2
-153 0 -157 -10z m273 -40 c-3 -9 -40 -14 -126 -16 -104 -2 -122 0 -122 13 0
13 20 15 126 15 96 0 125 -3 122 -12z"/>
<path d="M1913 1033 c-18 -7 -58 -142 -46 -154 15 -15 305 -7 310 8 3 9 -30
13 -134 15 l-138 3 3 24 c2 14 8 35 13 48 8 23 11 23 147 23 76 0 141 3 145 6
3 3 3 12 0 20 -4 11 -34 14 -147 13 -77 0 -147 -3 -153 -6z"/>
<path d="M2361 962 c-25 -94 -25 -92 -5 -92 8 0 20 14 25 30 l11 30 124 0 c68
0 124 -2 124 -4 0 -3 -4 -16 -10 -30 -8 -22 -7 -26 10 -26 14 0 22 11 30 40 5
22 15 58 21 81 6 23 8 43 5 46 -12 12 -34 -8 -39 -36 l-6 -31 -126 0 -126 0 7
23 c4 12 9 28 11 35 3 7 -3 12 -15 12 -16 0 -24 -14 -41 -78z"/>
<path d="M2868 1023 c-17 -21 -50 -132 -42 -144 3 -5 72 -9 153 -9 120 0 151
3 161 15 11 13 -4 15 -129 15 -119 0 -141 2 -141 15 0 12 20 15 119 15 110 0
119 1 124 20 5 19 0 20 -114 20 -101 0 -118 2 -113 15 5 12 31 15 150 15 79 0
144 2 144 4 0 2 -3 11 -6 20 -5 14 -28 16 -149 16 -123 0 -144 -2 -157 -17z"/>
<path d="M3321 954 c-12 -47 -20 -89 -17 -91 12 -12 34 8 39 36 l7 31 100 0
100 0 17 -35 c10 -21 24 -35 35 -35 17 0 18 2 3 31 -9 17 -15 32 -13 32 47 23
74 64 63 97 -6 19 -16 20 -159 20 l-152 0 -23 -86z m297 34 c-3 -9 -41 -14
-131 -16 -110 -2 -126 -1 -121 13 5 12 28 15 131 15 95 0 124 -3 121 -12z"/>
<path d="M3869 986 c48 -49 52 -57 46 -86 -6 -27 -4 -31 11 -28 10 1 21 16 26
33 6 23 27 42 90 82 71 45 79 52 55 53 -16 0 -50 -15 -80 -35 -28 -19 -56 -35
-61 -35 -5 0 -28 16 -52 35 -23 19 -53 35 -65 35 -21 0 -17 -6 30 -54z"/>
</g>
</svg>
