<?xml version="1.0" standalone="no"?>
<!DOCTYPE svg PUBLIC "-//W3C//DTD SVG 20010904//EN"
 "http://www.w3.org/TR/2001/REC-SVG-20010904/DTD/svg10.dtd">
<svg version="1.0" xmlns="http://www.w3.org/2000/svg"
 width="600.000000pt" height="224.000000pt" viewBox="0 0 600.000000 224.000000"
 preserveAspectRatio="xMidYMid meet">

<g transform="translate(0.000000,224.000000) scale(0.100000,-0.100000)"
fill="#000000" stroke="none">
<path d="M2617 2230 c-930 -46 -1729 -239 -2198 -530 -400 -248 -520 -563
-327 -861 382 -594 2025 -955 3658 -803 1119 104 1981 439 2187 851 91 182 82
342 -29 514 -236 368 -996 669 -1978 783 -379 45 -948 64 -1313 46z m658 -80
c1464 -53 2570 -466 2640 -986 28 -214 -150 -438 -496 -623 -790 -422 -2372
-575 -3678 -355 -545 91 -1017 251 -1311 444 -110 73 -252 211 -292 286 -142
264 -7 524 390 754 472 272 1355 461 2262 483 58 2 130 4 160 5 30 1 177 -3
325 -8z"/>
<path d="M1735 1826 c-112 -29 -225 -96 -307 -181 -55 -57 -64 -63 -93 -58
-44 7 -163 -14 -255 -45 -278 -92 -482 -278 -521 -475 -34 -170 84 -296 308
-327 301 -43 612 80 901 354 67 63 163 184 277 346 105 149 160 210 192 210
14 0 23 -6 23 -15 0 -33 -130 -258 -324 -559 -42 -65 -76 -123 -76 -128 0 -11
157 0 183 14 9 5 29 32 43 61 172 339 378 637 441 637 13 0 23 -5 23 -10 0
-15 -41 -94 -132 -253 -107 -187 -178 -335 -185 -385 l-5 -40 53 -7 c30 -4 70
-5 89 -3 34 3 35 4 42 59 11 91 73 227 216 474 41 72 81 148 88 169 21 57 5
98 -46 121 -50 23 -103 16 -181 -23 -56 -27 -60 -28 -75 -11 -45 50 -122 46
-237 -12 l-60 -31 -39 45 c-57 67 -106 87 -209 86 -46 0 -106 -6 -134 -13z
m185 -96 c74 -74 -7 -249 -240 -524 -125 -148 -308 -286 -455 -342 -102 -39
-256 -45 -350 -14 -115 38 -162 100 -153 200 8 78 44 137 147 241 82 82 110
102 191 142 94 46 190 77 240 77 26 0 26 -1 22 -65 -5 -82 1 -106 40 -150 l31
-36 -53 -54 c-29 -29 -49 -58 -46 -64 20 -33 98 3 186 84 21 19 54 37 84 44
55 14 149 60 187 93 95 83 61 147 -40 74 -50 -37 -104 -66 -121 -66 -5 0 -10
22 -10 52 0 49 -2 54 -50 99 l-50 47 37 32 c52 46 139 100 203 127 73 30 171
32 200 3z m-432 -300 c4 -33 -14 -80 -30 -80 -4 0 -17 9 -28 20 -24 24 -27 82
-4 105 24 23 58 -1 62 -45z"/>
<path d="M4645 1719 c-232 -20 -459 -65 -754 -148 -79 -23 -147 -41 -152 -41
-4 0 2 22 14 50 25 59 16 89 -35 120 -94 57 -224 -24 -327 -203 l-32 -55 -65
-7 c-36 -4 -67 -5 -71 -2 -10 10 34 71 91 124 61 58 78 96 54 120 -13 13 -20
13 -54 -2 -21 -10 -61 -18 -88 -19 l-49 -1 -13 -62 c-20 -97 -48 -153 -77
-153 -60 0 -131 21 -168 51 -43 34 -55 33 -126 -7 -36 -21 -43 -30 -43 -55 0
-25 6 -32 33 -43 44 -18 119 -34 200 -41 78 -8 78 -6 21 -90 -45 -68 -126
-147 -138 -135 -5 5 8 39 33 85 23 41 40 79 37 84 -10 16 -102 35 -171 35 -81
1 -147 -28 -220 -95 -53 -49 -75 -93 -75 -153 0 -36 6 -52 29 -78 37 -41 77
-41 157 1 l59 31 9 -30 c17 -58 75 -47 158 28 l41 37 -7 -41 c-13 -76 47 -84
145 -19 28 19 53 35 55 35 2 0 4 -9 4 -20 0 -20 33 -60 49 -60 20 0 71 53 101
106 35 63 111 144 135 144 12 0 6 -18 -25 -76 -83 -157 -41 -204 114 -126 42
21 76 35 76 31 0 -4 14 -21 31 -38 22 -22 40 -31 63 -31 37 0 121 27 184 59
54 27 62 27 62 -7 0 -60 51 -68 134 -22 37 21 56 27 61 20 4 -6 4 -14 1 -17
-13 -13 19 -33 53 -33 67 1 135 41 271 162 52 47 71 58 99 58 l34 0 -56 -59
c-64 -67 -71 -94 -34 -137 49 -57 160 -39 272 43 l40 29 51 -27 c29 -15 84
-33 123 -40 63 -11 81 -10 144 5 176 41 305 170 338 338 22 110 -24 215 -124
279 -142 92 -366 125 -672 98z m-1007 -145 c5 -47 -30 -80 -103 -98 -32 -8
-61 -13 -63 -11 -7 7 35 68 65 96 61 57 96 62 101 13z m1432 11 c102 -21 164
-51 209 -100 127 -137 0 -384 -197 -385 -57 0 -147 27 -189 58 -23 17 -26 26
-27 83 -1 44 -8 75 -21 98 -36 62 -44 61 -134 -12 -45 -37 -91 -67 -102 -67
-12 0 -27 12 -37 30 -20 35 -28 38 -102 41 -83 2 -82 3 -75 -35 11 -54 -44
-132 -106 -151 -47 -15 -31 24 42 102 53 56 56 64 36 82 -18 14 -101 -1 -125
-22 -10 -9 -33 -42 -51 -74 -18 -32 -42 -65 -54 -74 -31 -23 -67 -33 -67 -19
0 29 44 91 82 117 81 54 55 102 -50 95 l-63 -4 -34 -71 c-18 -40 -46 -84 -62
-99 -67 -63 -253 -126 -253 -85 0 11 15 20 43 27 117 28 149 43 193 84 35 34
44 49 44 77 0 56 -29 79 -98 79 -125 0 -269 -106 -291 -213 -6 -26 -15 -35
-54 -51 -26 -11 -49 -17 -53 -14 -10 10 16 49 83 126 83 96 83 122 -4 122
l-35 0 55 45 c31 25 62 45 69 45 7 0 87 18 178 40 152 37 549 108 715 129 124
15 456 13 535 -4z m-1580 -200 c0 -7 -82 -65 -92 -65 -5 0 -2 13 7 29 10 19
24 31 42 34 16 2 31 5 36 6 4 0 7 -1 7 -4z m-170 -34 c0 -5 -20 -35 -43 -67
-68 -92 -177 -187 -195 -170 -9 9 25 103 62 172 30 58 32 59 81 65 81 9 95 10
95 0z m550 -78 c-1 -25 -45 -53 -84 -53 -32 0 -34 22 -3 43 22 16 87 23 87 10z
m-1080 -56 c0 -18 -48 -81 -82 -107 -14 -11 -40 -23 -57 -26 -28 -6 -31 -4
-31 18 0 33 25 65 78 99 48 31 92 38 92 16z m1913 -71 c9 -22 -31 -66 -59 -66
-33 0 -32 32 2 59 31 25 50 27 57 7z"/>
<path d="M5309 1019 c-22 -42 -100 -139 -127 -157 -82 -59 -199 -77 -451 -69
-188 6 -277 17 -521 63 -406 77 -673 91 -966 48 -141 -20 -233 -47 -353 -105
l-104 -49 -46 29 c-131 85 -253 111 -516 111 -123 0 -224 -5 -285 -15 -121
-20 -366 -83 -540 -140 -223 -73 -453 -122 -510 -109 -64 15 -131 39 -193 71
-81 41 -107 39 -81 -6 24 -40 86 -78 177 -106 137 -44 225 -34 645 70 605 149
1012 160 1290 34 l66 -30 76 35 c294 133 599 148 1150 55 289 -49 475 -70 670
-76 168 -5 194 -3 270 16 124 31 221 80 281 143 50 51 109 155 109 191 0 24
-27 21 -41 -4z"/>
</g>
</svg>
